<?xml version="1.0" encoding="utf-8" standalone="no"?>
<!DOCTYPE svg PUBLIC "-//W3C//DTD SVG 1.1//EN"
  "http://www.w3.org/Graphics/SVG/1.1/DTD/svg11.dtd">
<svg xmlns:xlink="http://www.w3.org/1999/xlink" width="1382.4pt" height="707.76pt" viewBox="0 0 1382.4 707.76" xmlns="http://www.w3.org/2000/svg" version="1.1">
 <metadata>
  <rdf:RDF xmlns:dc="http://purl.org/dc/elements/1.1/" xmlns:cc="http://creativecommons.org/ns#" xmlns:rdf="http://www.w3.org/1999/02/22-rdf-syntax-ns#">
   <cc:Work>
    <dc:type rdf:resource="http://purl.org/dc/dcmitype/StillImage"/>
    <dc:date>2024-05-22T00:50:25.997405</dc:date>
    <dc:format>image/svg+xml</dc:format>
    <dc:creator>
     <cc:Agent>
      <dc:title>Matplotlib v3.5.1, https://matplotlib.org/</dc:title>
     </cc:Agent>
    </dc:creator>
   </cc:Work>
  </rdf:RDF>
 </metadata>
 <defs>
  <style type="text/css">*{stroke-linejoin: round; stroke-linecap: butt}</style>
 </defs>
 <g id="figure_1">
  <g id="patch_1">
   <path d="M 0 707.76 
L 1382.4 707.76 
L 1382.4 0 
L 0 0 
z
" style="fill: #ffffff"/>
  </g>
  <g id="axes_1">
   <g id="patch_2">
    <path d="M 172.8 332.6472 
L 1244.16 332.6472 
L 1244.16 84.9312 
L 172.8 84.9312 
z
" style="fill: #ffffff"/>
   </g>
   <g id="matplotlib.axis_1">
    <g id="xtick_1">
     <g id="line2d_1">
      <defs>
       <path id="m623fbc3d3e" d="M 0 0 
L 0 3.5 
" style="stroke: #000000; stroke-width: 0.8"/>
      </defs>
      <g>
       <use xlink:href="#m623fbc3d3e" x="172.8" y="332.6472" style="stroke: #000000; stroke-width: 0.8"/>
      </g>
     </g>
     <g id="text_1">
      <!-- 0 -->
      <g transform="translate(169.61875 347.245637)scale(0.1 -0.1)">
       <defs>
        <path id="DejaVuSans-30" d="M 2034 4250 
Q 1547 4250 1301 3770 
Q 1056 3291 1056 2328 
Q 1056 1369 1301 889 
Q 1547 409 2034 409 
Q 2525 409 2770 889 
Q 3016 1369 3016 2328 
Q 3016 3291 2770 3770 
Q 2525 4250 2034 4250 
z
M 2034 4750 
Q 2819 4750 3233 4129 
Q 3647 3509 3647 2328 
Q 3647 1150 3233 529 
Q 2819 -91 2034 -91 
Q 1250 -91 836 529 
Q 422 1150 422 2328 
Q 422 3509 836 4129 
Q 1250 4750 2034 4750 
z
" transform="scale(0.015625)"/>
       </defs>
       <use xlink:href="#DejaVuSans-30"/>
      </g>
     </g>
    </g>
    <g id="xtick_2">
     <g id="line2d_2">
      <g>
       <use xlink:href="#m623fbc3d3e" x="374.943396" y="332.6472" style="stroke: #000000; stroke-width: 0.8"/>
      </g>
     </g>
     <g id="text_2">
      <!-- 20 -->
      <g transform="translate(368.580896 347.245637)scale(0.1 -0.1)">
       <defs>
        <path id="DejaVuSans-32" d="M 1228 531 
L 3431 531 
L 3431 0 
L 469 0 
L 469 531 
Q 828 903 1448 1529 
Q 2069 2156 2228 2338 
Q 2531 2678 2651 2914 
Q 2772 3150 2772 3378 
Q 2772 3750 2511 3984 
Q 2250 4219 1831 4219 
Q 1534 4219 1204 4116 
Q 875 4013 500 3803 
L 500 4441 
Q 881 4594 1212 4672 
Q 1544 4750 1819 4750 
Q 2544 4750 2975 4387 
Q 3406 4025 3406 3419 
Q 3406 3131 3298 2873 
Q 3191 2616 2906 2266 
Q 2828 2175 2409 1742 
Q 1991 1309 1228 531 
z
" transform="scale(0.015625)"/>
       </defs>
       <use xlink:href="#DejaVuSans-32"/>
       <use xlink:href="#DejaVuSans-30" x="63.623047"/>
      </g>
     </g>
    </g>
    <g id="xtick_3">
     <g id="line2d_3">
      <g>
       <use xlink:href="#m623fbc3d3e" x="577.086792" y="332.6472" style="stroke: #000000; stroke-width: 0.8"/>
      </g>
     </g>
     <g id="text_3">
      <!-- 40 -->
      <g transform="translate(570.724292 347.245637)scale(0.1 -0.1)">
       <defs>
        <path id="DejaVuSans-34" d="M 2419 4116 
L 825 1625 
L 2419 1625 
L 2419 4116 
z
M 2253 4666 
L 3047 4666 
L 3047 1625 
L 3713 1625 
L 3713 1100 
L 3047 1100 
L 3047 0 
L 2419 0 
L 2419 1100 
L 313 1100 
L 313 1709 
L 2253 4666 
z
" transform="scale(0.015625)"/>
       </defs>
       <use xlink:href="#DejaVuSans-34"/>
       <use xlink:href="#DejaVuSans-30" x="63.623047"/>
      </g>
     </g>
    </g>
    <g id="xtick_4">
     <g id="line2d_4">
      <g>
       <use xlink:href="#m623fbc3d3e" x="779.230189" y="332.6472" style="stroke: #000000; stroke-width: 0.8"/>
      </g>
     </g>
     <g id="text_4">
      <!-- 60 -->
      <g transform="translate(772.867689 347.245637)scale(0.1 -0.1)">
       <defs>
        <path id="DejaVuSans-36" d="M 2113 2584 
Q 1688 2584 1439 2293 
Q 1191 2003 1191 1497 
Q 1191 994 1439 701 
Q 1688 409 2113 409 
Q 2538 409 2786 701 
Q 3034 994 3034 1497 
Q 3034 2003 2786 2293 
Q 2538 2584 2113 2584 
z
M 3366 4563 
L 3366 3988 
Q 3128 4100 2886 4159 
Q 2644 4219 2406 4219 
Q 1781 4219 1451 3797 
Q 1122 3375 1075 2522 
Q 1259 2794 1537 2939 
Q 1816 3084 2150 3084 
Q 2853 3084 3261 2657 
Q 3669 2231 3669 1497 
Q 3669 778 3244 343 
Q 2819 -91 2113 -91 
Q 1303 -91 875 529 
Q 447 1150 447 2328 
Q 447 3434 972 4092 
Q 1497 4750 2381 4750 
Q 2619 4750 2861 4703 
Q 3103 4656 3366 4563 
z
" transform="scale(0.015625)"/>
       </defs>
       <use xlink:href="#DejaVuSans-36"/>
       <use xlink:href="#DejaVuSans-30" x="63.623047"/>
      </g>
     </g>
    </g>
    <g id="xtick_5">
     <g id="line2d_5">
      <g>
       <use xlink:href="#m623fbc3d3e" x="981.373585" y="332.6472" style="stroke: #000000; stroke-width: 0.8"/>
      </g>
     </g>
     <g id="text_5">
      <!-- 80 -->
      <g transform="translate(975.011085 347.245637)scale(0.1 -0.1)">
       <defs>
        <path id="DejaVuSans-38" d="M 2034 2216 
Q 1584 2216 1326 1975 
Q 1069 1734 1069 1313 
Q 1069 891 1326 650 
Q 1584 409 2034 409 
Q 2484 409 2743 651 
Q 3003 894 3003 1313 
Q 3003 1734 2745 1975 
Q 2488 2216 2034 2216 
z
M 1403 2484 
Q 997 2584 770 2862 
Q 544 3141 544 3541 
Q 544 4100 942 4425 
Q 1341 4750 2034 4750 
Q 2731 4750 3128 4425 
Q 3525 4100 3525 3541 
Q 3525 3141 3298 2862 
Q 3072 2584 2669 2484 
Q 3125 2378 3379 2068 
Q 3634 1759 3634 1313 
Q 3634 634 3220 271 
Q 2806 -91 2034 -91 
Q 1263 -91 848 271 
Q 434 634 434 1313 
Q 434 1759 690 2068 
Q 947 2378 1403 2484 
z
M 1172 3481 
Q 1172 3119 1398 2916 
Q 1625 2713 2034 2713 
Q 2441 2713 2670 2916 
Q 2900 3119 2900 3481 
Q 2900 3844 2670 4047 
Q 2441 4250 2034 4250 
Q 1625 4250 1398 4047 
Q 1172 3844 1172 3481 
z
" transform="scale(0.015625)"/>
       </defs>
       <use xlink:href="#DejaVuSans-38"/>
       <use xlink:href="#DejaVuSans-30" x="63.623047"/>
      </g>
     </g>
    </g>
    <g id="xtick_6">
     <g id="line2d_6">
      <g>
       <use xlink:href="#m623fbc3d3e" x="1183.516981" y="332.6472" style="stroke: #000000; stroke-width: 0.8"/>
      </g>
     </g>
     <g id="text_6">
      <!-- 100 -->
      <g transform="translate(1173.973231 347.245637)scale(0.1 -0.1)">
       <defs>
        <path id="DejaVuSans-31" d="M 794 531 
L 1825 531 
L 1825 4091 
L 703 3866 
L 703 4441 
L 1819 4666 
L 2450 4666 
L 2450 531 
L 3481 531 
L 3481 0 
L 794 0 
L 794 531 
z
" transform="scale(0.015625)"/>
       </defs>
       <use xlink:href="#DejaVuSans-31"/>
       <use xlink:href="#DejaVuSans-30" x="63.623047"/>
       <use xlink:href="#DejaVuSans-30" x="127.246094"/>
      </g>
     </g>
    </g>
    <g id="text_7">
     <!-- Zeit in ms -->
     <g transform="translate(683.418281 360.923763)scale(0.1 -0.1)">
      <defs>
       <path id="DejaVuSans-5a" d="M 359 4666 
L 4025 4666 
L 4025 4184 
L 1075 531 
L 4097 531 
L 4097 0 
L 288 0 
L 288 481 
L 3238 4134 
L 359 4134 
L 359 4666 
z
" transform="scale(0.015625)"/>
       <path id="DejaVuSans-65" d="M 3597 1894 
L 3597 1613 
L 953 1613 
Q 991 1019 1311 708 
Q 1631 397 2203 397 
Q 2534 397 2845 478 
Q 3156 559 3463 722 
L 3463 178 
Q 3153 47 2828 -22 
Q 2503 -91 2169 -91 
Q 1331 -91 842 396 
Q 353 884 353 1716 
Q 353 2575 817 3079 
Q 1281 3584 2069 3584 
Q 2775 3584 3186 3129 
Q 3597 2675 3597 1894 
z
M 3022 2063 
Q 3016 2534 2758 2815 
Q 2500 3097 2075 3097 
Q 1594 3097 1305 2825 
Q 1016 2553 972 2059 
L 3022 2063 
z
" transform="scale(0.015625)"/>
       <path id="DejaVuSans-69" d="M 603 3500 
L 1178 3500 
L 1178 0 
L 603 0 
L 603 3500 
z
M 603 4863 
L 1178 4863 
L 1178 4134 
L 603 4134 
L 603 4863 
z
" transform="scale(0.015625)"/>
       <path id="DejaVuSans-74" d="M 1172 4494 
L 1172 3500 
L 2356 3500 
L 2356 3053 
L 1172 3053 
L 1172 1153 
Q 1172 725 1289 603 
Q 1406 481 1766 481 
L 2356 481 
L 2356 0 
L 1766 0 
Q 1100 0 847 248 
Q 594 497 594 1153 
L 594 3053 
L 172 3053 
L 172 3500 
L 594 3500 
L 594 4494 
L 1172 4494 
z
" transform="scale(0.015625)"/>
       <path id="DejaVuSans-20" transform="scale(0.015625)"/>
       <path id="DejaVuSans-6e" d="M 3513 2113 
L 3513 0 
L 2938 0 
L 2938 2094 
Q 2938 2591 2744 2837 
Q 2550 3084 2163 3084 
Q 1697 3084 1428 2787 
Q 1159 2491 1159 1978 
L 1159 0 
L 581 0 
L 581 3500 
L 1159 3500 
L 1159 2956 
Q 1366 3272 1645 3428 
Q 1925 3584 2291 3584 
Q 2894 3584 3203 3211 
Q 3513 2838 3513 2113 
z
" transform="scale(0.015625)"/>
       <path id="DejaVuSans-6d" d="M 3328 2828 
Q 3544 3216 3844 3400 
Q 4144 3584 4550 3584 
Q 5097 3584 5394 3201 
Q 5691 2819 5691 2113 
L 5691 0 
L 5113 0 
L 5113 2094 
Q 5113 2597 4934 2840 
Q 4756 3084 4391 3084 
Q 3944 3084 3684 2787 
Q 3425 2491 3425 1978 
L 3425 0 
L 2847 0 
L 2847 2094 
Q 2847 2600 2669 2842 
Q 2491 3084 2119 3084 
Q 1678 3084 1418 2786 
Q 1159 2488 1159 1978 
L 1159 0 
L 581 0 
L 581 3500 
L 1159 3500 
L 1159 2956 
Q 1356 3278 1631 3431 
Q 1906 3584 2284 3584 
Q 2666 3584 2933 3390 
Q 3200 3197 3328 2828 
z
" transform="scale(0.015625)"/>
       <path id="DejaVuSans-73" d="M 2834 3397 
L 2834 2853 
Q 2591 2978 2328 3040 
Q 2066 3103 1784 3103 
Q 1356 3103 1142 2972 
Q 928 2841 928 2578 
Q 928 2378 1081 2264 
Q 1234 2150 1697 2047 
L 1894 2003 
Q 2506 1872 2764 1633 
Q 3022 1394 3022 966 
Q 3022 478 2636 193 
Q 2250 -91 1575 -91 
Q 1294 -91 989 -36 
Q 684 19 347 128 
L 347 722 
Q 666 556 975 473 
Q 1284 391 1588 391 
Q 1994 391 2212 530 
Q 2431 669 2431 922 
Q 2431 1156 2273 1281 
Q 2116 1406 1581 1522 
L 1381 1569 
Q 847 1681 609 1914 
Q 372 2147 372 2553 
Q 372 3047 722 3315 
Q 1072 3584 1716 3584 
Q 2034 3584 2315 3537 
Q 2597 3491 2834 3397 
z
" transform="scale(0.015625)"/>
      </defs>
      <use xlink:href="#DejaVuSans-5a"/>
      <use xlink:href="#DejaVuSans-65" x="68.505859"/>
      <use xlink:href="#DejaVuSans-69" x="130.029297"/>
      <use xlink:href="#DejaVuSans-74" x="157.8125"/>
      <use xlink:href="#DejaVuSans-20" x="197.021484"/>
      <use xlink:href="#DejaVuSans-69" x="228.808594"/>
      <use xlink:href="#DejaVuSans-6e" x="256.591797"/>
      <use xlink:href="#DejaVuSans-20" x="319.970703"/>
      <use xlink:href="#DejaVuSans-6d" x="351.757812"/>
      <use xlink:href="#DejaVuSans-73" x="449.169922"/>
     </g>
    </g>
   </g>
   <g id="matplotlib.axis_2">
    <g id="ytick_1">
     <g id="line2d_7">
      <defs>
       <path id="mb71d9a5931" d="M 0 0 
L -3.5 0 
" style="stroke: #000000; stroke-width: 0.8"/>
      </defs>
      <g>
       <use xlink:href="#mb71d9a5931" x="172.8" y="312.398899" style="stroke: #000000; stroke-width: 0.8"/>
      </g>
     </g>
     <g id="text_8">
      <!-- −200 -->
      <g transform="translate(138.332812 316.198117)scale(0.1 -0.1)">
       <defs>
        <path id="DejaVuSans-2212" d="M 678 2272 
L 4684 2272 
L 4684 1741 
L 678 1741 
L 678 2272 
z
" transform="scale(0.015625)"/>
       </defs>
       <use xlink:href="#DejaVuSans-2212"/>
       <use xlink:href="#DejaVuSans-32" x="83.789062"/>
       <use xlink:href="#DejaVuSans-30" x="147.412109"/>
       <use xlink:href="#DejaVuSans-30" x="211.035156"/>
      </g>
     </g>
    </g>
    <g id="ytick_2">
     <g id="line2d_8">
      <g>
       <use xlink:href="#mb71d9a5931" x="172.8" y="259.181117" style="stroke: #000000; stroke-width: 0.8"/>
      </g>
     </g>
     <g id="text_9">
      <!-- −100 -->
      <g transform="translate(138.332812 262.980336)scale(0.1 -0.1)">
       <use xlink:href="#DejaVuSans-2212"/>
       <use xlink:href="#DejaVuSans-31" x="83.789062"/>
       <use xlink:href="#DejaVuSans-30" x="147.412109"/>
       <use xlink:href="#DejaVuSans-30" x="211.035156"/>
      </g>
     </g>
    </g>
    <g id="ytick_3">
     <g id="line2d_9">
      <g>
       <use xlink:href="#mb71d9a5931" x="172.8" y="205.963336" style="stroke: #000000; stroke-width: 0.8"/>
      </g>
     </g>
     <g id="text_10">
      <!-- 0 -->
      <g transform="translate(159.4375 209.762555)scale(0.1 -0.1)">
       <use xlink:href="#DejaVuSans-30"/>
      </g>
     </g>
    </g>
    <g id="ytick_4">
     <g id="line2d_10">
      <g>
       <use xlink:href="#mb71d9a5931" x="172.8" y="152.745554" style="stroke: #000000; stroke-width: 0.8"/>
      </g>
     </g>
     <g id="text_11">
      <!-- 100 -->
      <g transform="translate(146.7125 156.544773)scale(0.1 -0.1)">
       <use xlink:href="#DejaVuSans-31"/>
       <use xlink:href="#DejaVuSans-30" x="63.623047"/>
       <use xlink:href="#DejaVuSans-30" x="127.246094"/>
      </g>
     </g>
    </g>
    <g id="ytick_5">
     <g id="line2d_11">
      <g>
       <use xlink:href="#mb71d9a5931" x="172.8" y="99.527773" style="stroke: #000000; stroke-width: 0.8"/>
      </g>
     </g>
     <g id="text_12">
      <!-- 200 -->
      <g transform="translate(146.7125 103.326992)scale(0.1 -0.1)">
       <use xlink:href="#DejaVuSans-32"/>
       <use xlink:href="#DejaVuSans-30" x="63.623047"/>
       <use xlink:href="#DejaVuSans-30" x="127.246094"/>
      </g>
     </g>
    </g>
    <g id="text_13">
     <!-- Winkelgeschwindigkeit in °/s -->
     <g transform="translate(132.253125 280.180606)rotate(-90)scale(0.1 -0.1)">
      <defs>
       <path id="DejaVuSans-57" d="M 213 4666 
L 850 4666 
L 1831 722 
L 2809 4666 
L 3519 4666 
L 4500 722 
L 5478 4666 
L 6119 4666 
L 4947 0 
L 4153 0 
L 3169 4050 
L 2175 0 
L 1381 0 
L 213 4666 
z
" transform="scale(0.015625)"/>
       <path id="DejaVuSans-6b" d="M 581 4863 
L 1159 4863 
L 1159 1991 
L 2875 3500 
L 3609 3500 
L 1753 1863 
L 3688 0 
L 2938 0 
L 1159 1709 
L 1159 0 
L 581 0 
L 581 4863 
z
" transform="scale(0.015625)"/>
       <path id="DejaVuSans-6c" d="M 603 4863 
L 1178 4863 
L 1178 0 
L 603 0 
L 603 4863 
z
" transform="scale(0.015625)"/>
       <path id="DejaVuSans-67" d="M 2906 1791 
Q 2906 2416 2648 2759 
Q 2391 3103 1925 3103 
Q 1463 3103 1205 2759 
Q 947 2416 947 1791 
Q 947 1169 1205 825 
Q 1463 481 1925 481 
Q 2391 481 2648 825 
Q 2906 1169 2906 1791 
z
M 3481 434 
Q 3481 -459 3084 -895 
Q 2688 -1331 1869 -1331 
Q 1566 -1331 1297 -1286 
Q 1028 -1241 775 -1147 
L 775 -588 
Q 1028 -725 1275 -790 
Q 1522 -856 1778 -856 
Q 2344 -856 2625 -561 
Q 2906 -266 2906 331 
L 2906 616 
Q 2728 306 2450 153 
Q 2172 0 1784 0 
Q 1141 0 747 490 
Q 353 981 353 1791 
Q 353 2603 747 3093 
Q 1141 3584 1784 3584 
Q 2172 3584 2450 3431 
Q 2728 3278 2906 2969 
L 2906 3500 
L 3481 3500 
L 3481 434 
z
" transform="scale(0.015625)"/>
       <path id="DejaVuSans-63" d="M 3122 3366 
L 3122 2828 
Q 2878 2963 2633 3030 
Q 2388 3097 2138 3097 
Q 1578 3097 1268 2742 
Q 959 2388 959 1747 
Q 959 1106 1268 751 
Q 1578 397 2138 397 
Q 2388 397 2633 464 
Q 2878 531 3122 666 
L 3122 134 
Q 2881 22 2623 -34 
Q 2366 -91 2075 -91 
Q 1284 -91 818 406 
Q 353 903 353 1747 
Q 353 2603 823 3093 
Q 1294 3584 2113 3584 
Q 2378 3584 2631 3529 
Q 2884 3475 3122 3366 
z
" transform="scale(0.015625)"/>
       <path id="DejaVuSans-68" d="M 3513 2113 
L 3513 0 
L 2938 0 
L 2938 2094 
Q 2938 2591 2744 2837 
Q 2550 3084 2163 3084 
Q 1697 3084 1428 2787 
Q 1159 2491 1159 1978 
L 1159 0 
L 581 0 
L 581 4863 
L 1159 4863 
L 1159 2956 
Q 1366 3272 1645 3428 
Q 1925 3584 2291 3584 
Q 2894 3584 3203 3211 
Q 3513 2838 3513 2113 
z
" transform="scale(0.015625)"/>
       <path id="DejaVuSans-77" d="M 269 3500 
L 844 3500 
L 1563 769 
L 2278 3500 
L 2956 3500 
L 3675 769 
L 4391 3500 
L 4966 3500 
L 4050 0 
L 3372 0 
L 2619 2869 
L 1863 0 
L 1184 0 
L 269 3500 
z
" transform="scale(0.015625)"/>
       <path id="DejaVuSans-64" d="M 2906 2969 
L 2906 4863 
L 3481 4863 
L 3481 0 
L 2906 0 
L 2906 525 
Q 2725 213 2448 61 
Q 2172 -91 1784 -91 
Q 1150 -91 751 415 
Q 353 922 353 1747 
Q 353 2572 751 3078 
Q 1150 3584 1784 3584 
Q 2172 3584 2448 3432 
Q 2725 3281 2906 2969 
z
M 947 1747 
Q 947 1113 1208 752 
Q 1469 391 1925 391 
Q 2381 391 2643 752 
Q 2906 1113 2906 1747 
Q 2906 2381 2643 2742 
Q 2381 3103 1925 3103 
Q 1469 3103 1208 2742 
Q 947 2381 947 1747 
z
" transform="scale(0.015625)"/>
       <path id="DejaVuSans-b0" d="M 1600 4347 
Q 1350 4347 1178 4173 
Q 1006 4000 1006 3750 
Q 1006 3503 1178 3333 
Q 1350 3163 1600 3163 
Q 1850 3163 2022 3333 
Q 2194 3503 2194 3750 
Q 2194 3997 2020 4172 
Q 1847 4347 1600 4347 
z
M 1600 4750 
Q 1800 4750 1984 4673 
Q 2169 4597 2303 4453 
Q 2447 4313 2519 4134 
Q 2591 3956 2591 3750 
Q 2591 3338 2302 3052 
Q 2013 2766 1594 2766 
Q 1172 2766 890 3047 
Q 609 3328 609 3750 
Q 609 4169 896 4459 
Q 1184 4750 1600 4750 
z
" transform="scale(0.015625)"/>
       <path id="DejaVuSans-2f" d="M 1625 4666 
L 2156 4666 
L 531 -594 
L 0 -594 
L 1625 4666 
z
" transform="scale(0.015625)"/>
      </defs>
      <use xlink:href="#DejaVuSans-57"/>
      <use xlink:href="#DejaVuSans-69" x="96.626953"/>
      <use xlink:href="#DejaVuSans-6e" x="124.410156"/>
      <use xlink:href="#DejaVuSans-6b" x="187.789062"/>
      <use xlink:href="#DejaVuSans-65" x="242.074219"/>
      <use xlink:href="#DejaVuSans-6c" x="303.597656"/>
      <use xlink:href="#DejaVuSans-67" x="331.380859"/>
      <use xlink:href="#DejaVuSans-65" x="394.857422"/>
      <use xlink:href="#DejaVuSans-73" x="456.380859"/>
      <use xlink:href="#DejaVuSans-63" x="508.480469"/>
      <use xlink:href="#DejaVuSans-68" x="563.460938"/>
      <use xlink:href="#DejaVuSans-77" x="626.839844"/>
      <use xlink:href="#DejaVuSans-69" x="708.626953"/>
      <use xlink:href="#DejaVuSans-6e" x="736.410156"/>
      <use xlink:href="#DejaVuSans-64" x="799.789062"/>
      <use xlink:href="#DejaVuSans-69" x="863.265625"/>
      <use xlink:href="#DejaVuSans-67" x="891.048828"/>
      <use xlink:href="#DejaVuSans-6b" x="954.525391"/>
      <use xlink:href="#DejaVuSans-65" x="1008.810547"/>
      <use xlink:href="#DejaVuSans-69" x="1070.333984"/>
      <use xlink:href="#DejaVuSans-74" x="1098.117188"/>
      <use xlink:href="#DejaVuSans-20" x="1137.326172"/>
      <use xlink:href="#DejaVuSans-69" x="1169.113281"/>
      <use xlink:href="#DejaVuSans-6e" x="1196.896484"/>
      <use xlink:href="#DejaVuSans-20" x="1260.275391"/>
      <use xlink:href="#DejaVuSans-b0" x="1292.0625"/>
      <use xlink:href="#DejaVuSans-2f" x="1342.0625"/>
      <use xlink:href="#DejaVuSans-73" x="1375.753906"/>
     </g>
    </g>
   </g>
   <g id="line2d_12">
    <path d="M 172.8 186.065207 
L 182.90717 218.937831 
L 193.01434 243.23707 
L 203.121509 213.094519 
L 213.228679 222.253299 
L 223.335849 231.119381 
L 233.443019 140.659796 
L 243.550189 106.195961 
L 253.657358 96.191018 
L 263.764528 116.168973 
L 273.871698 145.172664 
L 283.978868 136.306582 
L 294.086038 145.726129 
L 304.193208 150.856323 
L 314.300377 153.261767 
L 324.407547 175.86868 
L 334.514717 183.239343 
L 344.621887 197.730545 
L 354.729057 201.950715 
L 364.836226 215.952313 
L 374.943396 224.946118 
L 385.050566 224.722604 
L 395.157736 208.805165 
L 405.264906 190.876095 
L 415.372075 199.8699 
L 425.479245 195.420893 
L 435.586415 196.03822 
L 445.693585 207.666305 
L 455.800755 171.808164 
L 465.907925 136.013884 
L 476.015094 144.26264 
L 486.122264 154.91684 
L 496.229434 136.434304 
L 506.336604 158.455822 
L 516.443774 188.79528 
L 526.550943 214.068404 
L 536.658113 231.933613 
L 546.765283 288.317852 
L 556.872453 320.120799 
L 566.979623 321.387382 
L 577.086792 301.606332 
L 587.193962 256.392505 
L 597.301132 283.219589 
L 607.408302 207.735488 
L 617.515472 233.652547 
L 627.622642 270.064153 
L 637.729811 286.827755 
L 647.836981 200.912968 
L 657.944151 186.682534 
L 668.051321 169.599626 
L 678.158491 170.637373 
L 688.26566 193.441192 
L 698.37283 266.525171 
L 708.48 262.203887 
L 718.58717 233.881384 
L 728.69434 215.398848 
L 738.801509 188.960255 
L 748.908679 180.807291 
L 759.015849 189.284883 
L 769.123019 208.283631 
L 779.230189 234.690294 
L 789.337358 141.213261 
L 799.444528 173.335514 
L 809.551698 174.538236 
L 819.658868 174.080563 
L 829.766038 205.234252 
L 839.873208 171.840094 
L 849.980377 155.959908 
L 860.087547 132.506832 
L 870.194717 151.313996 
L 880.301887 164.112873 
L 890.409057 182.558156 
L 900.516226 198.379802 
L 910.623396 208.544398 
L 920.730566 231.608985 
L 930.837736 281.7561 
L 940.944906 234.690294 
L 951.052075 217.155035 
L 961.159245 220.954785 
L 971.266415 238.29846 
L 981.373585 209.034002 
L 991.480755 215.558502 
L 1001.587925 218.9059 
L 1011.695094 215.526571 
L 1021.802264 191.296515 
L 1031.909434 112.204249 
L 1042.016604 101.874677 
L 1052.123774 108.46836 
L 1062.230943 126.040872 
L 1072.338113 157.513868 
L 1082.445283 207.080909 
L 1092.552453 288.57862 
L 1102.659623 266.589032 
L 1112.766792 261.783467 
L 1122.873962 267.664032 
L 1132.981132 226.473469 
L 1143.088302 276.466253 
L 1153.195472 225.563445 
L 1163.302642 233.131013 
L 1173.409811 215.430779 
L 1183.516981 166.608786 
L 1193.624151 160.24394 
L 1203.731321 224.233 
L 1213.838491 206.692419 
L 1223.94566 219.166667 
L 1234.05283 216.308873 
" clip-path="url(#pdc09af9806)" style="fill: none; stroke: #ff0000; stroke-width: 1.5; stroke-linecap: square"/>
   </g>
   <g id="line2d_13">
    <path d="M 172.8 187.874128 
L 182.90717 202.666368 
L 193.01434 215.753691 
L 203.121509 215.105112 
L 213.228679 216.506717 
L 223.335849 218.902236 
L 233.443019 207.882174 
L 243.550189 195.328321 
L 253.657358 184.434112 
L 263.764528 177.675187 
L 273.871698 174.747032 
L 283.978868 171.570135 
L 294.086038 169.59731 
L 304.193208 168.268162 
L 314.300377 167.274361 
L 324.407547 167.80817 
L 334.514717 168.710578 
L 344.621887 170.313891 
L 354.729057 171.970269 
L 364.836226 174.15843 
L 374.943396 176.56543 
L 385.050566 178.744487 
L 395.157736 180.045816 
L 405.264906 180.495205 
L 415.372075 181.267105 
L 425.479245 181.809396 
L 435.586415 182.334445 
L 445.693585 183.235934 
L 455.800755 182.843227 
L 465.907925 181.287435 
L 476.015094 180.096927 
L 486.122264 179.312501 
L 496.229434 178.017087 
L 506.336604 177.443443 
L 516.443774 177.766857 
L 526.550943 178.77244 
L 536.658113 180.205356 
L 546.765283 183.042954 
L 556.872453 186.548781 
L 566.979623 189.91134 
L 577.086792 192.62898 
L 587.193962 194.143553 
L 597.301132 196.210282 
L 607.408302 196.471625 
L 617.515472 197.296035 
L 627.622642 198.87452 
L 637.729811 200.741892 
L 647.836981 200.745449 
L 657.944151 200.459035 
L 668.051321 199.843079 
L 678.158491 199.271538 
L 688.26566 199.159631 
L 698.37283 200.428286 
L 708.48 201.570164 
L 718.58717 202.156574 
L 728.69434 202.392622 
L 738.801509 202.157379 
L 748.908679 201.789908 
L 759.015849 201.578317 
L 769.123019 201.689886 
L 779.230189 202.229991 
L 789.337358 201.247435 
L 799.444528 200.805091 
L 809.551698 200.395311 
L 819.658868 199.991091 
L 829.766038 200.070413 
L 839.873208 199.649692 
L 849.980377 199.008139 
L 860.087547 198.045747 
L 870.194717 197.379103 
L 880.301887 196.911223 
L 890.409057 196.712152 
L 900.516226 196.734965 
L 910.623396 196.894336 
L 920.730566 197.356582 
L 930.837736 198.465643 
L 940.944906 198.935483 
L 951.052075 199.168767 
L 961.159245 199.444191 
L 971.266415 199.929263 
L 981.373585 200.041529 
L 991.480755 200.23053 
L 1001.587925 200.455263 
L 1011.695094 200.63447 
L 1021.802264 200.524741 
L 1031.909434 199.498952 
L 1042.016604 198.378122 
L 1052.123774 197.35758 
L 1062.230943 196.557168 
L 1072.338113 196.123835 
L 1082.445283 196.24411 
L 1092.552453 197.246656 
L 1102.659623 197.991472 
L 1112.766792 198.669389 
L 1122.873962 199.394885 
L 1132.981132 199.67666 
L 1143.088302 200.46749 
L 1153.195472 200.72331 
L 1163.302642 201.05033 
L 1173.409811 201.193991 
L 1183.516981 200.851902 
L 1193.624151 200.454175 
L 1203.731321 200.684813 
L 1213.838491 200.742523 
L 1223.94566 200.917824 
L 1234.05283 201.062886 
" clip-path="url(#pdc09af9806)" style="fill: none; stroke: #008000; stroke-width: 2; stroke-linecap: square"/>
   </g>
   <g id="line2d_14">
    <path d="M 172.8 205.963336 
L 1244.16 205.963336 
" clip-path="url(#pdc09af9806)" style="fill: none; stroke: #0000ff; stroke-width: 1.5; stroke-linecap: square"/>
   </g>
   <g id="patch_3">
    <path d="M 172.8 332.6472 
L 172.8 84.9312 
" style="fill: none; stroke: #000000; stroke-width: 0.8; stroke-linejoin: miter; stroke-linecap: square"/>
   </g>
   <g id="patch_4">
    <path d="M 1244.16 332.6472 
L 1244.16 84.9312 
" style="fill: none; stroke: #000000; stroke-width: 0.8; stroke-linejoin: miter; stroke-linecap: square"/>
   </g>
   <g id="patch_5">
    <path d="M 172.8 332.6472 
L 1244.16 332.6472 
" style="fill: none; stroke: #000000; stroke-width: 0.8; stroke-linejoin: miter; stroke-linecap: square"/>
   </g>
   <g id="patch_6">
    <path d="M 172.8 84.9312 
L 1244.16 84.9312 
" style="fill: none; stroke: #000000; stroke-width: 0.8; stroke-linejoin: miter; stroke-linecap: square"/>
   </g>
   <g id="legend_1">
    <g id="patch_7">
     <path d="M 1108.252187 136.965575 
L 1237.16 136.965575 
Q 1239.16 136.965575 1239.16 134.965575 
L 1239.16 91.9312 
Q 1239.16 89.9312 1237.16 89.9312 
L 1108.252187 89.9312 
Q 1106.252187 89.9312 1106.252187 91.9312 
L 1106.252187 134.965575 
Q 1106.252187 136.965575 1108.252187 136.965575 
z
" style="fill: #ffffff; opacity: 0.8; stroke: #cccccc; stroke-linejoin: miter"/>
    </g>
    <g id="line2d_15">
     <path d="M 1110.252187 98.029637 
L 1120.252187 98.029637 
L 1130.252187 98.029637 
" style="fill: none; stroke: #ff0000; stroke-width: 1.5; stroke-linecap: square"/>
    </g>
    <g id="text_14">
     <!-- zk: Messwerte -->
     <g transform="translate(1138.252187 101.529637)scale(0.1 -0.1)">
      <defs>
       <path id="DejaVuSans-7a" d="M 353 3500 
L 3084 3500 
L 3084 2975 
L 922 459 
L 3084 459 
L 3084 0 
L 275 0 
L 275 525 
L 2438 3041 
L 353 3041 
L 353 3500 
z
" transform="scale(0.015625)"/>
       <path id="DejaVuSans-3a" d="M 750 794 
L 1409 794 
L 1409 0 
L 750 0 
L 750 794 
z
M 750 3309 
L 1409 3309 
L 1409 2516 
L 750 2516 
L 750 3309 
z
" transform="scale(0.015625)"/>
       <path id="DejaVuSans-4d" d="M 628 4666 
L 1569 4666 
L 2759 1491 
L 3956 4666 
L 4897 4666 
L 4897 0 
L 4281 0 
L 4281 4097 
L 3078 897 
L 2444 897 
L 1241 4097 
L 1241 0 
L 628 0 
L 628 4666 
z
" transform="scale(0.015625)"/>
       <path id="DejaVuSans-72" d="M 2631 2963 
Q 2534 3019 2420 3045 
Q 2306 3072 2169 3072 
Q 1681 3072 1420 2755 
Q 1159 2438 1159 1844 
L 1159 0 
L 581 0 
L 581 3500 
L 1159 3500 
L 1159 2956 
Q 1341 3275 1631 3429 
Q 1922 3584 2338 3584 
Q 2397 3584 2469 3576 
Q 2541 3569 2628 3553 
L 2631 2963 
z
" transform="scale(0.015625)"/>
      </defs>
      <use xlink:href="#DejaVuSans-7a"/>
      <use xlink:href="#DejaVuSans-6b" x="52.490234"/>
      <use xlink:href="#DejaVuSans-3a" x="110.400391"/>
      <use xlink:href="#DejaVuSans-20" x="144.091797"/>
      <use xlink:href="#DejaVuSans-4d" x="175.878906"/>
      <use xlink:href="#DejaVuSans-65" x="262.158203"/>
      <use xlink:href="#DejaVuSans-73" x="323.681641"/>
      <use xlink:href="#DejaVuSans-73" x="375.78125"/>
      <use xlink:href="#DejaVuSans-77" x="427.880859"/>
      <use xlink:href="#DejaVuSans-65" x="509.667969"/>
      <use xlink:href="#DejaVuSans-72" x="571.191406"/>
      <use xlink:href="#DejaVuSans-74" x="612.304688"/>
      <use xlink:href="#DejaVuSans-65" x="651.513672"/>
     </g>
    </g>
    <g id="line2d_16">
     <path d="M 1110.252187 112.707762 
L 1120.252187 112.707762 
L 1130.252187 112.707762 
" style="fill: none; stroke: #008000; stroke-width: 2; stroke-linecap: square"/>
    </g>
    <g id="text_15">
     <!-- xk: gefilterte Werte -->
     <g transform="translate(1138.252187 116.207762)scale(0.1 -0.1)">
      <defs>
       <path id="DejaVuSans-78" d="M 3513 3500 
L 2247 1797 
L 3578 0 
L 2900 0 
L 1881 1375 
L 863 0 
L 184 0 
L 1544 1831 
L 300 3500 
L 978 3500 
L 1906 2253 
L 2834 3500 
L 3513 3500 
z
" transform="scale(0.015625)"/>
       <path id="DejaVuSans-66" d="M 2375 4863 
L 2375 4384 
L 1825 4384 
Q 1516 4384 1395 4259 
Q 1275 4134 1275 3809 
L 1275 3500 
L 2222 3500 
L 2222 3053 
L 1275 3053 
L 1275 0 
L 697 0 
L 697 3053 
L 147 3053 
L 147 3500 
L 697 3500 
L 697 3744 
Q 697 4328 969 4595 
Q 1241 4863 1831 4863 
L 2375 4863 
z
" transform="scale(0.015625)"/>
      </defs>
      <use xlink:href="#DejaVuSans-78"/>
      <use xlink:href="#DejaVuSans-6b" x="59.179688"/>
      <use xlink:href="#DejaVuSans-3a" x="117.089844"/>
      <use xlink:href="#DejaVuSans-20" x="150.78125"/>
      <use xlink:href="#DejaVuSans-67" x="182.568359"/>
      <use xlink:href="#DejaVuSans-65" x="246.044922"/>
      <use xlink:href="#DejaVuSans-66" x="307.568359"/>
      <use xlink:href="#DejaVuSans-69" x="342.773438"/>
      <use xlink:href="#DejaVuSans-6c" x="370.556641"/>
      <use xlink:href="#DejaVuSans-74" x="398.339844"/>
      <use xlink:href="#DejaVuSans-65" x="437.548828"/>
      <use xlink:href="#DejaVuSans-72" x="499.072266"/>
      <use xlink:href="#DejaVuSans-74" x="540.185547"/>
      <use xlink:href="#DejaVuSans-65" x="579.394531"/>
      <use xlink:href="#DejaVuSans-20" x="640.917969"/>
      <use xlink:href="#DejaVuSans-57" x="672.705078"/>
      <use xlink:href="#DejaVuSans-65" x="765.707031"/>
      <use xlink:href="#DejaVuSans-72" x="827.230469"/>
      <use xlink:href="#DejaVuSans-74" x="868.34375"/>
      <use xlink:href="#DejaVuSans-65" x="907.552734"/>
     </g>
    </g>
    <g id="line2d_17">
     <path d="M 1110.252187 127.385887 
L 1120.252187 127.385887 
L 1130.252187 127.385887 
" style="fill: none; stroke: #0000ff; stroke-width: 1.5; stroke-linecap: square"/>
    </g>
    <g id="text_16">
     <!-- reales Signal -->
     <g transform="translate(1138.252187 130.885887)scale(0.1 -0.1)">
      <defs>
       <path id="DejaVuSans-61" d="M 2194 1759 
Q 1497 1759 1228 1600 
Q 959 1441 959 1056 
Q 959 750 1161 570 
Q 1363 391 1709 391 
Q 2188 391 2477 730 
Q 2766 1069 2766 1631 
L 2766 1759 
L 2194 1759 
z
M 3341 1997 
L 3341 0 
L 2766 0 
L 2766 531 
Q 2569 213 2275 61 
Q 1981 -91 1556 -91 
Q 1019 -91 701 211 
Q 384 513 384 1019 
Q 384 1609 779 1909 
Q 1175 2209 1959 2209 
L 2766 2209 
L 2766 2266 
Q 2766 2663 2505 2880 
Q 2244 3097 1772 3097 
Q 1472 3097 1187 3025 
Q 903 2953 641 2809 
L 641 3341 
Q 956 3463 1253 3523 
Q 1550 3584 1831 3584 
Q 2591 3584 2966 3190 
Q 3341 2797 3341 1997 
z
" transform="scale(0.015625)"/>
       <path id="DejaVuSans-53" d="M 3425 4513 
L 3425 3897 
Q 3066 4069 2747 4153 
Q 2428 4238 2131 4238 
Q 1616 4238 1336 4038 
Q 1056 3838 1056 3469 
Q 1056 3159 1242 3001 
Q 1428 2844 1947 2747 
L 2328 2669 
Q 3034 2534 3370 2195 
Q 3706 1856 3706 1288 
Q 3706 609 3251 259 
Q 2797 -91 1919 -91 
Q 1588 -91 1214 -16 
Q 841 59 441 206 
L 441 856 
Q 825 641 1194 531 
Q 1563 422 1919 422 
Q 2459 422 2753 634 
Q 3047 847 3047 1241 
Q 3047 1584 2836 1778 
Q 2625 1972 2144 2069 
L 1759 2144 
Q 1053 2284 737 2584 
Q 422 2884 422 3419 
Q 422 4038 858 4394 
Q 1294 4750 2059 4750 
Q 2388 4750 2728 4690 
Q 3069 4631 3425 4513 
z
" transform="scale(0.015625)"/>
      </defs>
      <use xlink:href="#DejaVuSans-72"/>
      <use xlink:href="#DejaVuSans-65" x="38.863281"/>
      <use xlink:href="#DejaVuSans-61" x="100.386719"/>
      <use xlink:href="#DejaVuSans-6c" x="161.666016"/>
      <use xlink:href="#DejaVuSans-65" x="189.449219"/>
      <use xlink:href="#DejaVuSans-73" x="250.972656"/>
      <use xlink:href="#DejaVuSans-20" x="303.072266"/>
      <use xlink:href="#DejaVuSans-53" x="334.859375"/>
      <use xlink:href="#DejaVuSans-69" x="398.335938"/>
      <use xlink:href="#DejaVuSans-67" x="426.119141"/>
      <use xlink:href="#DejaVuSans-6e" x="489.595703"/>
      <use xlink:href="#DejaVuSans-61" x="552.974609"/>
      <use xlink:href="#DejaVuSans-6c" x="614.253906"/>
     </g>
    </g>
   </g>
  </g>
  <g id="axes_2">
   <g id="patch_8">
    <path d="M 172.8 629.9064 
L 1244.16 629.9064 
L 1244.16 382.1904 
L 172.8 382.1904 
z
" style="fill: #ffffff"/>
   </g>
   <g id="patch_9">
    <path d="M 168.757132 629.9064 
L 176.842868 629.9064 
L 176.842868 393.9864 
L 168.757132 393.9864 
z
" clip-path="url(#p32cb7b1343)" style="fill: #00bfff; stroke: #0000ff; stroke-linejoin: miter"/>
   </g>
   <g id="patch_10">
    <path d="M 178.864302 629.9064 
L 186.950038 629.9064 
L 186.950038 506.329257 
L 178.864302 506.329257 
z
" clip-path="url(#p32cb7b1343)" style="fill: #00bfff; stroke: #0000ff; stroke-linejoin: miter"/>
   </g>
   <g id="patch_11">
    <path d="M 188.971472 629.9064 
L 197.057208 629.9064 
L 197.057208 546.192852 
L 188.971472 546.192852 
z
" clip-path="url(#p32cb7b1343)" style="fill: #00bfff; stroke: #0000ff; stroke-linejoin: miter"/>
   </g>
   <g id="patch_12">
    <path d="M 199.078642 629.9064 
L 207.164377 629.9064 
L 207.164377 566.61079 
L 199.078642 566.61079 
z
" clip-path="url(#p32cb7b1343)" style="fill: #00bfff; stroke: #0000ff; stroke-linejoin: miter"/>
   </g>
   <g id="patch_13">
    <path d="M 209.185811 629.9064 
L 217.271547 629.9064 
L 217.271547 579.021694 
L 209.185811 579.021694 
z
" clip-path="url(#p32cb7b1343)" style="fill: #00bfff; stroke: #0000ff; stroke-linejoin: miter"/>
   </g>
   <g id="patch_14">
    <path d="M 219.292981 629.9064 
L 227.378717 629.9064 
L 227.378717 587.363449 
L 219.292981 587.363449 
z
" clip-path="url(#p32cb7b1343)" style="fill: #00bfff; stroke: #0000ff; stroke-linejoin: miter"/>
   </g>
   <g id="patch_15">
    <path d="M 229.400151 629.9064 
L 237.485887 629.9064 
L 237.485887 593.355414 
L 229.400151 593.355414 
z
" clip-path="url(#p32cb7b1343)" style="fill: #00bfff; stroke: #0000ff; stroke-linejoin: miter"/>
   </g>
   <g id="patch_16">
    <path d="M 239.507321 629.9064 
L 247.593057 629.9064 
L 247.593057 597.867881 
L 239.507321 597.867881 
z
" clip-path="url(#p32cb7b1343)" style="fill: #00bfff; stroke: #0000ff; stroke-linejoin: miter"/>
   </g>
   <g id="patch_17">
    <path d="M 249.614491 629.9064 
L 257.700226 629.9064 
L 257.700226 601.388598 
L 249.614491 601.388598 
z
" clip-path="url(#p32cb7b1343)" style="fill: #00bfff; stroke: #0000ff; stroke-linejoin: miter"/>
   </g>
   <g id="patch_18">
    <path d="M 259.72166 629.9064 
L 267.807396 629.9064 
L 267.807396 604.212143 
L 259.72166 604.212143 
z
" clip-path="url(#p32cb7b1343)" style="fill: #00bfff; stroke: #0000ff; stroke-linejoin: miter"/>
   </g>
   <g id="patch_19">
    <path d="M 269.82883 629.9064 
L 277.914566 629.9064 
L 277.914566 606.526941 
L 269.82883 606.526941 
z
" clip-path="url(#p32cb7b1343)" style="fill: #00bfff; stroke: #0000ff; stroke-linejoin: miter"/>
   </g>
   <g id="patch_20">
    <path d="M 279.936 629.9064 
L 288.021736 629.9064 
L 288.021736 608.459127 
L 279.936 608.459127 
z
" clip-path="url(#p32cb7b1343)" style="fill: #00bfff; stroke: #0000ff; stroke-linejoin: miter"/>
   </g>
   <g id="patch_21">
    <path d="M 290.04317 629.9064 
L 298.128906 629.9064 
L 298.128906 610.096324 
L 290.04317 610.096324 
z
" clip-path="url(#p32cb7b1343)" style="fill: #00bfff; stroke: #0000ff; stroke-linejoin: miter"/>
   </g>
   <g id="patch_22">
    <path d="M 300.15034 629.9064 
L 308.236075 629.9064 
L 308.236075 611.501294 
L 300.15034 611.501294 
z
" clip-path="url(#p32cb7b1343)" style="fill: #00bfff; stroke: #0000ff; stroke-linejoin: miter"/>
   </g>
   <g id="patch_23">
    <path d="M 310.257509 629.9064 
L 318.343245 629.9064 
L 318.343245 612.720175 
L 310.257509 612.720175 
z
" clip-path="url(#p32cb7b1343)" style="fill: #00bfff; stroke: #0000ff; stroke-linejoin: miter"/>
   </g>
   <g id="patch_24">
    <path d="M 320.364679 629.9064 
L 328.450415 629.9064 
L 328.450415 613.787642 
L 320.364679 613.787642 
z
" clip-path="url(#p32cb7b1343)" style="fill: #00bfff; stroke: #0000ff; stroke-linejoin: miter"/>
   </g>
   <g id="patch_25">
    <path d="M 330.471849 629.9064 
L 338.557585 629.9064 
L 338.557585 614.73026 
L 330.471849 614.73026 
z
" clip-path="url(#p32cb7b1343)" style="fill: #00bfff; stroke: #0000ff; stroke-linejoin: miter"/>
   </g>
   <g id="patch_26">
    <path d="M 340.579019 629.9064 
L 348.664755 629.9064 
L 348.664755 615.56872 
L 340.579019 615.56872 
z
" clip-path="url(#p32cb7b1343)" style="fill: #00bfff; stroke: #0000ff; stroke-linejoin: miter"/>
   </g>
   <g id="patch_27">
    <path d="M 350.686189 629.9064 
L 358.771925 629.9064 
L 358.771925 616.319384 
L 350.686189 616.319384 
z
" clip-path="url(#p32cb7b1343)" style="fill: #00bfff; stroke: #0000ff; stroke-linejoin: miter"/>
   </g>
   <g id="patch_28">
    <path d="M 360.793358 629.9064 
L 368.879094 629.9064 
L 368.879094 616.995355 
L 360.793358 616.995355 
z
" clip-path="url(#p32cb7b1343)" style="fill: #00bfff; stroke: #0000ff; stroke-linejoin: miter"/>
   </g>
   <g id="patch_29">
    <path d="M 370.900528 629.9064 
L 378.986264 629.9064 
L 378.986264 617.607253 
L 370.900528 617.607253 
z
" clip-path="url(#p32cb7b1343)" style="fill: #00bfff; stroke: #0000ff; stroke-linejoin: miter"/>
   </g>
   <g id="patch_30">
    <path d="M 381.007698 629.9064 
L 389.093434 629.9064 
L 389.093434 618.163776 
L 381.007698 618.163776 
z
" clip-path="url(#p32cb7b1343)" style="fill: #00bfff; stroke: #0000ff; stroke-linejoin: miter"/>
   </g>
   <g id="patch_31">
    <path d="M 391.114868 629.9064 
L 399.200604 629.9064 
L 399.200604 618.672114 
L 391.114868 618.672114 
z
" clip-path="url(#p32cb7b1343)" style="fill: #00bfff; stroke: #0000ff; stroke-linejoin: miter"/>
   </g>
   <g id="patch_32">
    <path d="M 401.222038 629.9064 
L 409.307774 629.9064 
L 409.307774 619.138267 
L 401.222038 619.138267 
z
" clip-path="url(#p32cb7b1343)" style="fill: #00bfff; stroke: #0000ff; stroke-linejoin: miter"/>
   </g>
   <g id="patch_33">
    <path d="M 411.329208 629.9064 
L 419.414943 629.9064 
L 419.414943 619.567276 
L 411.329208 619.567276 
z
" clip-path="url(#p32cb7b1343)" style="fill: #00bfff; stroke: #0000ff; stroke-linejoin: miter"/>
   </g>
   <g id="patch_34">
    <path d="M 421.436377 629.9064 
L 429.522113 629.9064 
L 429.522113 619.963411 
L 421.436377 619.963411 
z
" clip-path="url(#p32cb7b1343)" style="fill: #00bfff; stroke: #0000ff; stroke-linejoin: miter"/>
   </g>
   <g id="patch_35">
    <path d="M 431.543547 629.9064 
L 439.629283 629.9064 
L 439.629283 620.330311 
L 431.543547 620.330311 
z
" clip-path="url(#p32cb7b1343)" style="fill: #00bfff; stroke: #0000ff; stroke-linejoin: miter"/>
   </g>
   <g id="patch_36">
    <path d="M 441.650717 629.9064 
L 449.736453 629.9064 
L 449.736453 620.671098 
L 441.650717 620.671098 
z
" clip-path="url(#p32cb7b1343)" style="fill: #00bfff; stroke: #0000ff; stroke-linejoin: miter"/>
   </g>
   <g id="patch_37">
    <path d="M 451.757887 629.9064 
L 459.843623 629.9064 
L 459.843623 620.988462 
L 451.757887 620.988462 
z
" clip-path="url(#p32cb7b1343)" style="fill: #00bfff; stroke: #0000ff; stroke-linejoin: miter"/>
   </g>
   <g id="patch_38">
    <path d="M 461.865057 629.9064 
L 469.950792 629.9064 
L 469.950792 621.284739 
L 461.865057 621.284739 
z
" clip-path="url(#p32cb7b1343)" style="fill: #00bfff; stroke: #0000ff; stroke-linejoin: miter"/>
   </g>
   <g id="patch_39">
    <path d="M 471.972226 629.9064 
L 480.057962 629.9064 
L 480.057962 621.561963 
L 471.972226 621.561963 
z
" clip-path="url(#p32cb7b1343)" style="fill: #00bfff; stroke: #0000ff; stroke-linejoin: miter"/>
   </g>
   <g id="patch_40">
    <path d="M 482.079396 629.9064 
L 490.165132 629.9064 
L 490.165132 621.821914 
L 482.079396 621.821914 
z
" clip-path="url(#p32cb7b1343)" style="fill: #00bfff; stroke: #0000ff; stroke-linejoin: miter"/>
   </g>
   <g id="patch_41">
    <path d="M 492.186566 629.9064 
L 500.272302 629.9064 
L 500.272302 622.066158 
L 492.186566 622.066158 
z
" clip-path="url(#p32cb7b1343)" style="fill: #00bfff; stroke: #0000ff; stroke-linejoin: miter"/>
   </g>
   <g id="patch_42">
    <path d="M 502.293736 629.9064 
L 510.379472 629.9064 
L 510.379472 622.296077 
L 502.293736 622.296077 
z
" clip-path="url(#p32cb7b1343)" style="fill: #00bfff; stroke: #0000ff; stroke-linejoin: miter"/>
   </g>
   <g id="patch_43">
    <path d="M 512.400906 629.9064 
L 520.486642 629.9064 
L 520.486642 622.512896 
L 512.400906 622.512896 
z
" clip-path="url(#p32cb7b1343)" style="fill: #00bfff; stroke: #0000ff; stroke-linejoin: miter"/>
   </g>
   <g id="patch_44">
    <path d="M 522.508075 629.9064 
L 530.593811 629.9064 
L 530.593811 622.717702 
L 522.508075 622.717702 
z
" clip-path="url(#p32cb7b1343)" style="fill: #00bfff; stroke: #0000ff; stroke-linejoin: miter"/>
   </g>
   <g id="patch_45">
    <path d="M 532.615245 629.9064 
L 540.700981 629.9064 
L 540.700981 622.911467 
L 532.615245 622.911467 
z
" clip-path="url(#p32cb7b1343)" style="fill: #00bfff; stroke: #0000ff; stroke-linejoin: miter"/>
   </g>
   <g id="patch_46">
    <path d="M 542.722415 629.9064 
L 550.808151 629.9064 
L 550.808151 623.095061 
L 542.722415 623.095061 
z
" clip-path="url(#p32cb7b1343)" style="fill: #00bfff; stroke: #0000ff; stroke-linejoin: miter"/>
   </g>
   <g id="patch_47">
    <path d="M 552.829585 629.9064 
L 560.915321 629.9064 
L 560.915321 623.269264 
L 552.829585 623.269264 
z
" clip-path="url(#p32cb7b1343)" style="fill: #00bfff; stroke: #0000ff; stroke-linejoin: miter"/>
   </g>
   <g id="patch_48">
    <path d="M 562.936755 629.9064 
L 571.022491 629.9064 
L 571.022491 623.434779 
L 562.936755 623.434779 
z
" clip-path="url(#p32cb7b1343)" style="fill: #00bfff; stroke: #0000ff; stroke-linejoin: miter"/>
   </g>
   <g id="patch_49">
    <path d="M 573.043925 629.9064 
L 581.12966 629.9064 
L 581.12966 623.592239 
L 573.043925 623.592239 
z
" clip-path="url(#p32cb7b1343)" style="fill: #00bfff; stroke: #0000ff; stroke-linejoin: miter"/>
   </g>
   <g id="patch_50">
    <path d="M 583.151094 629.9064 
L 591.23683 629.9064 
L 591.23683 623.742219 
L 583.151094 623.742219 
z
" clip-path="url(#p32cb7b1343)" style="fill: #00bfff; stroke: #0000ff; stroke-linejoin: miter"/>
   </g>
   <g id="patch_51">
    <path d="M 593.258264 629.9064 
L 601.344 629.9064 
L 601.344 623.88524 
L 593.258264 623.88524 
z
" clip-path="url(#p32cb7b1343)" style="fill: #00bfff; stroke: #0000ff; stroke-linejoin: miter"/>
   </g>
   <g id="patch_52">
    <path d="M 603.365434 629.9064 
L 611.45117 629.9064 
L 611.45117 624.021774 
L 603.365434 624.021774 
z
" clip-path="url(#p32cb7b1343)" style="fill: #00bfff; stroke: #0000ff; stroke-linejoin: miter"/>
   </g>
   <g id="patch_53">
    <path d="M 613.472604 629.9064 
L 621.55834 629.9064 
L 621.55834 624.152254 
L 613.472604 624.152254 
z
" clip-path="url(#p32cb7b1343)" style="fill: #00bfff; stroke: #0000ff; stroke-linejoin: miter"/>
   </g>
   <g id="patch_54">
    <path d="M 623.579774 629.9064 
L 631.665509 629.9064 
L 631.665509 624.277072 
L 623.579774 624.277072 
z
" clip-path="url(#p32cb7b1343)" style="fill: #00bfff; stroke: #0000ff; stroke-linejoin: miter"/>
   </g>
   <g id="patch_55">
    <path d="M 633.686943 629.9064 
L 641.772679 629.9064 
L 641.772679 624.396591 
L 633.686943 624.396591 
z
" clip-path="url(#p32cb7b1343)" style="fill: #00bfff; stroke: #0000ff; stroke-linejoin: miter"/>
   </g>
   <g id="patch_56">
    <path d="M 643.794113 629.9064 
L 651.879849 629.9064 
L 651.879849 624.51114 
L 643.794113 624.51114 
z
" clip-path="url(#p32cb7b1343)" style="fill: #00bfff; stroke: #0000ff; stroke-linejoin: miter"/>
   </g>
   <g id="patch_57">
    <path d="M 653.901283 629.9064 
L 661.987019 629.9064 
L 661.987019 624.621023 
L 653.901283 624.621023 
z
" clip-path="url(#p32cb7b1343)" style="fill: #00bfff; stroke: #0000ff; stroke-linejoin: miter"/>
   </g>
   <g id="patch_58">
    <path d="M 664.008453 629.9064 
L 672.094189 629.9064 
L 672.094189 624.72652 
L 664.008453 624.72652 
z
" clip-path="url(#p32cb7b1343)" style="fill: #00bfff; stroke: #0000ff; stroke-linejoin: miter"/>
   </g>
   <g id="patch_59">
    <path d="M 674.115623 629.9064 
L 682.201358 629.9064 
L 682.201358 624.827887 
L 674.115623 624.827887 
z
" clip-path="url(#p32cb7b1343)" style="fill: #00bfff; stroke: #0000ff; stroke-linejoin: miter"/>
   </g>
   <g id="patch_60">
    <path d="M 684.222792 629.9064 
L 692.308528 629.9064 
L 692.308528 624.925364 
L 684.222792 624.925364 
z
" clip-path="url(#p32cb7b1343)" style="fill: #00bfff; stroke: #0000ff; stroke-linejoin: miter"/>
   </g>
   <g id="patch_61">
    <path d="M 694.329962 629.9064 
L 702.415698 629.9064 
L 702.415698 625.019168 
L 694.329962 625.019168 
z
" clip-path="url(#p32cb7b1343)" style="fill: #00bfff; stroke: #0000ff; stroke-linejoin: miter"/>
   </g>
   <g id="patch_62">
    <path d="M 704.437132 629.9064 
L 712.522868 629.9064 
L 712.522868 625.109505 
L 704.437132 625.109505 
z
" clip-path="url(#p32cb7b1343)" style="fill: #00bfff; stroke: #0000ff; stroke-linejoin: miter"/>
   </g>
   <g id="patch_63">
    <path d="M 714.544302 629.9064 
L 722.630038 629.9064 
L 722.630038 625.196563 
L 714.544302 625.196563 
z
" clip-path="url(#p32cb7b1343)" style="fill: #00bfff; stroke: #0000ff; stroke-linejoin: miter"/>
   </g>
   <g id="patch_64">
    <path d="M 724.651472 629.9064 
L 732.737208 629.9064 
L 732.737208 625.280518 
L 724.651472 625.280518 
z
" clip-path="url(#p32cb7b1343)" style="fill: #00bfff; stroke: #0000ff; stroke-linejoin: miter"/>
   </g>
   <g id="patch_65">
    <path d="M 734.758642 629.9064 
L 742.844377 629.9064 
L 742.844377 625.361531 
L 734.758642 625.361531 
z
" clip-path="url(#p32cb7b1343)" style="fill: #00bfff; stroke: #0000ff; stroke-linejoin: miter"/>
   </g>
   <g id="patch_66">
    <path d="M 744.865811 629.9064 
L 752.951547 629.9064 
L 752.951547 625.439756 
L 744.865811 625.439756 
z
" clip-path="url(#p32cb7b1343)" style="fill: #00bfff; stroke: #0000ff; stroke-linejoin: miter"/>
   </g>
   <g id="patch_67">
    <path d="M 754.972981 629.9064 
L 763.058717 629.9064 
L 763.058717 625.515334 
L 754.972981 625.515334 
z
" clip-path="url(#p32cb7b1343)" style="fill: #00bfff; stroke: #0000ff; stroke-linejoin: miter"/>
   </g>
   <g id="patch_68">
    <path d="M 765.080151 629.9064 
L 773.165887 629.9064 
L 773.165887 625.588397 
L 765.080151 625.588397 
z
" clip-path="url(#p32cb7b1343)" style="fill: #00bfff; stroke: #0000ff; stroke-linejoin: miter"/>
   </g>
   <g id="patch_69">
    <path d="M 775.187321 629.9064 
L 783.273057 629.9064 
L 783.273057 625.659068 
L 775.187321 625.659068 
z
" clip-path="url(#p32cb7b1343)" style="fill: #00bfff; stroke: #0000ff; stroke-linejoin: miter"/>
   </g>
   <g id="patch_70">
    <path d="M 785.294491 629.9064 
L 793.380226 629.9064 
L 793.380226 625.727463 
L 785.294491 625.727463 
z
" clip-path="url(#p32cb7b1343)" style="fill: #00bfff; stroke: #0000ff; stroke-linejoin: miter"/>
   </g>
   <g id="patch_71">
    <path d="M 795.40166 629.9064 
L 803.487396 629.9064 
L 803.487396 625.79369 
L 795.40166 625.79369 
z
" clip-path="url(#p32cb7b1343)" style="fill: #00bfff; stroke: #0000ff; stroke-linejoin: miter"/>
   </g>
   <g id="patch_72">
    <path d="M 805.50883 629.9064 
L 813.594566 629.9064 
L 813.594566 625.857851 
L 805.50883 625.857851 
z
" clip-path="url(#p32cb7b1343)" style="fill: #00bfff; stroke: #0000ff; stroke-linejoin: miter"/>
   </g>
   <g id="patch_73">
    <path d="M 815.616 629.9064 
L 823.701736 629.9064 
L 823.701736 625.920041 
L 815.616 625.920041 
z
" clip-path="url(#p32cb7b1343)" style="fill: #00bfff; stroke: #0000ff; stroke-linejoin: miter"/>
   </g>
   <g id="patch_74">
    <path d="M 825.72317 629.9064 
L 833.808906 629.9064 
L 833.808906 625.980349 
L 825.72317 625.980349 
z
" clip-path="url(#p32cb7b1343)" style="fill: #00bfff; stroke: #0000ff; stroke-linejoin: miter"/>
   </g>
   <g id="patch_75">
    <path d="M 835.83034 629.9064 
L 843.916075 629.9064 
L 843.916075 626.038859 
L 835.83034 626.038859 
z
" clip-path="url(#p32cb7b1343)" style="fill: #00bfff; stroke: #0000ff; stroke-linejoin: miter"/>
   </g>
   <g id="patch_76">
    <path d="M 845.937509 629.9064 
L 854.023245 629.9064 
L 854.023245 626.095651 
L 845.937509 626.095651 
z
" clip-path="url(#p32cb7b1343)" style="fill: #00bfff; stroke: #0000ff; stroke-linejoin: miter"/>
   </g>
   <g id="patch_77">
    <path d="M 856.044679 629.9064 
L 864.130415 629.9064 
L 864.130415 626.150799 
L 856.044679 626.150799 
z
" clip-path="url(#p32cb7b1343)" style="fill: #00bfff; stroke: #0000ff; stroke-linejoin: miter"/>
   </g>
   <g id="patch_78">
    <path d="M 866.151849 629.9064 
L 874.237585 629.9064 
L 874.237585 626.204374 
L 866.151849 626.204374 
z
" clip-path="url(#p32cb7b1343)" style="fill: #00bfff; stroke: #0000ff; stroke-linejoin: miter"/>
   </g>
   <g id="patch_79">
    <path d="M 876.259019 629.9064 
L 884.344755 629.9064 
L 884.344755 626.256442 
L 876.259019 626.256442 
z
" clip-path="url(#p32cb7b1343)" style="fill: #00bfff; stroke: #0000ff; stroke-linejoin: miter"/>
   </g>
   <g id="patch_80">
    <path d="M 886.366189 629.9064 
L 894.451925 629.9064 
L 894.451925 626.307066 
L 886.366189 626.307066 
z
" clip-path="url(#p32cb7b1343)" style="fill: #00bfff; stroke: #0000ff; stroke-linejoin: miter"/>
   </g>
   <g id="patch_81">
    <path d="M 896.473358 629.9064 
L 904.559094 629.9064 
L 904.559094 626.356304 
L 896.473358 626.356304 
z
" clip-path="url(#p32cb7b1343)" style="fill: #00bfff; stroke: #0000ff; stroke-linejoin: miter"/>
   </g>
   <g id="patch_82">
    <path d="M 906.580528 629.9064 
L 914.666264 629.9064 
L 914.666264 626.404214 
L 906.580528 626.404214 
z
" clip-path="url(#p32cb7b1343)" style="fill: #00bfff; stroke: #0000ff; stroke-linejoin: miter"/>
   </g>
   <g id="patch_83">
    <path d="M 916.687698 629.9064 
L 924.773434 629.9064 
L 924.773434 626.450847 
L 916.687698 626.450847 
z
" clip-path="url(#p32cb7b1343)" style="fill: #00bfff; stroke: #0000ff; stroke-linejoin: miter"/>
   </g>
   <g id="patch_84">
    <path d="M 926.794868 629.9064 
L 934.880604 629.9064 
L 934.880604 626.496255 
L 926.794868 626.496255 
z
" clip-path="url(#p32cb7b1343)" style="fill: #00bfff; stroke: #0000ff; stroke-linejoin: miter"/>
   </g>
   <g id="patch_85">
    <path d="M 936.902038 629.9064 
L 944.987774 629.9064 
L 944.987774 626.540486 
L 936.902038 626.540486 
z
" clip-path="url(#p32cb7b1343)" style="fill: #00bfff; stroke: #0000ff; stroke-linejoin: miter"/>
   </g>
   <g id="patch_86">
    <path d="M 947.009208 629.9064 
L 955.094943 629.9064 
L 955.094943 626.583583 
L 947.009208 626.583583 
z
" clip-path="url(#p32cb7b1343)" style="fill: #00bfff; stroke: #0000ff; stroke-linejoin: miter"/>
   </g>
   <g id="patch_87">
    <path d="M 957.116377 629.9064 
L 965.202113 629.9064 
L 965.202113 626.625591 
L 957.116377 626.625591 
z
" clip-path="url(#p32cb7b1343)" style="fill: #00bfff; stroke: #0000ff; stroke-linejoin: miter"/>
   </g>
   <g id="patch_88">
    <path d="M 967.223547 629.9064 
L 975.309283 629.9064 
L 975.309283 626.66655 
L 967.223547 626.66655 
z
" clip-path="url(#p32cb7b1343)" style="fill: #00bfff; stroke: #0000ff; stroke-linejoin: miter"/>
   </g>
   <g id="patch_89">
    <path d="M 977.330717 629.9064 
L 985.416453 629.9064 
L 985.416453 626.706499 
L 977.330717 626.706499 
z
" clip-path="url(#p32cb7b1343)" style="fill: #00bfff; stroke: #0000ff; stroke-linejoin: miter"/>
   </g>
   <g id="patch_90">
    <path d="M 987.437887 629.9064 
L 995.523623 629.9064 
L 995.523623 626.745474 
L 987.437887 626.745474 
z
" clip-path="url(#p32cb7b1343)" style="fill: #00bfff; stroke: #0000ff; stroke-linejoin: miter"/>
   </g>
   <g id="patch_91">
    <path d="M 997.545057 629.9064 
L 1005.630792 629.9064 
L 1005.630792 626.783512 
L 997.545057 626.783512 
z
" clip-path="url(#p32cb7b1343)" style="fill: #00bfff; stroke: #0000ff; stroke-linejoin: miter"/>
   </g>
   <g id="patch_92">
    <path d="M 1007.652226 629.9064 
L 1015.737962 629.9064 
L 1015.737962 626.820645 
L 1007.652226 626.820645 
z
" clip-path="url(#p32cb7b1343)" style="fill: #00bfff; stroke: #0000ff; stroke-linejoin: miter"/>
   </g>
   <g id="patch_93">
    <path d="M 1017.759396 629.9064 
L 1025.845132 629.9064 
L 1025.845132 626.856905 
L 1017.759396 626.856905 
z
" clip-path="url(#p32cb7b1343)" style="fill: #00bfff; stroke: #0000ff; stroke-linejoin: miter"/>
   </g>
   <g id="patch_94">
    <path d="M 1027.866566 629.9064 
L 1035.952302 629.9064 
L 1035.952302 626.892323 
L 1027.866566 626.892323 
z
" clip-path="url(#p32cb7b1343)" style="fill: #00bfff; stroke: #0000ff; stroke-linejoin: miter"/>
   </g>
   <g id="patch_95">
    <path d="M 1037.973736 629.9064 
L 1046.059472 629.9064 
L 1046.059472 626.926928 
L 1037.973736 626.926928 
z
" clip-path="url(#p32cb7b1343)" style="fill: #00bfff; stroke: #0000ff; stroke-linejoin: miter"/>
   </g>
   <g id="patch_96">
    <path d="M 1048.080906 629.9064 
L 1056.166642 629.9064 
L 1056.166642 626.960747 
L 1048.080906 626.960747 
z
" clip-path="url(#p32cb7b1343)" style="fill: #00bfff; stroke: #0000ff; stroke-linejoin: miter"/>
   </g>
   <g id="patch_97">
    <path d="M 1058.188075 629.9064 
L 1066.273811 629.9064 
L 1066.273811 626.993807 
L 1058.188075 626.993807 
z
" clip-path="url(#p32cb7b1343)" style="fill: #00bfff; stroke: #0000ff; stroke-linejoin: miter"/>
   </g>
   <g id="patch_98">
    <path d="M 1068.295245 629.9064 
L 1076.380981 629.9064 
L 1076.380981 627.026134 
L 1068.295245 627.026134 
z
" clip-path="url(#p32cb7b1343)" style="fill: #00bfff; stroke: #0000ff; stroke-linejoin: miter"/>
   </g>
   <g id="patch_99">
    <path d="M 1078.402415 629.9064 
L 1086.488151 629.9064 
L 1086.488151 627.05775 
L 1078.402415 627.05775 
z
" clip-path="url(#p32cb7b1343)" style="fill: #00bfff; stroke: #0000ff; stroke-linejoin: miter"/>
   </g>
   <g id="patch_100">
    <path d="M 1088.509585 629.9064 
L 1096.595321 629.9064 
L 1096.595321 627.08868 
L 1088.509585 627.08868 
z
" clip-path="url(#p32cb7b1343)" style="fill: #00bfff; stroke: #0000ff; stroke-linejoin: miter"/>
   </g>
   <g id="patch_101">
    <path d="M 1098.616755 629.9064 
L 1106.702491 629.9064 
L 1106.702491 627.118946 
L 1098.616755 627.118946 
z
" clip-path="url(#p32cb7b1343)" style="fill: #00bfff; stroke: #0000ff; stroke-linejoin: miter"/>
   </g>
   <g id="patch_102">
    <path d="M 1108.723925 629.9064 
L 1116.80966 629.9064 
L 1116.80966 627.148568 
L 1108.723925 627.148568 
z
" clip-path="url(#p32cb7b1343)" style="fill: #00bfff; stroke: #0000ff; stroke-linejoin: miter"/>
   </g>
   <g id="patch_103">
    <path d="M 1118.831094 629.9064 
L 1126.91683 629.9064 
L 1126.91683 627.177567 
L 1118.831094 627.177567 
z
" clip-path="url(#p32cb7b1343)" style="fill: #00bfff; stroke: #0000ff; stroke-linejoin: miter"/>
   </g>
   <g id="patch_104">
    <path d="M 1128.938264 629.9064 
L 1137.024 629.9064 
L 1137.024 627.205963 
L 1128.938264 627.205963 
z
" clip-path="url(#p32cb7b1343)" style="fill: #00bfff; stroke: #0000ff; stroke-linejoin: miter"/>
   </g>
   <g id="patch_105">
    <path d="M 1139.045434 629.9064 
L 1147.13117 629.9064 
L 1147.13117 627.233774 
L 1139.045434 627.233774 
z
" clip-path="url(#p32cb7b1343)" style="fill: #00bfff; stroke: #0000ff; stroke-linejoin: miter"/>
   </g>
   <g id="patch_106">
    <path d="M 1149.152604 629.9064 
L 1157.23834 629.9064 
L 1157.23834 627.261018 
L 1149.152604 627.261018 
z
" clip-path="url(#p32cb7b1343)" style="fill: #00bfff; stroke: #0000ff; stroke-linejoin: miter"/>
   </g>
   <g id="patch_107">
    <path d="M 1159.259774 629.9064 
L 1167.345509 629.9064 
L 1167.345509 627.287712 
L 1159.259774 627.287712 
z
" clip-path="url(#p32cb7b1343)" style="fill: #00bfff; stroke: #0000ff; stroke-linejoin: miter"/>
   </g>
   <g id="patch_108">
    <path d="M 1169.366943 629.9064 
L 1177.452679 629.9064 
L 1177.452679 627.313873 
L 1169.366943 627.313873 
z
" clip-path="url(#p32cb7b1343)" style="fill: #00bfff; stroke: #0000ff; stroke-linejoin: miter"/>
   </g>
   <g id="patch_109">
    <path d="M 1179.474113 629.9064 
L 1187.559849 629.9064 
L 1187.559849 627.339516 
L 1179.474113 627.339516 
z
" clip-path="url(#p32cb7b1343)" style="fill: #00bfff; stroke: #0000ff; stroke-linejoin: miter"/>
   </g>
   <g id="patch_110">
    <path d="M 1189.581283 629.9064 
L 1197.667019 629.9064 
L 1197.667019 627.364657 
L 1189.581283 627.364657 
z
" clip-path="url(#p32cb7b1343)" style="fill: #00bfff; stroke: #0000ff; stroke-linejoin: miter"/>
   </g>
   <g id="patch_111">
    <path d="M 1199.688453 629.9064 
L 1207.774189 629.9064 
L 1207.774189 627.38931 
L 1199.688453 627.38931 
z
" clip-path="url(#p32cb7b1343)" style="fill: #00bfff; stroke: #0000ff; stroke-linejoin: miter"/>
   </g>
   <g id="patch_112">
    <path d="M 1209.795623 629.9064 
L 1217.881358 629.9064 
L 1217.881358 627.413489 
L 1209.795623 627.413489 
z
" clip-path="url(#p32cb7b1343)" style="fill: #00bfff; stroke: #0000ff; stroke-linejoin: miter"/>
   </g>
   <g id="patch_113">
    <path d="M 1219.902792 629.9064 
L 1227.988528 629.9064 
L 1227.988528 627.437209 
L 1219.902792 627.437209 
z
" clip-path="url(#p32cb7b1343)" style="fill: #00bfff; stroke: #0000ff; stroke-linejoin: miter"/>
   </g>
   <g id="patch_114">
    <path d="M 1230.009962 629.9064 
L 1238.095698 629.9064 
L 1238.095698 627.460481 
L 1230.009962 627.460481 
z
" clip-path="url(#p32cb7b1343)" style="fill: #00bfff; stroke: #0000ff; stroke-linejoin: miter"/>
   </g>
   <g id="matplotlib.axis_3">
    <g id="xtick_7">
     <g id="line2d_18">
      <g>
       <use xlink:href="#m623fbc3d3e" x="172.8" y="629.9064" style="stroke: #000000; stroke-width: 0.8"/>
      </g>
     </g>
     <g id="text_17">
      <!-- 0 -->
      <g transform="translate(169.61875 644.504838)scale(0.1 -0.1)">
       <use xlink:href="#DejaVuSans-30"/>
      </g>
     </g>
    </g>
    <g id="xtick_8">
     <g id="line2d_19">
      <g>
       <use xlink:href="#m623fbc3d3e" x="374.943396" y="629.9064" style="stroke: #000000; stroke-width: 0.8"/>
      </g>
     </g>
     <g id="text_18">
      <!-- 20 -->
      <g transform="translate(368.580896 644.504838)scale(0.1 -0.1)">
       <use xlink:href="#DejaVuSans-32"/>
       <use xlink:href="#DejaVuSans-30" x="63.623047"/>
      </g>
     </g>
    </g>
    <g id="xtick_9">
     <g id="line2d_20">
      <g>
       <use xlink:href="#m623fbc3d3e" x="577.086792" y="629.9064" style="stroke: #000000; stroke-width: 0.8"/>
      </g>
     </g>
     <g id="text_19">
      <!-- 40 -->
      <g transform="translate(570.724292 644.504838)scale(0.1 -0.1)">
       <use xlink:href="#DejaVuSans-34"/>
       <use xlink:href="#DejaVuSans-30" x="63.623047"/>
      </g>
     </g>
    </g>
    <g id="xtick_10">
     <g id="line2d_21">
      <g>
       <use xlink:href="#m623fbc3d3e" x="779.230189" y="629.9064" style="stroke: #000000; stroke-width: 0.8"/>
      </g>
     </g>
     <g id="text_20">
      <!-- 60 -->
      <g transform="translate(772.867689 644.504838)scale(0.1 -0.1)">
       <use xlink:href="#DejaVuSans-36"/>
       <use xlink:href="#DejaVuSans-30" x="63.623047"/>
      </g>
     </g>
    </g>
    <g id="xtick_11">
     <g id="line2d_22">
      <g>
       <use xlink:href="#m623fbc3d3e" x="981.373585" y="629.9064" style="stroke: #000000; stroke-width: 0.8"/>
      </g>
     </g>
     <g id="text_21">
      <!-- 80 -->
      <g transform="translate(975.011085 644.504838)scale(0.1 -0.1)">
       <use xlink:href="#DejaVuSans-38"/>
       <use xlink:href="#DejaVuSans-30" x="63.623047"/>
      </g>
     </g>
    </g>
    <g id="xtick_12">
     <g id="line2d_23">
      <g>
       <use xlink:href="#m623fbc3d3e" x="1183.516981" y="629.9064" style="stroke: #000000; stroke-width: 0.8"/>
      </g>
     </g>
     <g id="text_22">
      <!-- 100 -->
      <g transform="translate(1173.973231 644.504838)scale(0.1 -0.1)">
       <use xlink:href="#DejaVuSans-31"/>
       <use xlink:href="#DejaVuSans-30" x="63.623047"/>
       <use xlink:href="#DejaVuSans-30" x="127.246094"/>
      </g>
     </g>
    </g>
   </g>
   <g id="matplotlib.axis_4">
    <g id="ytick_6">
     <g id="line2d_24">
      <g>
       <use xlink:href="#mb71d9a5931" x="172.8" y="629.9064" style="stroke: #000000; stroke-width: 0.8"/>
      </g>
     </g>
     <g id="text_23">
      <!-- 0.0 -->
      <g transform="translate(149.896875 633.705619)scale(0.1 -0.1)">
       <defs>
        <path id="DejaVuSans-2e" d="M 684 794 
L 1344 794 
L 1344 0 
L 684 0 
L 684 794 
z
" transform="scale(0.015625)"/>
       </defs>
       <use xlink:href="#DejaVuSans-30"/>
       <use xlink:href="#DejaVuSans-2e" x="63.623047"/>
       <use xlink:href="#DejaVuSans-30" x="95.410156"/>
      </g>
     </g>
    </g>
    <g id="ytick_7">
     <g id="line2d_25">
      <g>
       <use xlink:href="#mb71d9a5931" x="172.8" y="578.004" style="stroke: #000000; stroke-width: 0.8"/>
      </g>
     </g>
     <g id="text_24">
      <!-- 0.2 -->
      <g transform="translate(149.896875 581.803219)scale(0.1 -0.1)">
       <use xlink:href="#DejaVuSans-30"/>
       <use xlink:href="#DejaVuSans-2e" x="63.623047"/>
       <use xlink:href="#DejaVuSans-32" x="95.410156"/>
      </g>
     </g>
    </g>
    <g id="ytick_8">
     <g id="line2d_26">
      <g>
       <use xlink:href="#mb71d9a5931" x="172.8" y="526.1016" style="stroke: #000000; stroke-width: 0.8"/>
      </g>
     </g>
     <g id="text_25">
      <!-- 0.4 -->
      <g transform="translate(149.896875 529.900819)scale(0.1 -0.1)">
       <use xlink:href="#DejaVuSans-30"/>
       <use xlink:href="#DejaVuSans-2e" x="63.623047"/>
       <use xlink:href="#DejaVuSans-34" x="95.410156"/>
      </g>
     </g>
    </g>
    <g id="ytick_9">
     <g id="line2d_27">
      <g>
       <use xlink:href="#mb71d9a5931" x="172.8" y="474.1992" style="stroke: #000000; stroke-width: 0.8"/>
      </g>
     </g>
     <g id="text_26">
      <!-- 0.6 -->
      <g transform="translate(149.896875 477.998419)scale(0.1 -0.1)">
       <use xlink:href="#DejaVuSans-30"/>
       <use xlink:href="#DejaVuSans-2e" x="63.623047"/>
       <use xlink:href="#DejaVuSans-36" x="95.410156"/>
      </g>
     </g>
    </g>
    <g id="ytick_10">
     <g id="line2d_28">
      <g>
       <use xlink:href="#mb71d9a5931" x="172.8" y="422.2968" style="stroke: #000000; stroke-width: 0.8"/>
      </g>
     </g>
     <g id="text_27">
      <!-- 0.8 -->
      <g transform="translate(149.896875 426.096019)scale(0.1 -0.1)">
       <use xlink:href="#DejaVuSans-30"/>
       <use xlink:href="#DejaVuSans-2e" x="63.623047"/>
       <use xlink:href="#DejaVuSans-38" x="95.410156"/>
      </g>
     </g>
    </g>
   </g>
   <g id="patch_115">
    <path d="M 172.8 629.9064 
L 172.8 382.1904 
" style="fill: none; stroke: #000000; stroke-width: 0.8; stroke-linejoin: miter; stroke-linecap: square"/>
   </g>
   <g id="patch_116">
    <path d="M 1244.16 629.9064 
L 1244.16 382.1904 
" style="fill: none; stroke: #000000; stroke-width: 0.8; stroke-linejoin: miter; stroke-linecap: square"/>
   </g>
   <g id="patch_117">
    <path d="M 172.8 629.9064 
L 1244.16 629.9064 
" style="fill: none; stroke: #000000; stroke-width: 0.8; stroke-linejoin: miter; stroke-linecap: square"/>
   </g>
   <g id="patch_118">
    <path d="M 172.8 382.1904 
L 1244.16 382.1904 
" style="fill: none; stroke: #000000; stroke-width: 0.8; stroke-linejoin: miter; stroke-linecap: square"/>
   </g>
  </g>
 </g>
 <defs>
  <clipPath id="pdc09af9806">
   <rect x="172.8" y="84.9312" width="1071.36" height="247.716"/>
  </clipPath>
  <clipPath id="p32cb7b1343">
   <rect x="172.8" y="382.1904" width="1071.36" height="247.716"/>
  </clipPath>
 </defs>
</svg>
