<?xml version="1.0" encoding="utf-8" standalone="no"?>
<!DOCTYPE svg PUBLIC "-//W3C//DTD SVG 1.1//EN"
  "http://www.w3.org/Graphics/SVG/1.1/DTD/svg11.dtd">
<svg xmlns:xlink="http://www.w3.org/1999/xlink" width="1382.4pt" height="707.76pt" viewBox="0 0 1382.4 707.76" xmlns="http://www.w3.org/2000/svg" version="1.1">
 <metadata>
  <rdf:RDF xmlns:dc="http://purl.org/dc/elements/1.1/" xmlns:cc="http://creativecommons.org/ns#" xmlns:rdf="http://www.w3.org/1999/02/22-rdf-syntax-ns#">
   <cc:Work>
    <dc:type rdf:resource="http://purl.org/dc/dcmitype/StillImage"/>
    <dc:date>2024-05-07T22:50:24.240013</dc:date>
    <dc:format>image/svg+xml</dc:format>
    <dc:creator>
     <cc:Agent>
      <dc:title>Matplotlib v3.5.1, https://matplotlib.org/</dc:title>
     </cc:Agent>
    </dc:creator>
   </cc:Work>
  </rdf:RDF>
 </metadata>
 <defs>
  <style type="text/css">*{stroke-linejoin: round; stroke-linecap: butt}</style>
 </defs>
 <g id="figure_1">
  <g id="patch_1">
   <path d="M 0 707.76 
L 1382.4 707.76 
L 1382.4 0 
L 0 0 
z
" style="fill: #ffffff"/>
  </g>
  <g id="axes_1">
   <g id="patch_2">
    <path d="M 172.8 629.9064 
L 1244.16 629.9064 
L 1244.16 84.9312 
L 172.8 84.9312 
z
" style="fill: #ffffff"/>
   </g>
   <g id="matplotlib.axis_1">
    <g id="xtick_1">
     <g id="line2d_1">
      <path d="M 221.498182 629.9064 
L 221.498182 84.9312 
" clip-path="url(#p556479ea5c)" style="fill: none; stroke: #b0b0b0; stroke-width: 0.8; stroke-linecap: square"/>
     </g>
     <g id="line2d_2">
      <defs>
       <path id="m85333555fd" d="M 0 0 
L 0 3.5 
" style="stroke: #000000; stroke-width: 0.8"/>
      </defs>
      <g>
       <use xlink:href="#m85333555fd" x="221.498182" y="629.9064" style="stroke: #000000; stroke-width: 0.8"/>
      </g>
     </g>
     <g id="text_1">
      <!-- 0 -->
      <g transform="translate(218.316932 644.504838)scale(0.1 -0.1)">
       <defs>
        <path id="DejaVuSans-30" d="M 2034 4250 
Q 1547 4250 1301 3770 
Q 1056 3291 1056 2328 
Q 1056 1369 1301 889 
Q 1547 409 2034 409 
Q 2525 409 2770 889 
Q 3016 1369 3016 2328 
Q 3016 3291 2770 3770 
Q 2525 4250 2034 4250 
z
M 2034 4750 
Q 2819 4750 3233 4129 
Q 3647 3509 3647 2328 
Q 3647 1150 3233 529 
Q 2819 -91 2034 -91 
Q 1250 -91 836 529 
Q 422 1150 422 2328 
Q 422 3509 836 4129 
Q 1250 4750 2034 4750 
z
" transform="scale(0.015625)"/>
       </defs>
       <use xlink:href="#DejaVuSans-30"/>
      </g>
     </g>
    </g>
    <g id="xtick_2">
     <g id="line2d_3">
      <path d="M 342.038236 629.9064 
L 342.038236 84.9312 
" clip-path="url(#p556479ea5c)" style="fill: none; stroke: #b0b0b0; stroke-width: 0.8; stroke-linecap: square"/>
     </g>
     <g id="line2d_4">
      <g>
       <use xlink:href="#m85333555fd" x="342.038236" y="629.9064" style="stroke: #000000; stroke-width: 0.8"/>
      </g>
     </g>
     <g id="text_2">
      <!-- 25 -->
      <g transform="translate(335.675736 644.504838)scale(0.1 -0.1)">
       <defs>
        <path id="DejaVuSans-32" d="M 1228 531 
L 3431 531 
L 3431 0 
L 469 0 
L 469 531 
Q 828 903 1448 1529 
Q 2069 2156 2228 2338 
Q 2531 2678 2651 2914 
Q 2772 3150 2772 3378 
Q 2772 3750 2511 3984 
Q 2250 4219 1831 4219 
Q 1534 4219 1204 4116 
Q 875 4013 500 3803 
L 500 4441 
Q 881 4594 1212 4672 
Q 1544 4750 1819 4750 
Q 2544 4750 2975 4387 
Q 3406 4025 3406 3419 
Q 3406 3131 3298 2873 
Q 3191 2616 2906 2266 
Q 2828 2175 2409 1742 
Q 1991 1309 1228 531 
z
" transform="scale(0.015625)"/>
        <path id="DejaVuSans-35" d="M 691 4666 
L 3169 4666 
L 3169 4134 
L 1269 4134 
L 1269 2991 
Q 1406 3038 1543 3061 
Q 1681 3084 1819 3084 
Q 2600 3084 3056 2656 
Q 3513 2228 3513 1497 
Q 3513 744 3044 326 
Q 2575 -91 1722 -91 
Q 1428 -91 1123 -41 
Q 819 9 494 109 
L 494 744 
Q 775 591 1075 516 
Q 1375 441 1709 441 
Q 2250 441 2565 725 
Q 2881 1009 2881 1497 
Q 2881 1984 2565 2268 
Q 2250 2553 1709 2553 
Q 1456 2553 1204 2497 
Q 953 2441 691 2322 
L 691 4666 
z
" transform="scale(0.015625)"/>
       </defs>
       <use xlink:href="#DejaVuSans-32"/>
       <use xlink:href="#DejaVuSans-35" x="63.623047"/>
      </g>
     </g>
    </g>
    <g id="xtick_3">
     <g id="line2d_5">
      <path d="M 462.57829 629.9064 
L 462.57829 84.9312 
" clip-path="url(#p556479ea5c)" style="fill: none; stroke: #b0b0b0; stroke-width: 0.8; stroke-linecap: square"/>
     </g>
     <g id="line2d_6">
      <g>
       <use xlink:href="#m85333555fd" x="462.57829" y="629.9064" style="stroke: #000000; stroke-width: 0.8"/>
      </g>
     </g>
     <g id="text_3">
      <!-- 50 -->
      <g transform="translate(456.21579 644.504838)scale(0.1 -0.1)">
       <use xlink:href="#DejaVuSans-35"/>
       <use xlink:href="#DejaVuSans-30" x="63.623047"/>
      </g>
     </g>
    </g>
    <g id="xtick_4">
     <g id="line2d_7">
      <path d="M 583.118344 629.9064 
L 583.118344 84.9312 
" clip-path="url(#p556479ea5c)" style="fill: none; stroke: #b0b0b0; stroke-width: 0.8; stroke-linecap: square"/>
     </g>
     <g id="line2d_8">
      <g>
       <use xlink:href="#m85333555fd" x="583.118344" y="629.9064" style="stroke: #000000; stroke-width: 0.8"/>
      </g>
     </g>
     <g id="text_4">
      <!-- 75 -->
      <g transform="translate(576.755844 644.504838)scale(0.1 -0.1)">
       <defs>
        <path id="DejaVuSans-37" d="M 525 4666 
L 3525 4666 
L 3525 4397 
L 1831 0 
L 1172 0 
L 2766 4134 
L 525 4134 
L 525 4666 
z
" transform="scale(0.015625)"/>
       </defs>
       <use xlink:href="#DejaVuSans-37"/>
       <use xlink:href="#DejaVuSans-35" x="63.623047"/>
      </g>
     </g>
    </g>
    <g id="xtick_5">
     <g id="line2d_9">
      <path d="M 703.658398 629.9064 
L 703.658398 84.9312 
" clip-path="url(#p556479ea5c)" style="fill: none; stroke: #b0b0b0; stroke-width: 0.8; stroke-linecap: square"/>
     </g>
     <g id="line2d_10">
      <g>
       <use xlink:href="#m85333555fd" x="703.658398" y="629.9064" style="stroke: #000000; stroke-width: 0.8"/>
      </g>
     </g>
     <g id="text_5">
      <!-- 100 -->
      <g transform="translate(694.114648 644.504838)scale(0.1 -0.1)">
       <defs>
        <path id="DejaVuSans-31" d="M 794 531 
L 1825 531 
L 1825 4091 
L 703 3866 
L 703 4441 
L 1819 4666 
L 2450 4666 
L 2450 531 
L 3481 531 
L 3481 0 
L 794 0 
L 794 531 
z
" transform="scale(0.015625)"/>
       </defs>
       <use xlink:href="#DejaVuSans-31"/>
       <use xlink:href="#DejaVuSans-30" x="63.623047"/>
       <use xlink:href="#DejaVuSans-30" x="127.246094"/>
      </g>
     </g>
    </g>
    <g id="xtick_6">
     <g id="line2d_11">
      <path d="M 824.198452 629.9064 
L 824.198452 84.9312 
" clip-path="url(#p556479ea5c)" style="fill: none; stroke: #b0b0b0; stroke-width: 0.8; stroke-linecap: square"/>
     </g>
     <g id="line2d_12">
      <g>
       <use xlink:href="#m85333555fd" x="824.198452" y="629.9064" style="stroke: #000000; stroke-width: 0.8"/>
      </g>
     </g>
     <g id="text_6">
      <!-- 125 -->
      <g transform="translate(814.654702 644.504838)scale(0.1 -0.1)">
       <use xlink:href="#DejaVuSans-31"/>
       <use xlink:href="#DejaVuSans-32" x="63.623047"/>
       <use xlink:href="#DejaVuSans-35" x="127.246094"/>
      </g>
     </g>
    </g>
    <g id="xtick_7">
     <g id="line2d_13">
      <path d="M 944.738506 629.9064 
L 944.738506 84.9312 
" clip-path="url(#p556479ea5c)" style="fill: none; stroke: #b0b0b0; stroke-width: 0.8; stroke-linecap: square"/>
     </g>
     <g id="line2d_14">
      <g>
       <use xlink:href="#m85333555fd" x="944.738506" y="629.9064" style="stroke: #000000; stroke-width: 0.8"/>
      </g>
     </g>
     <g id="text_7">
      <!-- 150 -->
      <g transform="translate(935.194756 644.504838)scale(0.1 -0.1)">
       <use xlink:href="#DejaVuSans-31"/>
       <use xlink:href="#DejaVuSans-35" x="63.623047"/>
       <use xlink:href="#DejaVuSans-30" x="127.246094"/>
      </g>
     </g>
    </g>
    <g id="xtick_8">
     <g id="line2d_15">
      <path d="M 1065.27856 629.9064 
L 1065.27856 84.9312 
" clip-path="url(#p556479ea5c)" style="fill: none; stroke: #b0b0b0; stroke-width: 0.8; stroke-linecap: square"/>
     </g>
     <g id="line2d_16">
      <g>
       <use xlink:href="#m85333555fd" x="1065.27856" y="629.9064" style="stroke: #000000; stroke-width: 0.8"/>
      </g>
     </g>
     <g id="text_8">
      <!-- 175 -->
      <g transform="translate(1055.73481 644.504838)scale(0.1 -0.1)">
       <use xlink:href="#DejaVuSans-31"/>
       <use xlink:href="#DejaVuSans-37" x="63.623047"/>
       <use xlink:href="#DejaVuSans-35" x="127.246094"/>
      </g>
     </g>
    </g>
    <g id="xtick_9">
     <g id="line2d_17">
      <path d="M 1185.818614 629.9064 
L 1185.818614 84.9312 
" clip-path="url(#p556479ea5c)" style="fill: none; stroke: #b0b0b0; stroke-width: 0.8; stroke-linecap: square"/>
     </g>
     <g id="line2d_18">
      <g>
       <use xlink:href="#m85333555fd" x="1185.818614" y="629.9064" style="stroke: #000000; stroke-width: 0.8"/>
      </g>
     </g>
     <g id="text_9">
      <!-- 200 -->
      <g transform="translate(1176.274864 644.504838)scale(0.1 -0.1)">
       <use xlink:href="#DejaVuSans-32"/>
       <use xlink:href="#DejaVuSans-30" x="63.623047"/>
       <use xlink:href="#DejaVuSans-30" x="127.246094"/>
      </g>
     </g>
    </g>
    <g id="text_10">
     <!-- Measurement Number -->
     <g transform="translate(652.481562 658.182963)scale(0.1 -0.1)">
      <defs>
       <path id="DejaVuSans-4d" d="M 628 4666 
L 1569 4666 
L 2759 1491 
L 3956 4666 
L 4897 4666 
L 4897 0 
L 4281 0 
L 4281 4097 
L 3078 897 
L 2444 897 
L 1241 4097 
L 1241 0 
L 628 0 
L 628 4666 
z
" transform="scale(0.015625)"/>
       <path id="DejaVuSans-65" d="M 3597 1894 
L 3597 1613 
L 953 1613 
Q 991 1019 1311 708 
Q 1631 397 2203 397 
Q 2534 397 2845 478 
Q 3156 559 3463 722 
L 3463 178 
Q 3153 47 2828 -22 
Q 2503 -91 2169 -91 
Q 1331 -91 842 396 
Q 353 884 353 1716 
Q 353 2575 817 3079 
Q 1281 3584 2069 3584 
Q 2775 3584 3186 3129 
Q 3597 2675 3597 1894 
z
M 3022 2063 
Q 3016 2534 2758 2815 
Q 2500 3097 2075 3097 
Q 1594 3097 1305 2825 
Q 1016 2553 972 2059 
L 3022 2063 
z
" transform="scale(0.015625)"/>
       <path id="DejaVuSans-61" d="M 2194 1759 
Q 1497 1759 1228 1600 
Q 959 1441 959 1056 
Q 959 750 1161 570 
Q 1363 391 1709 391 
Q 2188 391 2477 730 
Q 2766 1069 2766 1631 
L 2766 1759 
L 2194 1759 
z
M 3341 1997 
L 3341 0 
L 2766 0 
L 2766 531 
Q 2569 213 2275 61 
Q 1981 -91 1556 -91 
Q 1019 -91 701 211 
Q 384 513 384 1019 
Q 384 1609 779 1909 
Q 1175 2209 1959 2209 
L 2766 2209 
L 2766 2266 
Q 2766 2663 2505 2880 
Q 2244 3097 1772 3097 
Q 1472 3097 1187 3025 
Q 903 2953 641 2809 
L 641 3341 
Q 956 3463 1253 3523 
Q 1550 3584 1831 3584 
Q 2591 3584 2966 3190 
Q 3341 2797 3341 1997 
z
" transform="scale(0.015625)"/>
       <path id="DejaVuSans-73" d="M 2834 3397 
L 2834 2853 
Q 2591 2978 2328 3040 
Q 2066 3103 1784 3103 
Q 1356 3103 1142 2972 
Q 928 2841 928 2578 
Q 928 2378 1081 2264 
Q 1234 2150 1697 2047 
L 1894 2003 
Q 2506 1872 2764 1633 
Q 3022 1394 3022 966 
Q 3022 478 2636 193 
Q 2250 -91 1575 -91 
Q 1294 -91 989 -36 
Q 684 19 347 128 
L 347 722 
Q 666 556 975 473 
Q 1284 391 1588 391 
Q 1994 391 2212 530 
Q 2431 669 2431 922 
Q 2431 1156 2273 1281 
Q 2116 1406 1581 1522 
L 1381 1569 
Q 847 1681 609 1914 
Q 372 2147 372 2553 
Q 372 3047 722 3315 
Q 1072 3584 1716 3584 
Q 2034 3584 2315 3537 
Q 2597 3491 2834 3397 
z
" transform="scale(0.015625)"/>
       <path id="DejaVuSans-75" d="M 544 1381 
L 544 3500 
L 1119 3500 
L 1119 1403 
Q 1119 906 1312 657 
Q 1506 409 1894 409 
Q 2359 409 2629 706 
Q 2900 1003 2900 1516 
L 2900 3500 
L 3475 3500 
L 3475 0 
L 2900 0 
L 2900 538 
Q 2691 219 2414 64 
Q 2138 -91 1772 -91 
Q 1169 -91 856 284 
Q 544 659 544 1381 
z
M 1991 3584 
L 1991 3584 
z
" transform="scale(0.015625)"/>
       <path id="DejaVuSans-72" d="M 2631 2963 
Q 2534 3019 2420 3045 
Q 2306 3072 2169 3072 
Q 1681 3072 1420 2755 
Q 1159 2438 1159 1844 
L 1159 0 
L 581 0 
L 581 3500 
L 1159 3500 
L 1159 2956 
Q 1341 3275 1631 3429 
Q 1922 3584 2338 3584 
Q 2397 3584 2469 3576 
Q 2541 3569 2628 3553 
L 2631 2963 
z
" transform="scale(0.015625)"/>
       <path id="DejaVuSans-6d" d="M 3328 2828 
Q 3544 3216 3844 3400 
Q 4144 3584 4550 3584 
Q 5097 3584 5394 3201 
Q 5691 2819 5691 2113 
L 5691 0 
L 5113 0 
L 5113 2094 
Q 5113 2597 4934 2840 
Q 4756 3084 4391 3084 
Q 3944 3084 3684 2787 
Q 3425 2491 3425 1978 
L 3425 0 
L 2847 0 
L 2847 2094 
Q 2847 2600 2669 2842 
Q 2491 3084 2119 3084 
Q 1678 3084 1418 2786 
Q 1159 2488 1159 1978 
L 1159 0 
L 581 0 
L 581 3500 
L 1159 3500 
L 1159 2956 
Q 1356 3278 1631 3431 
Q 1906 3584 2284 3584 
Q 2666 3584 2933 3390 
Q 3200 3197 3328 2828 
z
" transform="scale(0.015625)"/>
       <path id="DejaVuSans-6e" d="M 3513 2113 
L 3513 0 
L 2938 0 
L 2938 2094 
Q 2938 2591 2744 2837 
Q 2550 3084 2163 3084 
Q 1697 3084 1428 2787 
Q 1159 2491 1159 1978 
L 1159 0 
L 581 0 
L 581 3500 
L 1159 3500 
L 1159 2956 
Q 1366 3272 1645 3428 
Q 1925 3584 2291 3584 
Q 2894 3584 3203 3211 
Q 3513 2838 3513 2113 
z
" transform="scale(0.015625)"/>
       <path id="DejaVuSans-74" d="M 1172 4494 
L 1172 3500 
L 2356 3500 
L 2356 3053 
L 1172 3053 
L 1172 1153 
Q 1172 725 1289 603 
Q 1406 481 1766 481 
L 2356 481 
L 2356 0 
L 1766 0 
Q 1100 0 847 248 
Q 594 497 594 1153 
L 594 3053 
L 172 3053 
L 172 3500 
L 594 3500 
L 594 4494 
L 1172 4494 
z
" transform="scale(0.015625)"/>
       <path id="DejaVuSans-20" transform="scale(0.015625)"/>
       <path id="DejaVuSans-4e" d="M 628 4666 
L 1478 4666 
L 3547 763 
L 3547 4666 
L 4159 4666 
L 4159 0 
L 3309 0 
L 1241 3903 
L 1241 0 
L 628 0 
L 628 4666 
z
" transform="scale(0.015625)"/>
       <path id="DejaVuSans-62" d="M 3116 1747 
Q 3116 2381 2855 2742 
Q 2594 3103 2138 3103 
Q 1681 3103 1420 2742 
Q 1159 2381 1159 1747 
Q 1159 1113 1420 752 
Q 1681 391 2138 391 
Q 2594 391 2855 752 
Q 3116 1113 3116 1747 
z
M 1159 2969 
Q 1341 3281 1617 3432 
Q 1894 3584 2278 3584 
Q 2916 3584 3314 3078 
Q 3713 2572 3713 1747 
Q 3713 922 3314 415 
Q 2916 -91 2278 -91 
Q 1894 -91 1617 61 
Q 1341 213 1159 525 
L 1159 0 
L 581 0 
L 581 4863 
L 1159 4863 
L 1159 2969 
z
" transform="scale(0.015625)"/>
      </defs>
      <use xlink:href="#DejaVuSans-4d"/>
      <use xlink:href="#DejaVuSans-65" x="86.279297"/>
      <use xlink:href="#DejaVuSans-61" x="147.802734"/>
      <use xlink:href="#DejaVuSans-73" x="209.082031"/>
      <use xlink:href="#DejaVuSans-75" x="261.181641"/>
      <use xlink:href="#DejaVuSans-72" x="324.560547"/>
      <use xlink:href="#DejaVuSans-65" x="363.423828"/>
      <use xlink:href="#DejaVuSans-6d" x="424.947266"/>
      <use xlink:href="#DejaVuSans-65" x="522.359375"/>
      <use xlink:href="#DejaVuSans-6e" x="583.882812"/>
      <use xlink:href="#DejaVuSans-74" x="647.261719"/>
      <use xlink:href="#DejaVuSans-20" x="686.470703"/>
      <use xlink:href="#DejaVuSans-4e" x="718.257812"/>
      <use xlink:href="#DejaVuSans-75" x="793.0625"/>
      <use xlink:href="#DejaVuSans-6d" x="856.441406"/>
      <use xlink:href="#DejaVuSans-62" x="953.853516"/>
      <use xlink:href="#DejaVuSans-65" x="1017.330078"/>
      <use xlink:href="#DejaVuSans-72" x="1078.853516"/>
     </g>
    </g>
   </g>
   <g id="matplotlib.axis_2">
    <g id="ytick_1">
     <g id="line2d_19">
      <path d="M 172.8 583.341604 
L 1244.16 583.341604 
" clip-path="url(#p556479ea5c)" style="fill: none; stroke: #b0b0b0; stroke-width: 0.8; stroke-linecap: square"/>
     </g>
     <g id="line2d_20">
      <defs>
       <path id="m7ab68db3f1" d="M 0 0 
L -3.5 0 
" style="stroke: #000000; stroke-width: 0.8"/>
      </defs>
      <g>
       <use xlink:href="#m7ab68db3f1" x="172.8" y="583.341604" style="stroke: #000000; stroke-width: 0.8"/>
      </g>
     </g>
     <g id="text_11">
      <!-- 12 -->
      <g transform="translate(153.075 587.140822)scale(0.1 -0.1)">
       <use xlink:href="#DejaVuSans-31"/>
       <use xlink:href="#DejaVuSans-32" x="63.623047"/>
      </g>
     </g>
    </g>
    <g id="ytick_2">
     <g id="line2d_21">
      <path d="M 172.8 500.319903 
L 1244.16 500.319903 
" clip-path="url(#p556479ea5c)" style="fill: none; stroke: #b0b0b0; stroke-width: 0.8; stroke-linecap: square"/>
     </g>
     <g id="line2d_22">
      <g>
       <use xlink:href="#m7ab68db3f1" x="172.8" y="500.319903" style="stroke: #000000; stroke-width: 0.8"/>
      </g>
     </g>
     <g id="text_12">
      <!-- 14 -->
      <g transform="translate(153.075 504.119121)scale(0.1 -0.1)">
       <defs>
        <path id="DejaVuSans-34" d="M 2419 4116 
L 825 1625 
L 2419 1625 
L 2419 4116 
z
M 2253 4666 
L 3047 4666 
L 3047 1625 
L 3713 1625 
L 3713 1100 
L 3047 1100 
L 3047 0 
L 2419 0 
L 2419 1100 
L 313 1100 
L 313 1709 
L 2253 4666 
z
" transform="scale(0.015625)"/>
       </defs>
       <use xlink:href="#DejaVuSans-31"/>
       <use xlink:href="#DejaVuSans-34" x="63.623047"/>
      </g>
     </g>
    </g>
    <g id="ytick_3">
     <g id="line2d_23">
      <path d="M 172.8 417.298202 
L 1244.16 417.298202 
" clip-path="url(#p556479ea5c)" style="fill: none; stroke: #b0b0b0; stroke-width: 0.8; stroke-linecap: square"/>
     </g>
     <g id="line2d_24">
      <g>
       <use xlink:href="#m7ab68db3f1" x="172.8" y="417.298202" style="stroke: #000000; stroke-width: 0.8"/>
      </g>
     </g>
     <g id="text_13">
      <!-- 16 -->
      <g transform="translate(153.075 421.097421)scale(0.1 -0.1)">
       <defs>
        <path id="DejaVuSans-36" d="M 2113 2584 
Q 1688 2584 1439 2293 
Q 1191 2003 1191 1497 
Q 1191 994 1439 701 
Q 1688 409 2113 409 
Q 2538 409 2786 701 
Q 3034 994 3034 1497 
Q 3034 2003 2786 2293 
Q 2538 2584 2113 2584 
z
M 3366 4563 
L 3366 3988 
Q 3128 4100 2886 4159 
Q 2644 4219 2406 4219 
Q 1781 4219 1451 3797 
Q 1122 3375 1075 2522 
Q 1259 2794 1537 2939 
Q 1816 3084 2150 3084 
Q 2853 3084 3261 2657 
Q 3669 2231 3669 1497 
Q 3669 778 3244 343 
Q 2819 -91 2113 -91 
Q 1303 -91 875 529 
Q 447 1150 447 2328 
Q 447 3434 972 4092 
Q 1497 4750 2381 4750 
Q 2619 4750 2861 4703 
Q 3103 4656 3366 4563 
z
" transform="scale(0.015625)"/>
       </defs>
       <use xlink:href="#DejaVuSans-31"/>
       <use xlink:href="#DejaVuSans-36" x="63.623047"/>
      </g>
     </g>
    </g>
    <g id="ytick_4">
     <g id="line2d_25">
      <path d="M 172.8 334.276501 
L 1244.16 334.276501 
" clip-path="url(#p556479ea5c)" style="fill: none; stroke: #b0b0b0; stroke-width: 0.8; stroke-linecap: square"/>
     </g>
     <g id="line2d_26">
      <g>
       <use xlink:href="#m7ab68db3f1" x="172.8" y="334.276501" style="stroke: #000000; stroke-width: 0.8"/>
      </g>
     </g>
     <g id="text_14">
      <!-- 18 -->
      <g transform="translate(153.075 338.07572)scale(0.1 -0.1)">
       <defs>
        <path id="DejaVuSans-38" d="M 2034 2216 
Q 1584 2216 1326 1975 
Q 1069 1734 1069 1313 
Q 1069 891 1326 650 
Q 1584 409 2034 409 
Q 2484 409 2743 651 
Q 3003 894 3003 1313 
Q 3003 1734 2745 1975 
Q 2488 2216 2034 2216 
z
M 1403 2484 
Q 997 2584 770 2862 
Q 544 3141 544 3541 
Q 544 4100 942 4425 
Q 1341 4750 2034 4750 
Q 2731 4750 3128 4425 
Q 3525 4100 3525 3541 
Q 3525 3141 3298 2862 
Q 3072 2584 2669 2484 
Q 3125 2378 3379 2068 
Q 3634 1759 3634 1313 
Q 3634 634 3220 271 
Q 2806 -91 2034 -91 
Q 1263 -91 848 271 
Q 434 634 434 1313 
Q 434 1759 690 2068 
Q 947 2378 1403 2484 
z
M 1172 3481 
Q 1172 3119 1398 2916 
Q 1625 2713 2034 2713 
Q 2441 2713 2670 2916 
Q 2900 3119 2900 3481 
Q 2900 3844 2670 4047 
Q 2441 4250 2034 4250 
Q 1625 4250 1398 4047 
Q 1172 3844 1172 3481 
z
" transform="scale(0.015625)"/>
       </defs>
       <use xlink:href="#DejaVuSans-31"/>
       <use xlink:href="#DejaVuSans-38" x="63.623047"/>
      </g>
     </g>
    </g>
    <g id="ytick_5">
     <g id="line2d_27">
      <path d="M 172.8 251.2548 
L 1244.16 251.2548 
" clip-path="url(#p556479ea5c)" style="fill: none; stroke: #b0b0b0; stroke-width: 0.8; stroke-linecap: square"/>
     </g>
     <g id="line2d_28">
      <g>
       <use xlink:href="#m7ab68db3f1" x="172.8" y="251.2548" style="stroke: #000000; stroke-width: 0.8"/>
      </g>
     </g>
     <g id="text_15">
      <!-- 20 -->
      <g transform="translate(153.075 255.054019)scale(0.1 -0.1)">
       <use xlink:href="#DejaVuSans-32"/>
       <use xlink:href="#DejaVuSans-30" x="63.623047"/>
      </g>
     </g>
    </g>
    <g id="ytick_6">
     <g id="line2d_29">
      <path d="M 172.8 168.233099 
L 1244.16 168.233099 
" clip-path="url(#p556479ea5c)" style="fill: none; stroke: #b0b0b0; stroke-width: 0.8; stroke-linecap: square"/>
     </g>
     <g id="line2d_30">
      <g>
       <use xlink:href="#m7ab68db3f1" x="172.8" y="168.233099" style="stroke: #000000; stroke-width: 0.8"/>
      </g>
     </g>
     <g id="text_16">
      <!-- 22 -->
      <g transform="translate(153.075 172.032318)scale(0.1 -0.1)">
       <use xlink:href="#DejaVuSans-32"/>
       <use xlink:href="#DejaVuSans-32" x="63.623047"/>
      </g>
     </g>
    </g>
    <g id="ytick_7">
     <g id="line2d_31">
      <path d="M 172.8 85.211398 
L 1244.16 85.211398 
" clip-path="url(#p556479ea5c)" style="fill: none; stroke: #b0b0b0; stroke-width: 0.8; stroke-linecap: square"/>
     </g>
     <g id="line2d_32">
      <g>
       <use xlink:href="#m7ab68db3f1" x="172.8" y="85.211398" style="stroke: #000000; stroke-width: 0.8"/>
      </g>
     </g>
     <g id="text_17">
      <!-- 24 -->
      <g transform="translate(153.075 89.010617)scale(0.1 -0.1)">
       <use xlink:href="#DejaVuSans-32"/>
       <use xlink:href="#DejaVuSans-34" x="63.623047"/>
      </g>
     </g>
    </g>
    <g id="text_18">
     <!-- Measurement (cm) -->
     <g transform="translate(146.995312 404.852394)rotate(-90)scale(0.1 -0.1)">
      <defs>
       <path id="DejaVuSans-28" d="M 1984 4856 
Q 1566 4138 1362 3434 
Q 1159 2731 1159 2009 
Q 1159 1288 1364 580 
Q 1569 -128 1984 -844 
L 1484 -844 
Q 1016 -109 783 600 
Q 550 1309 550 2009 
Q 550 2706 781 3412 
Q 1013 4119 1484 4856 
L 1984 4856 
z
" transform="scale(0.015625)"/>
       <path id="DejaVuSans-63" d="M 3122 3366 
L 3122 2828 
Q 2878 2963 2633 3030 
Q 2388 3097 2138 3097 
Q 1578 3097 1268 2742 
Q 959 2388 959 1747 
Q 959 1106 1268 751 
Q 1578 397 2138 397 
Q 2388 397 2633 464 
Q 2878 531 3122 666 
L 3122 134 
Q 2881 22 2623 -34 
Q 2366 -91 2075 -91 
Q 1284 -91 818 406 
Q 353 903 353 1747 
Q 353 2603 823 3093 
Q 1294 3584 2113 3584 
Q 2378 3584 2631 3529 
Q 2884 3475 3122 3366 
z
" transform="scale(0.015625)"/>
       <path id="DejaVuSans-29" d="M 513 4856 
L 1013 4856 
Q 1481 4119 1714 3412 
Q 1947 2706 1947 2009 
Q 1947 1309 1714 600 
Q 1481 -109 1013 -844 
L 513 -844 
Q 928 -128 1133 580 
Q 1338 1288 1338 2009 
Q 1338 2731 1133 3434 
Q 928 4138 513 4856 
z
" transform="scale(0.015625)"/>
      </defs>
      <use xlink:href="#DejaVuSans-4d"/>
      <use xlink:href="#DejaVuSans-65" x="86.279297"/>
      <use xlink:href="#DejaVuSans-61" x="147.802734"/>
      <use xlink:href="#DejaVuSans-73" x="209.082031"/>
      <use xlink:href="#DejaVuSans-75" x="261.181641"/>
      <use xlink:href="#DejaVuSans-72" x="324.560547"/>
      <use xlink:href="#DejaVuSans-65" x="363.423828"/>
      <use xlink:href="#DejaVuSans-6d" x="424.947266"/>
      <use xlink:href="#DejaVuSans-65" x="522.359375"/>
      <use xlink:href="#DejaVuSans-6e" x="583.882812"/>
      <use xlink:href="#DejaVuSans-74" x="647.261719"/>
      <use xlink:href="#DejaVuSans-20" x="686.470703"/>
      <use xlink:href="#DejaVuSans-28" x="718.257812"/>
      <use xlink:href="#DejaVuSans-63" x="757.271484"/>
      <use xlink:href="#DejaVuSans-6d" x="812.251953"/>
      <use xlink:href="#DejaVuSans-29" x="909.664062"/>
     </g>
    </g>
   </g>
   <g id="line2d_33">
    <path d="M 221.498182 128.797791 
L 226.319784 127.967574 
L 231.141386 127.967574 
L 235.962988 133.363985 
L 240.78459 132.533768 
L 245.606193 128.797791 
L 250.427795 128.797791 
L 255.249397 133.363985 
L 260.070999 115.099211 
L 264.892601 128.797791 
L 269.714203 110.948126 
L 274.535806 134.60931 
L 279.357408 113.023668 
L 284.17901 110.948126 
L 289.000612 130.458225 
L 293.822214 134.60931 
L 298.643816 127.967574 
L 303.465419 127.552466 
L 308.287021 127.967574 
L 313.108623 132.533768 
L 317.930225 127.967574 
L 327.573429 127.967574 
L 332.395032 132.533768 
L 337.216634 127.967574 
L 346.859838 127.967574 
L 351.68144 132.533768 
L 356.503042 127.967574 
L 361.324644 127.967574 
L 366.146247 129.628008 
L 370.967849 132.533768 
L 375.789451 130.458225 
L 380.611053 112.60856 
L 385.432655 127.552466 
L 390.254257 132.533768 
L 395.07586 127.967574 
L 399.897462 127.967574 
L 404.719064 131.703551 
L 409.540666 132.533768 
L 414.362268 127.967574 
L 419.18387 127.967574 
L 424.005473 132.533768 
L 428.827075 132.533768 
L 433.648677 127.967574 
L 438.470279 127.967574 
L 443.291881 132.533768 
L 448.113483 132.533768 
L 452.935086 110.948126 
L 457.756688 127.967574 
L 462.57829 115.099211 
L 467.399892 128.797791 
L 472.221494 128.797791 
L 477.043096 127.967574 
L 481.864698 133.363985 
L 486.686301 128.797791 
L 491.507903 127.967574 
L 496.329505 127.967574 
L 501.151107 133.363985 
L 505.972709 113.023668 
L 510.794311 128.797791 
L 515.615914 128.797791 
L 520.437516 133.363985 
L 525.259118 128.797791 
L 530.08072 128.797791 
L 534.902322 127.967574 
L 539.723924 133.363985 
L 544.545527 129.628008 
L 549.367129 127.967574 
L 554.188731 127.967574 
L 559.010333 133.363985 
L 563.831935 127.967574 
L 568.653537 127.967574 
L 573.47514 128.797791 
L 578.296742 133.363985 
L 583.118344 128.797791 
L 587.939946 127.967574 
L 592.761548 127.967574 
L 597.58315 133.363985 
L 602.404752 127.967574 
L 612.047957 127.967574 
L 616.869559 132.533768 
L 621.691161 127.967574 
L 626.512763 127.967574 
L 631.334365 133.363985 
L 636.155968 133.363985 
L 640.97757 110.117909 
L 645.799172 127.967574 
L 650.620774 132.533768 
L 655.442376 133.363985 
L 660.263978 128.797791 
L 665.085581 128.797791 
L 669.907183 133.363985 
L 674.728785 133.363985 
L 679.550387 128.797791 
L 684.371989 128.797791 
L 689.193591 133.363985 
L 694.015194 133.363985 
L 698.836796 128.797791 
L 703.658398 128.797791 
L 708.48 133.363985 
L 713.301602 133.363985 
L 718.123204 128.797791 
L 722.944806 128.797791 
L 727.766409 133.363985 
L 732.588011 133.363985 
L 737.409613 128.797791 
L 742.231215 128.797791 
L 747.052817 133.363985 
L 751.874419 133.363985 
L 756.696022 127.967574 
L 761.517624 127.967574 
L 766.339226 132.533768 
L 771.160828 127.967574 
L 780.804032 127.967574 
L 785.625635 132.533768 
L 790.447237 110.117909 
L 795.268839 129.628008 
L 800.090441 127.552466 
L 804.912043 132.533768 
L 809.733645 127.552466 
L 814.555248 127.967574 
L 819.37685 127.552466 
L 824.198452 132.533768 
L 829.020054 127.967574 
L 833.841656 127.967574 
L 838.663258 127.552466 
L 843.48486 133.363985 
L 848.306463 128.797791 
L 853.128065 127.967574 
L 857.949667 127.967574 
L 862.771269 132.533768 
L 867.592871 128.797791 
L 872.414473 128.797791 
L 877.236076 127.967574 
L 882.057678 133.363985 
L 886.87928 128.797791 
L 891.700882 127.967574 
L 896.522484 128.797791 
L 901.344086 133.363985 
L 906.165689 128.797791 
L 910.987291 128.797791 
L 915.808893 127.967574 
L 920.630495 132.533768 
L 925.452097 128.797791 
L 930.273699 110.948126 
L 935.095302 128.797791 
L 939.916904 134.60931 
L 944.738506 128.797791 
L 949.560108 127.967574 
L 954.38171 128.797791 
L 959.203312 134.60931 
L 964.024914 128.797791 
L 968.846517 128.797791 
L 973.668119 132.533768 
L 978.489721 133.363985 
L 983.311323 128.797791 
L 988.132925 128.797791 
L 992.954527 133.363985 
L 997.77613 132.533768 
L 1002.597732 128.797791 
L 1007.419334 109.7028 
L 1012.240936 133.363985 
L 1017.062538 133.363985 
L 1021.88414 128.797791 
L 1026.705743 128.797791 
L 1031.527345 133.363985 
L 1036.348947 132.533768 
L 1041.170549 128.797791 
L 1045.992151 126.722249 
L 1050.813753 131.703551 
L 1055.635356 130.873334 
L 1060.456958 126.722249 
L 1065.27856 126.722249 
L 1070.100162 114.684102 
L 1074.921764 128.797791 
L 1079.743366 127.967574 
L 1084.564968 128.797791 
L 1089.386571 113.853885 
L 1094.208173 128.797791 
L 1099.029775 127.967574 
L 1103.851377 128.797791 
L 1108.672979 115.929428 
L 1113.494581 127.967574 
L 1118.316184 109.7028 
L 1123.137786 128.797791 
L 1127.959388 133.363985 
L 1132.78099 126.722249 
L 1137.602592 111.778343 
L 1142.424194 128.797791 
L 1147.245797 133.363985 
L 1152.067399 128.797791 
L 1161.710603 128.797791 
L 1166.532205 133.363985 
L 1171.353807 128.797791 
L 1176.17541 128.797791 
L 1180.997012 127.967574 
L 1185.818614 133.363985 
L 1190.640216 128.797791 
L 1195.461818 127.967574 
L 1195.461818 127.967574 
" clip-path="url(#p556479ea5c)" style="fill: none; stroke: #0000ff; stroke-width: 1.5; stroke-linecap: square"/>
   </g>
   <g id="line2d_34">
    <path d="M 221.498182 605.1348 
L 226.319784 366.551187 
L 231.141386 247.259422 
L 235.962988 190.311724 
L 240.78459 161.422746 
L 245.606193 145.110227 
L 250.427795 136.953968 
L 255.249397 135.158955 
L 260.070999 125.129062 
L 264.892601 126.963427 
L 269.714203 118.955735 
L 274.535806 126.782564 
L 279.357408 119.903178 
L 284.17901 115.42561 
L 289.000612 122.941939 
L 293.822214 128.775583 
L 303.465419 127.962053 
L 308.287021 127.964834 
L 313.108623 130.249301 
L 317.930225 129.108458 
L 322.751827 128.538058 
L 327.573429 128.252878 
L 332.395032 130.393302 
L 337.216634 129.180521 
L 342.038236 128.574048 
L 346.859838 128.270769 
L 351.68144 130.402269 
L 356.503042 129.184921 
L 361.324644 128.576206 
L 366.146247 129.102107 
L 370.967849 130.817917 
L 375.789451 130.638133 
L 380.611053 121.623346 
L 385.432655 124.587927 
L 390.254257 128.560847 
L 395.07586 128.264294 
L 399.897462 128.115892 
L 404.719064 129.909701 
L 409.540666 131.221734 
L 414.362268 129.594675 
L 419.18387 128.781145 
L 424.005473 130.657436 
L 428.827075 131.595623 
L 433.648677 129.781598 
L 438.470279 128.874586 
L 443.291881 130.704135 
L 448.113483 131.618952 
L 452.935086 121.283497 
L 457.756688 124.625536 
L 462.57829 119.86229 
L 467.399892 124.33002 
L 472.221494 126.563885 
L 477.043096 127.265709 
L 481.864698 130.314847 
L 491.507903 128.761967 
L 496.329505 128.364833 
L 501.151107 130.864409 
L 505.972709 121.944018 
L 510.794311 125.370863 
L 515.615914 127.084306 
L 520.437516 130.224187 
L 525.259118 129.510948 
L 530.08072 129.154369 
L 534.902322 128.561013 
L 539.723924 130.962499 
L 544.545527 130.295295 
L 549.367129 129.131414 
L 554.188731 128.549473 
L 559.010333 130.956729 
L 563.831935 129.462214 
L 568.653537 128.714936 
L 573.47514 128.756363 
L 578.296742 131.060133 
L 583.118344 129.928962 
L 587.939946 128.948268 
L 592.761548 128.457942 
L 597.58315 130.910943 
L 602.404752 129.439258 
L 607.226355 128.703396 
L 612.047957 128.335526 
L 616.869559 130.434647 
L 621.691161 129.201069 
L 626.512763 128.584301 
L 631.334365 130.974122 
L 636.155968 132.169053 
L 640.97757 121.143522 
L 645.799172 124.555507 
L 650.620774 128.544617 
L 655.442376 130.954363 
L 660.263978 129.876036 
L 665.085581 129.336934 
L 669.907183 131.350459 
L 674.728785 132.357181 
L 679.550387 130.577486 
L 684.371989 129.687618 
L 689.193591 131.525843 
L 694.015194 132.444935 
L 698.836796 130.621363 
L 703.658398 129.709536 
L 708.48 131.53676 
L 713.301602 132.450331 
L 718.123204 130.62402 
L 722.944806 129.710905 
L 727.766409 131.537383 
L 732.588011 132.450705 
L 737.409613 130.624186 
L 742.231215 129.710988 
L 747.052817 131.537507 
L 751.874419 132.450746 
L 756.696022 130.20916 
L 761.517624 129.088367 
L 766.339226 130.811067 
L 771.160828 129.389321 
L 775.98243 128.678531 
L 780.804032 128.323032 
L 785.625635 130.428379 
L 790.447237 120.273123 
L 795.268839 124.950607 
L 800.090441 126.251516 
L 804.912043 129.392683 
L 809.733645 128.472595 
L 819.37685 127.886296 
L 824.198452 130.20999 
L 829.020054 129.088782 
L 838.663258 128.040384 
L 843.48486 130.702184 
L 853.128065 128.858729 
L 857.949667 128.41311 
L 862.771269 130.473418 
L 867.592871 129.635605 
L 872.414473 129.216677 
L 877.236076 128.592146 
L 882.057678 130.978107 
L 886.87928 129.887949 
L 891.700882 128.927762 
L 896.522484 128.862756 
L 901.344086 131.113349 
L 906.165689 129.955529 
L 910.987291 129.376702 
L 915.808893 128.672179 
L 920.630495 130.602974 
L 925.452097 129.700362 
L 930.273699 120.324223 
L 935.095302 124.560986 
L 939.916904 129.585169 
L 944.738506 129.191439 
L 949.560108 128.579569 
L 954.38171 128.688618 
L 959.203312 131.649047 
L 964.024914 130.223398 
L 968.846517 129.510574 
L 973.668119 131.022109 
L 978.489721 132.193047 
L 983.311323 130.49546 
L 988.132925 129.646605 
L 992.954527 131.505253 
L 997.77613 132.01949 
L 1002.597732 130.408661 
L 1007.419334 120.055731 
L 1012.240936 126.709878 
L 1017.062538 130.036932 
L 1021.88414 129.417382 
L 1026.705743 129.107587 
L 1031.527345 131.235723 
L 1036.348947 131.884746 
L 1041.170549 130.341206 
L 1045.992151 128.531707 
L 1050.813753 130.117629 
L 1055.635356 130.49546 
L 1060.456958 128.608834 
L 1065.27856 127.665541 
L 1070.100162 121.174822 
L 1074.921764 124.986265 
L 1079.743366 126.476961 
L 1084.564968 127.637355 
L 1089.386571 120.745599 
L 1094.208173 124.771654 
L 1099.029775 126.369614 
L 1103.851377 127.583682 
L 1108.672979 121.756513 
L 1113.494581 124.862106 
L 1118.316184 117.282432 
L 1123.137786 123.040112 
L 1127.959388 128.202027 
L 1132.78099 127.462138 
L 1137.602592 119.620157 
L 1147.245797 128.7865 
L 1161.710603 128.796338 
L 1166.532205 131.080141 
L 1171.353807 129.939008 
L 1176.17541 129.368358 
L 1180.997012 128.667987 
L 1185.818614 131.015965 
L 1190.640216 129.906837 
L 1195.461818 128.937268 
L 1195.461818 128.937268 
" clip-path="url(#p556479ea5c)" style="fill: none; stroke: #ff0000; stroke-width: 1.5; stroke-linecap: square"/>
   </g>
   <g id="patch_3">
    <path d="M 172.8 629.9064 
L 172.8 84.9312 
" style="fill: none; stroke: #000000; stroke-width: 0.8; stroke-linejoin: miter; stroke-linecap: square"/>
   </g>
   <g id="patch_4">
    <path d="M 1244.16 629.9064 
L 1244.16 84.9312 
" style="fill: none; stroke: #000000; stroke-width: 0.8; stroke-linejoin: miter; stroke-linecap: square"/>
   </g>
   <g id="patch_5">
    <path d="M 172.8 629.9064 
L 1244.16 629.9064 
" style="fill: none; stroke: #000000; stroke-width: 0.8; stroke-linejoin: miter; stroke-linecap: square"/>
   </g>
   <g id="patch_6">
    <path d="M 172.8 84.9312 
L 1244.16 84.9312 
" style="fill: none; stroke: #000000; stroke-width: 0.8; stroke-linejoin: miter; stroke-linecap: square"/>
   </g>
   <g id="text_19">
    <!-- Ultrasound Sensor Measurements -->
    <g transform="translate(607.020937 78.9312)scale(0.12 -0.12)">
     <defs>
      <path id="DejaVuSans-55" d="M 556 4666 
L 1191 4666 
L 1191 1831 
Q 1191 1081 1462 751 
Q 1734 422 2344 422 
Q 2950 422 3222 751 
Q 3494 1081 3494 1831 
L 3494 4666 
L 4128 4666 
L 4128 1753 
Q 4128 841 3676 375 
Q 3225 -91 2344 -91 
Q 1459 -91 1007 375 
Q 556 841 556 1753 
L 556 4666 
z
" transform="scale(0.015625)"/>
      <path id="DejaVuSans-6c" d="M 603 4863 
L 1178 4863 
L 1178 0 
L 603 0 
L 603 4863 
z
" transform="scale(0.015625)"/>
      <path id="DejaVuSans-6f" d="M 1959 3097 
Q 1497 3097 1228 2736 
Q 959 2375 959 1747 
Q 959 1119 1226 758 
Q 1494 397 1959 397 
Q 2419 397 2687 759 
Q 2956 1122 2956 1747 
Q 2956 2369 2687 2733 
Q 2419 3097 1959 3097 
z
M 1959 3584 
Q 2709 3584 3137 3096 
Q 3566 2609 3566 1747 
Q 3566 888 3137 398 
Q 2709 -91 1959 -91 
Q 1206 -91 779 398 
Q 353 888 353 1747 
Q 353 2609 779 3096 
Q 1206 3584 1959 3584 
z
" transform="scale(0.015625)"/>
      <path id="DejaVuSans-64" d="M 2906 2969 
L 2906 4863 
L 3481 4863 
L 3481 0 
L 2906 0 
L 2906 525 
Q 2725 213 2448 61 
Q 2172 -91 1784 -91 
Q 1150 -91 751 415 
Q 353 922 353 1747 
Q 353 2572 751 3078 
Q 1150 3584 1784 3584 
Q 2172 3584 2448 3432 
Q 2725 3281 2906 2969 
z
M 947 1747 
Q 947 1113 1208 752 
Q 1469 391 1925 391 
Q 2381 391 2643 752 
Q 2906 1113 2906 1747 
Q 2906 2381 2643 2742 
Q 2381 3103 1925 3103 
Q 1469 3103 1208 2742 
Q 947 2381 947 1747 
z
" transform="scale(0.015625)"/>
      <path id="DejaVuSans-53" d="M 3425 4513 
L 3425 3897 
Q 3066 4069 2747 4153 
Q 2428 4238 2131 4238 
Q 1616 4238 1336 4038 
Q 1056 3838 1056 3469 
Q 1056 3159 1242 3001 
Q 1428 2844 1947 2747 
L 2328 2669 
Q 3034 2534 3370 2195 
Q 3706 1856 3706 1288 
Q 3706 609 3251 259 
Q 2797 -91 1919 -91 
Q 1588 -91 1214 -16 
Q 841 59 441 206 
L 441 856 
Q 825 641 1194 531 
Q 1563 422 1919 422 
Q 2459 422 2753 634 
Q 3047 847 3047 1241 
Q 3047 1584 2836 1778 
Q 2625 1972 2144 2069 
L 1759 2144 
Q 1053 2284 737 2584 
Q 422 2884 422 3419 
Q 422 4038 858 4394 
Q 1294 4750 2059 4750 
Q 2388 4750 2728 4690 
Q 3069 4631 3425 4513 
z
" transform="scale(0.015625)"/>
     </defs>
     <use xlink:href="#DejaVuSans-55"/>
     <use xlink:href="#DejaVuSans-6c" x="73.193359"/>
     <use xlink:href="#DejaVuSans-74" x="100.976562"/>
     <use xlink:href="#DejaVuSans-72" x="140.185547"/>
     <use xlink:href="#DejaVuSans-61" x="181.298828"/>
     <use xlink:href="#DejaVuSans-73" x="242.578125"/>
     <use xlink:href="#DejaVuSans-6f" x="294.677734"/>
     <use xlink:href="#DejaVuSans-75" x="355.859375"/>
     <use xlink:href="#DejaVuSans-6e" x="419.238281"/>
     <use xlink:href="#DejaVuSans-64" x="482.617188"/>
     <use xlink:href="#DejaVuSans-20" x="546.09375"/>
     <use xlink:href="#DejaVuSans-53" x="577.880859"/>
     <use xlink:href="#DejaVuSans-65" x="641.357422"/>
     <use xlink:href="#DejaVuSans-6e" x="702.880859"/>
     <use xlink:href="#DejaVuSans-73" x="766.259766"/>
     <use xlink:href="#DejaVuSans-6f" x="818.359375"/>
     <use xlink:href="#DejaVuSans-72" x="879.541016"/>
     <use xlink:href="#DejaVuSans-20" x="920.654297"/>
     <use xlink:href="#DejaVuSans-4d" x="952.441406"/>
     <use xlink:href="#DejaVuSans-65" x="1038.720703"/>
     <use xlink:href="#DejaVuSans-61" x="1100.244141"/>
     <use xlink:href="#DejaVuSans-73" x="1161.523438"/>
     <use xlink:href="#DejaVuSans-75" x="1213.623047"/>
     <use xlink:href="#DejaVuSans-72" x="1277.001953"/>
     <use xlink:href="#DejaVuSans-65" x="1315.865234"/>
     <use xlink:href="#DejaVuSans-6d" x="1377.388672"/>
     <use xlink:href="#DejaVuSans-65" x="1474.800781"/>
     <use xlink:href="#DejaVuSans-6e" x="1536.324219"/>
     <use xlink:href="#DejaVuSans-74" x="1599.703125"/>
     <use xlink:href="#DejaVuSans-73" x="1638.912109"/>
    </g>
   </g>
  </g>
 </g>
 <defs>
  <clipPath id="p556479ea5c">
   <rect x="172.8" y="84.9312" width="1071.36" height="544.9752"/>
  </clipPath>
 </defs>
</svg>
