<?xml version="1.0" encoding="utf-8" standalone="no"?>
<!DOCTYPE svg PUBLIC "-//W3C//DTD SVG 1.1//EN"
  "http://www.w3.org/Graphics/SVG/1.1/DTD/svg11.dtd">
<svg xmlns:xlink="http://www.w3.org/1999/xlink" width="1382.4pt" height="707.76pt" viewBox="0 0 1382.4 707.76" xmlns="http://www.w3.org/2000/svg" version="1.1">
 <metadata>
  <rdf:RDF xmlns:dc="http://purl.org/dc/elements/1.1/" xmlns:cc="http://creativecommons.org/ns#" xmlns:rdf="http://www.w3.org/1999/02/22-rdf-syntax-ns#">
   <cc:Work>
    <dc:type rdf:resource="http://purl.org/dc/dcmitype/StillImage"/>
    <dc:date>2024-05-07T22:52:10.864994</dc:date>
    <dc:format>image/svg+xml</dc:format>
    <dc:creator>
     <cc:Agent>
      <dc:title>Matplotlib v3.5.1, https://matplotlib.org/</dc:title>
     </cc:Agent>
    </dc:creator>
   </cc:Work>
  </rdf:RDF>
 </metadata>
 <defs>
  <style type="text/css">*{stroke-linejoin: round; stroke-linecap: butt}</style>
 </defs>
 <g id="figure_1">
  <g id="patch_1">
   <path d="M 0 707.76 
L 1382.4 707.76 
L 1382.4 0 
L 0 0 
z
" style="fill: #ffffff"/>
  </g>
  <g id="axes_1">
   <g id="patch_2">
    <path d="M 172.8 629.9064 
L 1244.16 629.9064 
L 1244.16 84.9312 
L 172.8 84.9312 
z
" style="fill: #ffffff"/>
   </g>
   <g id="matplotlib.axis_1">
    <g id="xtick_1">
     <g id="line2d_1">
      <path d="M 221.498182 629.9064 
L 221.498182 84.9312 
" clip-path="url(#pce6a2d24d4)" style="fill: none; stroke: #b0b0b0; stroke-width: 0.8; stroke-linecap: square"/>
     </g>
     <g id="line2d_2">
      <defs>
       <path id="m4cd2b909d9" d="M 0 0 
L 0 3.5 
" style="stroke: #000000; stroke-width: 0.8"/>
      </defs>
      <g>
       <use xlink:href="#m4cd2b909d9" x="221.498182" y="629.9064" style="stroke: #000000; stroke-width: 0.8"/>
      </g>
     </g>
     <g id="text_1">
      <!-- 0 -->
      <g transform="translate(218.316932 644.504838)scale(0.1 -0.1)">
       <defs>
        <path id="DejaVuSans-30" d="M 2034 4250 
Q 1547 4250 1301 3770 
Q 1056 3291 1056 2328 
Q 1056 1369 1301 889 
Q 1547 409 2034 409 
Q 2525 409 2770 889 
Q 3016 1369 3016 2328 
Q 3016 3291 2770 3770 
Q 2525 4250 2034 4250 
z
M 2034 4750 
Q 2819 4750 3233 4129 
Q 3647 3509 3647 2328 
Q 3647 1150 3233 529 
Q 2819 -91 2034 -91 
Q 1250 -91 836 529 
Q 422 1150 422 2328 
Q 422 3509 836 4129 
Q 1250 4750 2034 4750 
z
" transform="scale(0.015625)"/>
       </defs>
       <use xlink:href="#DejaVuSans-30"/>
      </g>
     </g>
    </g>
    <g id="xtick_2">
     <g id="line2d_3">
      <path d="M 342.038236 629.9064 
L 342.038236 84.9312 
" clip-path="url(#pce6a2d24d4)" style="fill: none; stroke: #b0b0b0; stroke-width: 0.8; stroke-linecap: square"/>
     </g>
     <g id="line2d_4">
      <g>
       <use xlink:href="#m4cd2b909d9" x="342.038236" y="629.9064" style="stroke: #000000; stroke-width: 0.8"/>
      </g>
     </g>
     <g id="text_2">
      <!-- 25 -->
      <g transform="translate(335.675736 644.504838)scale(0.1 -0.1)">
       <defs>
        <path id="DejaVuSans-32" d="M 1228 531 
L 3431 531 
L 3431 0 
L 469 0 
L 469 531 
Q 828 903 1448 1529 
Q 2069 2156 2228 2338 
Q 2531 2678 2651 2914 
Q 2772 3150 2772 3378 
Q 2772 3750 2511 3984 
Q 2250 4219 1831 4219 
Q 1534 4219 1204 4116 
Q 875 4013 500 3803 
L 500 4441 
Q 881 4594 1212 4672 
Q 1544 4750 1819 4750 
Q 2544 4750 2975 4387 
Q 3406 4025 3406 3419 
Q 3406 3131 3298 2873 
Q 3191 2616 2906 2266 
Q 2828 2175 2409 1742 
Q 1991 1309 1228 531 
z
" transform="scale(0.015625)"/>
        <path id="DejaVuSans-35" d="M 691 4666 
L 3169 4666 
L 3169 4134 
L 1269 4134 
L 1269 2991 
Q 1406 3038 1543 3061 
Q 1681 3084 1819 3084 
Q 2600 3084 3056 2656 
Q 3513 2228 3513 1497 
Q 3513 744 3044 326 
Q 2575 -91 1722 -91 
Q 1428 -91 1123 -41 
Q 819 9 494 109 
L 494 744 
Q 775 591 1075 516 
Q 1375 441 1709 441 
Q 2250 441 2565 725 
Q 2881 1009 2881 1497 
Q 2881 1984 2565 2268 
Q 2250 2553 1709 2553 
Q 1456 2553 1204 2497 
Q 953 2441 691 2322 
L 691 4666 
z
" transform="scale(0.015625)"/>
       </defs>
       <use xlink:href="#DejaVuSans-32"/>
       <use xlink:href="#DejaVuSans-35" x="63.623047"/>
      </g>
     </g>
    </g>
    <g id="xtick_3">
     <g id="line2d_5">
      <path d="M 462.57829 629.9064 
L 462.57829 84.9312 
" clip-path="url(#pce6a2d24d4)" style="fill: none; stroke: #b0b0b0; stroke-width: 0.8; stroke-linecap: square"/>
     </g>
     <g id="line2d_6">
      <g>
       <use xlink:href="#m4cd2b909d9" x="462.57829" y="629.9064" style="stroke: #000000; stroke-width: 0.8"/>
      </g>
     </g>
     <g id="text_3">
      <!-- 50 -->
      <g transform="translate(456.21579 644.504838)scale(0.1 -0.1)">
       <use xlink:href="#DejaVuSans-35"/>
       <use xlink:href="#DejaVuSans-30" x="63.623047"/>
      </g>
     </g>
    </g>
    <g id="xtick_4">
     <g id="line2d_7">
      <path d="M 583.118344 629.9064 
L 583.118344 84.9312 
" clip-path="url(#pce6a2d24d4)" style="fill: none; stroke: #b0b0b0; stroke-width: 0.8; stroke-linecap: square"/>
     </g>
     <g id="line2d_8">
      <g>
       <use xlink:href="#m4cd2b909d9" x="583.118344" y="629.9064" style="stroke: #000000; stroke-width: 0.8"/>
      </g>
     </g>
     <g id="text_4">
      <!-- 75 -->
      <g transform="translate(576.755844 644.504838)scale(0.1 -0.1)">
       <defs>
        <path id="DejaVuSans-37" d="M 525 4666 
L 3525 4666 
L 3525 4397 
L 1831 0 
L 1172 0 
L 2766 4134 
L 525 4134 
L 525 4666 
z
" transform="scale(0.015625)"/>
       </defs>
       <use xlink:href="#DejaVuSans-37"/>
       <use xlink:href="#DejaVuSans-35" x="63.623047"/>
      </g>
     </g>
    </g>
    <g id="xtick_5">
     <g id="line2d_9">
      <path d="M 703.658398 629.9064 
L 703.658398 84.9312 
" clip-path="url(#pce6a2d24d4)" style="fill: none; stroke: #b0b0b0; stroke-width: 0.8; stroke-linecap: square"/>
     </g>
     <g id="line2d_10">
      <g>
       <use xlink:href="#m4cd2b909d9" x="703.658398" y="629.9064" style="stroke: #000000; stroke-width: 0.8"/>
      </g>
     </g>
     <g id="text_5">
      <!-- 100 -->
      <g transform="translate(694.114648 644.504838)scale(0.1 -0.1)">
       <defs>
        <path id="DejaVuSans-31" d="M 794 531 
L 1825 531 
L 1825 4091 
L 703 3866 
L 703 4441 
L 1819 4666 
L 2450 4666 
L 2450 531 
L 3481 531 
L 3481 0 
L 794 0 
L 794 531 
z
" transform="scale(0.015625)"/>
       </defs>
       <use xlink:href="#DejaVuSans-31"/>
       <use xlink:href="#DejaVuSans-30" x="63.623047"/>
       <use xlink:href="#DejaVuSans-30" x="127.246094"/>
      </g>
     </g>
    </g>
    <g id="xtick_6">
     <g id="line2d_11">
      <path d="M 824.198452 629.9064 
L 824.198452 84.9312 
" clip-path="url(#pce6a2d24d4)" style="fill: none; stroke: #b0b0b0; stroke-width: 0.8; stroke-linecap: square"/>
     </g>
     <g id="line2d_12">
      <g>
       <use xlink:href="#m4cd2b909d9" x="824.198452" y="629.9064" style="stroke: #000000; stroke-width: 0.8"/>
      </g>
     </g>
     <g id="text_6">
      <!-- 125 -->
      <g transform="translate(814.654702 644.504838)scale(0.1 -0.1)">
       <use xlink:href="#DejaVuSans-31"/>
       <use xlink:href="#DejaVuSans-32" x="63.623047"/>
       <use xlink:href="#DejaVuSans-35" x="127.246094"/>
      </g>
     </g>
    </g>
    <g id="xtick_7">
     <g id="line2d_13">
      <path d="M 944.738506 629.9064 
L 944.738506 84.9312 
" clip-path="url(#pce6a2d24d4)" style="fill: none; stroke: #b0b0b0; stroke-width: 0.8; stroke-linecap: square"/>
     </g>
     <g id="line2d_14">
      <g>
       <use xlink:href="#m4cd2b909d9" x="944.738506" y="629.9064" style="stroke: #000000; stroke-width: 0.8"/>
      </g>
     </g>
     <g id="text_7">
      <!-- 150 -->
      <g transform="translate(935.194756 644.504838)scale(0.1 -0.1)">
       <use xlink:href="#DejaVuSans-31"/>
       <use xlink:href="#DejaVuSans-35" x="63.623047"/>
       <use xlink:href="#DejaVuSans-30" x="127.246094"/>
      </g>
     </g>
    </g>
    <g id="xtick_8">
     <g id="line2d_15">
      <path d="M 1065.27856 629.9064 
L 1065.27856 84.9312 
" clip-path="url(#pce6a2d24d4)" style="fill: none; stroke: #b0b0b0; stroke-width: 0.8; stroke-linecap: square"/>
     </g>
     <g id="line2d_16">
      <g>
       <use xlink:href="#m4cd2b909d9" x="1065.27856" y="629.9064" style="stroke: #000000; stroke-width: 0.8"/>
      </g>
     </g>
     <g id="text_8">
      <!-- 175 -->
      <g transform="translate(1055.73481 644.504838)scale(0.1 -0.1)">
       <use xlink:href="#DejaVuSans-31"/>
       <use xlink:href="#DejaVuSans-37" x="63.623047"/>
       <use xlink:href="#DejaVuSans-35" x="127.246094"/>
      </g>
     </g>
    </g>
    <g id="xtick_9">
     <g id="line2d_17">
      <path d="M 1185.818614 629.9064 
L 1185.818614 84.9312 
" clip-path="url(#pce6a2d24d4)" style="fill: none; stroke: #b0b0b0; stroke-width: 0.8; stroke-linecap: square"/>
     </g>
     <g id="line2d_18">
      <g>
       <use xlink:href="#m4cd2b909d9" x="1185.818614" y="629.9064" style="stroke: #000000; stroke-width: 0.8"/>
      </g>
     </g>
     <g id="text_9">
      <!-- 200 -->
      <g transform="translate(1176.274864 644.504838)scale(0.1 -0.1)">
       <use xlink:href="#DejaVuSans-32"/>
       <use xlink:href="#DejaVuSans-30" x="63.623047"/>
       <use xlink:href="#DejaVuSans-30" x="127.246094"/>
      </g>
     </g>
    </g>
    <g id="text_10">
     <!-- Measurement Number -->
     <g transform="translate(652.481562 658.182963)scale(0.1 -0.1)">
      <defs>
       <path id="DejaVuSans-4d" d="M 628 4666 
L 1569 4666 
L 2759 1491 
L 3956 4666 
L 4897 4666 
L 4897 0 
L 4281 0 
L 4281 4097 
L 3078 897 
L 2444 897 
L 1241 4097 
L 1241 0 
L 628 0 
L 628 4666 
z
" transform="scale(0.015625)"/>
       <path id="DejaVuSans-65" d="M 3597 1894 
L 3597 1613 
L 953 1613 
Q 991 1019 1311 708 
Q 1631 397 2203 397 
Q 2534 397 2845 478 
Q 3156 559 3463 722 
L 3463 178 
Q 3153 47 2828 -22 
Q 2503 -91 2169 -91 
Q 1331 -91 842 396 
Q 353 884 353 1716 
Q 353 2575 817 3079 
Q 1281 3584 2069 3584 
Q 2775 3584 3186 3129 
Q 3597 2675 3597 1894 
z
M 3022 2063 
Q 3016 2534 2758 2815 
Q 2500 3097 2075 3097 
Q 1594 3097 1305 2825 
Q 1016 2553 972 2059 
L 3022 2063 
z
" transform="scale(0.015625)"/>
       <path id="DejaVuSans-61" d="M 2194 1759 
Q 1497 1759 1228 1600 
Q 959 1441 959 1056 
Q 959 750 1161 570 
Q 1363 391 1709 391 
Q 2188 391 2477 730 
Q 2766 1069 2766 1631 
L 2766 1759 
L 2194 1759 
z
M 3341 1997 
L 3341 0 
L 2766 0 
L 2766 531 
Q 2569 213 2275 61 
Q 1981 -91 1556 -91 
Q 1019 -91 701 211 
Q 384 513 384 1019 
Q 384 1609 779 1909 
Q 1175 2209 1959 2209 
L 2766 2209 
L 2766 2266 
Q 2766 2663 2505 2880 
Q 2244 3097 1772 3097 
Q 1472 3097 1187 3025 
Q 903 2953 641 2809 
L 641 3341 
Q 956 3463 1253 3523 
Q 1550 3584 1831 3584 
Q 2591 3584 2966 3190 
Q 3341 2797 3341 1997 
z
" transform="scale(0.015625)"/>
       <path id="DejaVuSans-73" d="M 2834 3397 
L 2834 2853 
Q 2591 2978 2328 3040 
Q 2066 3103 1784 3103 
Q 1356 3103 1142 2972 
Q 928 2841 928 2578 
Q 928 2378 1081 2264 
Q 1234 2150 1697 2047 
L 1894 2003 
Q 2506 1872 2764 1633 
Q 3022 1394 3022 966 
Q 3022 478 2636 193 
Q 2250 -91 1575 -91 
Q 1294 -91 989 -36 
Q 684 19 347 128 
L 347 722 
Q 666 556 975 473 
Q 1284 391 1588 391 
Q 1994 391 2212 530 
Q 2431 669 2431 922 
Q 2431 1156 2273 1281 
Q 2116 1406 1581 1522 
L 1381 1569 
Q 847 1681 609 1914 
Q 372 2147 372 2553 
Q 372 3047 722 3315 
Q 1072 3584 1716 3584 
Q 2034 3584 2315 3537 
Q 2597 3491 2834 3397 
z
" transform="scale(0.015625)"/>
       <path id="DejaVuSans-75" d="M 544 1381 
L 544 3500 
L 1119 3500 
L 1119 1403 
Q 1119 906 1312 657 
Q 1506 409 1894 409 
Q 2359 409 2629 706 
Q 2900 1003 2900 1516 
L 2900 3500 
L 3475 3500 
L 3475 0 
L 2900 0 
L 2900 538 
Q 2691 219 2414 64 
Q 2138 -91 1772 -91 
Q 1169 -91 856 284 
Q 544 659 544 1381 
z
M 1991 3584 
L 1991 3584 
z
" transform="scale(0.015625)"/>
       <path id="DejaVuSans-72" d="M 2631 2963 
Q 2534 3019 2420 3045 
Q 2306 3072 2169 3072 
Q 1681 3072 1420 2755 
Q 1159 2438 1159 1844 
L 1159 0 
L 581 0 
L 581 3500 
L 1159 3500 
L 1159 2956 
Q 1341 3275 1631 3429 
Q 1922 3584 2338 3584 
Q 2397 3584 2469 3576 
Q 2541 3569 2628 3553 
L 2631 2963 
z
" transform="scale(0.015625)"/>
       <path id="DejaVuSans-6d" d="M 3328 2828 
Q 3544 3216 3844 3400 
Q 4144 3584 4550 3584 
Q 5097 3584 5394 3201 
Q 5691 2819 5691 2113 
L 5691 0 
L 5113 0 
L 5113 2094 
Q 5113 2597 4934 2840 
Q 4756 3084 4391 3084 
Q 3944 3084 3684 2787 
Q 3425 2491 3425 1978 
L 3425 0 
L 2847 0 
L 2847 2094 
Q 2847 2600 2669 2842 
Q 2491 3084 2119 3084 
Q 1678 3084 1418 2786 
Q 1159 2488 1159 1978 
L 1159 0 
L 581 0 
L 581 3500 
L 1159 3500 
L 1159 2956 
Q 1356 3278 1631 3431 
Q 1906 3584 2284 3584 
Q 2666 3584 2933 3390 
Q 3200 3197 3328 2828 
z
" transform="scale(0.015625)"/>
       <path id="DejaVuSans-6e" d="M 3513 2113 
L 3513 0 
L 2938 0 
L 2938 2094 
Q 2938 2591 2744 2837 
Q 2550 3084 2163 3084 
Q 1697 3084 1428 2787 
Q 1159 2491 1159 1978 
L 1159 0 
L 581 0 
L 581 3500 
L 1159 3500 
L 1159 2956 
Q 1366 3272 1645 3428 
Q 1925 3584 2291 3584 
Q 2894 3584 3203 3211 
Q 3513 2838 3513 2113 
z
" transform="scale(0.015625)"/>
       <path id="DejaVuSans-74" d="M 1172 4494 
L 1172 3500 
L 2356 3500 
L 2356 3053 
L 1172 3053 
L 1172 1153 
Q 1172 725 1289 603 
Q 1406 481 1766 481 
L 2356 481 
L 2356 0 
L 1766 0 
Q 1100 0 847 248 
Q 594 497 594 1153 
L 594 3053 
L 172 3053 
L 172 3500 
L 594 3500 
L 594 4494 
L 1172 4494 
z
" transform="scale(0.015625)"/>
       <path id="DejaVuSans-20" transform="scale(0.015625)"/>
       <path id="DejaVuSans-4e" d="M 628 4666 
L 1478 4666 
L 3547 763 
L 3547 4666 
L 4159 4666 
L 4159 0 
L 3309 0 
L 1241 3903 
L 1241 0 
L 628 0 
L 628 4666 
z
" transform="scale(0.015625)"/>
       <path id="DejaVuSans-62" d="M 3116 1747 
Q 3116 2381 2855 2742 
Q 2594 3103 2138 3103 
Q 1681 3103 1420 2742 
Q 1159 2381 1159 1747 
Q 1159 1113 1420 752 
Q 1681 391 2138 391 
Q 2594 391 2855 752 
Q 3116 1113 3116 1747 
z
M 1159 2969 
Q 1341 3281 1617 3432 
Q 1894 3584 2278 3584 
Q 2916 3584 3314 3078 
Q 3713 2572 3713 1747 
Q 3713 922 3314 415 
Q 2916 -91 2278 -91 
Q 1894 -91 1617 61 
Q 1341 213 1159 525 
L 1159 0 
L 581 0 
L 581 4863 
L 1159 4863 
L 1159 2969 
z
" transform="scale(0.015625)"/>
      </defs>
      <use xlink:href="#DejaVuSans-4d"/>
      <use xlink:href="#DejaVuSans-65" x="86.279297"/>
      <use xlink:href="#DejaVuSans-61" x="147.802734"/>
      <use xlink:href="#DejaVuSans-73" x="209.082031"/>
      <use xlink:href="#DejaVuSans-75" x="261.181641"/>
      <use xlink:href="#DejaVuSans-72" x="324.560547"/>
      <use xlink:href="#DejaVuSans-65" x="363.423828"/>
      <use xlink:href="#DejaVuSans-6d" x="424.947266"/>
      <use xlink:href="#DejaVuSans-65" x="522.359375"/>
      <use xlink:href="#DejaVuSans-6e" x="583.882812"/>
      <use xlink:href="#DejaVuSans-74" x="647.261719"/>
      <use xlink:href="#DejaVuSans-20" x="686.470703"/>
      <use xlink:href="#DejaVuSans-4e" x="718.257812"/>
      <use xlink:href="#DejaVuSans-75" x="793.0625"/>
      <use xlink:href="#DejaVuSans-6d" x="856.441406"/>
      <use xlink:href="#DejaVuSans-62" x="953.853516"/>
      <use xlink:href="#DejaVuSans-65" x="1017.330078"/>
      <use xlink:href="#DejaVuSans-72" x="1078.853516"/>
     </g>
    </g>
   </g>
   <g id="matplotlib.axis_2">
    <g id="ytick_1">
     <g id="line2d_19">
      <path d="M 172.8 613.392 
L 1244.16 613.392 
" clip-path="url(#pce6a2d24d4)" style="fill: none; stroke: #b0b0b0; stroke-width: 0.8; stroke-linecap: square"/>
     </g>
     <g id="line2d_20">
      <defs>
       <path id="m60df2b4cc2" d="M 0 0 
L -3.5 0 
" style="stroke: #000000; stroke-width: 0.8"/>
      </defs>
      <g>
       <use xlink:href="#m60df2b4cc2" x="172.8" y="613.392" style="stroke: #000000; stroke-width: 0.8"/>
      </g>
     </g>
     <g id="text_11">
      <!-- 22.8 -->
      <g transform="translate(143.534375 617.191219)scale(0.1 -0.1)">
       <defs>
        <path id="DejaVuSans-2e" d="M 684 794 
L 1344 794 
L 1344 0 
L 684 0 
L 684 794 
z
" transform="scale(0.015625)"/>
        <path id="DejaVuSans-38" d="M 2034 2216 
Q 1584 2216 1326 1975 
Q 1069 1734 1069 1313 
Q 1069 891 1326 650 
Q 1584 409 2034 409 
Q 2484 409 2743 651 
Q 3003 894 3003 1313 
Q 3003 1734 2745 1975 
Q 2488 2216 2034 2216 
z
M 1403 2484 
Q 997 2584 770 2862 
Q 544 3141 544 3541 
Q 544 4100 942 4425 
Q 1341 4750 2034 4750 
Q 2731 4750 3128 4425 
Q 3525 4100 3525 3541 
Q 3525 3141 3298 2862 
Q 3072 2584 2669 2484 
Q 3125 2378 3379 2068 
Q 3634 1759 3634 1313 
Q 3634 634 3220 271 
Q 2806 -91 2034 -91 
Q 1263 -91 848 271 
Q 434 634 434 1313 
Q 434 1759 690 2068 
Q 947 2378 1403 2484 
z
M 1172 3481 
Q 1172 3119 1398 2916 
Q 1625 2713 2034 2713 
Q 2441 2713 2670 2916 
Q 2900 3119 2900 3481 
Q 2900 3844 2670 4047 
Q 2441 4250 2034 4250 
Q 1625 4250 1398 4047 
Q 1172 3844 1172 3481 
z
" transform="scale(0.015625)"/>
       </defs>
       <use xlink:href="#DejaVuSans-32"/>
       <use xlink:href="#DejaVuSans-32" x="63.623047"/>
       <use xlink:href="#DejaVuSans-2e" x="127.246094"/>
       <use xlink:href="#DejaVuSans-38" x="159.033203"/>
      </g>
     </g>
    </g>
    <g id="ytick_2">
     <g id="line2d_21">
      <path d="M 172.8 530.82 
L 1244.16 530.82 
" clip-path="url(#pce6a2d24d4)" style="fill: none; stroke: #b0b0b0; stroke-width: 0.8; stroke-linecap: square"/>
     </g>
     <g id="line2d_22">
      <g>
       <use xlink:href="#m60df2b4cc2" x="172.8" y="530.82" style="stroke: #000000; stroke-width: 0.8"/>
      </g>
     </g>
     <g id="text_12">
      <!-- 22.9 -->
      <g transform="translate(143.534375 534.619219)scale(0.1 -0.1)">
       <defs>
        <path id="DejaVuSans-39" d="M 703 97 
L 703 672 
Q 941 559 1184 500 
Q 1428 441 1663 441 
Q 2288 441 2617 861 
Q 2947 1281 2994 2138 
Q 2813 1869 2534 1725 
Q 2256 1581 1919 1581 
Q 1219 1581 811 2004 
Q 403 2428 403 3163 
Q 403 3881 828 4315 
Q 1253 4750 1959 4750 
Q 2769 4750 3195 4129 
Q 3622 3509 3622 2328 
Q 3622 1225 3098 567 
Q 2575 -91 1691 -91 
Q 1453 -91 1209 -44 
Q 966 3 703 97 
z
M 1959 2075 
Q 2384 2075 2632 2365 
Q 2881 2656 2881 3163 
Q 2881 3666 2632 3958 
Q 2384 4250 1959 4250 
Q 1534 4250 1286 3958 
Q 1038 3666 1038 3163 
Q 1038 2656 1286 2365 
Q 1534 2075 1959 2075 
z
" transform="scale(0.015625)"/>
       </defs>
       <use xlink:href="#DejaVuSans-32"/>
       <use xlink:href="#DejaVuSans-32" x="63.623047"/>
       <use xlink:href="#DejaVuSans-2e" x="127.246094"/>
       <use xlink:href="#DejaVuSans-39" x="159.033203"/>
      </g>
     </g>
    </g>
    <g id="ytick_3">
     <g id="line2d_23">
      <path d="M 172.8 448.248 
L 1244.16 448.248 
" clip-path="url(#pce6a2d24d4)" style="fill: none; stroke: #b0b0b0; stroke-width: 0.8; stroke-linecap: square"/>
     </g>
     <g id="line2d_24">
      <g>
       <use xlink:href="#m60df2b4cc2" x="172.8" y="448.248" style="stroke: #000000; stroke-width: 0.8"/>
      </g>
     </g>
     <g id="text_13">
      <!-- 23.0 -->
      <g transform="translate(143.534375 452.047219)scale(0.1 -0.1)">
       <defs>
        <path id="DejaVuSans-33" d="M 2597 2516 
Q 3050 2419 3304 2112 
Q 3559 1806 3559 1356 
Q 3559 666 3084 287 
Q 2609 -91 1734 -91 
Q 1441 -91 1130 -33 
Q 819 25 488 141 
L 488 750 
Q 750 597 1062 519 
Q 1375 441 1716 441 
Q 2309 441 2620 675 
Q 2931 909 2931 1356 
Q 2931 1769 2642 2001 
Q 2353 2234 1838 2234 
L 1294 2234 
L 1294 2753 
L 1863 2753 
Q 2328 2753 2575 2939 
Q 2822 3125 2822 3475 
Q 2822 3834 2567 4026 
Q 2313 4219 1838 4219 
Q 1578 4219 1281 4162 
Q 984 4106 628 3988 
L 628 4550 
Q 988 4650 1302 4700 
Q 1616 4750 1894 4750 
Q 2613 4750 3031 4423 
Q 3450 4097 3450 3541 
Q 3450 3153 3228 2886 
Q 3006 2619 2597 2516 
z
" transform="scale(0.015625)"/>
       </defs>
       <use xlink:href="#DejaVuSans-32"/>
       <use xlink:href="#DejaVuSans-33" x="63.623047"/>
       <use xlink:href="#DejaVuSans-2e" x="127.246094"/>
       <use xlink:href="#DejaVuSans-30" x="159.033203"/>
      </g>
     </g>
    </g>
    <g id="ytick_4">
     <g id="line2d_25">
      <path d="M 172.8 365.676 
L 1244.16 365.676 
" clip-path="url(#pce6a2d24d4)" style="fill: none; stroke: #b0b0b0; stroke-width: 0.8; stroke-linecap: square"/>
     </g>
     <g id="line2d_26">
      <g>
       <use xlink:href="#m60df2b4cc2" x="172.8" y="365.676" style="stroke: #000000; stroke-width: 0.8"/>
      </g>
     </g>
     <g id="text_14">
      <!-- 23.1 -->
      <g transform="translate(143.534375 369.475219)scale(0.1 -0.1)">
       <use xlink:href="#DejaVuSans-32"/>
       <use xlink:href="#DejaVuSans-33" x="63.623047"/>
       <use xlink:href="#DejaVuSans-2e" x="127.246094"/>
       <use xlink:href="#DejaVuSans-31" x="159.033203"/>
      </g>
     </g>
    </g>
    <g id="ytick_5">
     <g id="line2d_27">
      <path d="M 172.8 283.104 
L 1244.16 283.104 
" clip-path="url(#pce6a2d24d4)" style="fill: none; stroke: #b0b0b0; stroke-width: 0.8; stroke-linecap: square"/>
     </g>
     <g id="line2d_28">
      <g>
       <use xlink:href="#m60df2b4cc2" x="172.8" y="283.104" style="stroke: #000000; stroke-width: 0.8"/>
      </g>
     </g>
     <g id="text_15">
      <!-- 23.2 -->
      <g transform="translate(143.534375 286.903219)scale(0.1 -0.1)">
       <use xlink:href="#DejaVuSans-32"/>
       <use xlink:href="#DejaVuSans-33" x="63.623047"/>
       <use xlink:href="#DejaVuSans-2e" x="127.246094"/>
       <use xlink:href="#DejaVuSans-32" x="159.033203"/>
      </g>
     </g>
    </g>
    <g id="ytick_6">
     <g id="line2d_29">
      <path d="M 172.8 200.532 
L 1244.16 200.532 
" clip-path="url(#pce6a2d24d4)" style="fill: none; stroke: #b0b0b0; stroke-width: 0.8; stroke-linecap: square"/>
     </g>
     <g id="line2d_30">
      <g>
       <use xlink:href="#m60df2b4cc2" x="172.8" y="200.532" style="stroke: #000000; stroke-width: 0.8"/>
      </g>
     </g>
     <g id="text_16">
      <!-- 23.3 -->
      <g transform="translate(143.534375 204.331219)scale(0.1 -0.1)">
       <use xlink:href="#DejaVuSans-32"/>
       <use xlink:href="#DejaVuSans-33" x="63.623047"/>
       <use xlink:href="#DejaVuSans-2e" x="127.246094"/>
       <use xlink:href="#DejaVuSans-33" x="159.033203"/>
      </g>
     </g>
    </g>
    <g id="ytick_7">
     <g id="line2d_31">
      <path d="M 172.8 117.96 
L 1244.16 117.96 
" clip-path="url(#pce6a2d24d4)" style="fill: none; stroke: #b0b0b0; stroke-width: 0.8; stroke-linecap: square"/>
     </g>
     <g id="line2d_32">
      <g>
       <use xlink:href="#m60df2b4cc2" x="172.8" y="117.96" style="stroke: #000000; stroke-width: 0.8"/>
      </g>
     </g>
     <g id="text_17">
      <!-- 23.4 -->
      <g transform="translate(143.534375 121.759219)scale(0.1 -0.1)">
       <defs>
        <path id="DejaVuSans-34" d="M 2419 4116 
L 825 1625 
L 2419 1625 
L 2419 4116 
z
M 2253 4666 
L 3047 4666 
L 3047 1625 
L 3713 1625 
L 3713 1100 
L 3047 1100 
L 3047 0 
L 2419 0 
L 2419 1100 
L 313 1100 
L 313 1709 
L 2253 4666 
z
" transform="scale(0.015625)"/>
       </defs>
       <use xlink:href="#DejaVuSans-32"/>
       <use xlink:href="#DejaVuSans-33" x="63.623047"/>
       <use xlink:href="#DejaVuSans-2e" x="127.246094"/>
       <use xlink:href="#DejaVuSans-34" x="159.033203"/>
      </g>
     </g>
    </g>
    <g id="text_18">
     <!-- Measurement (cm) -->
     <g transform="translate(137.454687 404.852394)rotate(-90)scale(0.1 -0.1)">
      <defs>
       <path id="DejaVuSans-28" d="M 1984 4856 
Q 1566 4138 1362 3434 
Q 1159 2731 1159 2009 
Q 1159 1288 1364 580 
Q 1569 -128 1984 -844 
L 1484 -844 
Q 1016 -109 783 600 
Q 550 1309 550 2009 
Q 550 2706 781 3412 
Q 1013 4119 1484 4856 
L 1984 4856 
z
" transform="scale(0.015625)"/>
       <path id="DejaVuSans-63" d="M 3122 3366 
L 3122 2828 
Q 2878 2963 2633 3030 
Q 2388 3097 2138 3097 
Q 1578 3097 1268 2742 
Q 959 2388 959 1747 
Q 959 1106 1268 751 
Q 1578 397 2138 397 
Q 2388 397 2633 464 
Q 2878 531 3122 666 
L 3122 134 
Q 2881 22 2623 -34 
Q 2366 -91 2075 -91 
Q 1284 -91 818 406 
Q 353 903 353 1747 
Q 353 2603 823 3093 
Q 1294 3584 2113 3584 
Q 2378 3584 2631 3529 
Q 2884 3475 3122 3366 
z
" transform="scale(0.015625)"/>
       <path id="DejaVuSans-29" d="M 513 4856 
L 1013 4856 
Q 1481 4119 1714 3412 
Q 1947 2706 1947 2009 
Q 1947 1309 1714 600 
Q 1481 -109 1013 -844 
L 513 -844 
Q 928 -128 1133 580 
Q 1338 1288 1338 2009 
Q 1338 2731 1133 3434 
Q 928 4138 513 4856 
z
" transform="scale(0.015625)"/>
      </defs>
      <use xlink:href="#DejaVuSans-4d"/>
      <use xlink:href="#DejaVuSans-65" x="86.279297"/>
      <use xlink:href="#DejaVuSans-61" x="147.802734"/>
      <use xlink:href="#DejaVuSans-73" x="209.082031"/>
      <use xlink:href="#DejaVuSans-75" x="261.181641"/>
      <use xlink:href="#DejaVuSans-72" x="324.560547"/>
      <use xlink:href="#DejaVuSans-65" x="363.423828"/>
      <use xlink:href="#DejaVuSans-6d" x="424.947266"/>
      <use xlink:href="#DejaVuSans-65" x="522.359375"/>
      <use xlink:href="#DejaVuSans-6e" x="583.882812"/>
      <use xlink:href="#DejaVuSans-74" x="647.261719"/>
      <use xlink:href="#DejaVuSans-20" x="686.470703"/>
      <use xlink:href="#DejaVuSans-28" x="718.257812"/>
      <use xlink:href="#DejaVuSans-63" x="757.271484"/>
      <use xlink:href="#DejaVuSans-6d" x="812.251953"/>
      <use xlink:href="#DejaVuSans-29" x="909.664062"/>
     </g>
    </g>
   </g>
   <g id="line2d_33">
    <path d="M 221.498182 489.534 
L 226.319784 473.0196 
L 231.141386 473.0196 
L 235.962988 580.3632 
L 240.78459 563.8488 
L 245.606193 489.534 
L 250.427795 489.534 
L 255.249397 580.3632 
L 260.070999 217.0464 
L 264.892601 489.534 
L 269.714203 134.4744 
L 274.535806 605.1348 
L 279.357408 175.7604 
L 284.17901 134.4744 
L 289.000612 522.5628 
L 293.822214 605.1348 
L 298.643816 473.0196 
L 303.465419 464.7624 
L 308.287021 473.0196 
L 313.108623 563.8488 
L 317.930225 473.0196 
L 327.573429 473.0196 
L 332.395032 563.8488 
L 337.216634 473.0196 
L 346.859838 473.0196 
L 351.68144 563.8488 
L 356.503042 473.0196 
L 361.324644 473.0196 
L 366.146247 506.0484 
L 370.967849 563.8488 
L 375.789451 522.5628 
L 380.611053 167.5032 
L 385.432655 464.7624 
L 390.254257 563.8488 
L 395.07586 473.0196 
L 399.897462 473.0196 
L 404.719064 547.3344 
L 409.540666 563.8488 
L 414.362268 473.0196 
L 419.18387 473.0196 
L 424.005473 563.8488 
L 428.827075 563.8488 
L 433.648677 473.0196 
L 438.470279 473.0196 
L 443.291881 563.8488 
L 448.113483 563.8488 
L 452.935086 134.4744 
L 457.756688 473.0196 
L 462.57829 217.0464 
L 467.399892 489.534 
L 472.221494 489.534 
L 477.043096 473.0196 
L 481.864698 580.3632 
L 486.686301 489.534 
L 491.507903 473.0196 
L 496.329505 473.0196 
L 501.151107 580.3632 
L 505.972709 175.7604 
L 510.794311 489.534 
L 515.615914 489.534 
L 520.437516 580.3632 
L 525.259118 489.534 
L 530.08072 489.534 
L 534.902322 473.0196 
L 539.723924 580.3632 
L 544.545527 506.0484 
L 549.367129 473.0196 
L 554.188731 473.0196 
L 559.010333 580.3632 
L 563.831935 473.0196 
L 568.653537 473.0196 
L 573.47514 489.534 
L 578.296742 580.3632 
L 583.118344 489.534 
L 587.939946 473.0196 
L 592.761548 473.0196 
L 597.58315 580.3632 
L 602.404752 473.0196 
L 612.047957 473.0196 
L 616.869559 563.8488 
L 621.691161 473.0196 
L 626.512763 473.0196 
L 631.334365 580.3632 
L 636.155968 580.3632 
L 640.97757 117.96 
L 645.799172 473.0196 
L 650.620774 563.8488 
L 655.442376 580.3632 
L 660.263978 489.534 
L 665.085581 489.534 
L 669.907183 580.3632 
L 674.728785 580.3632 
L 679.550387 489.534 
L 684.371989 489.534 
L 689.193591 580.3632 
L 694.015194 580.3632 
L 698.836796 489.534 
L 703.658398 489.534 
L 708.48 580.3632 
L 713.301602 580.3632 
L 718.123204 489.534 
L 722.944806 489.534 
L 727.766409 580.3632 
L 732.588011 580.3632 
L 737.409613 489.534 
L 742.231215 489.534 
L 747.052817 580.3632 
L 751.874419 580.3632 
L 756.696022 473.0196 
L 761.517624 473.0196 
L 766.339226 563.8488 
L 771.160828 473.0196 
L 780.804032 473.0196 
L 785.625635 563.8488 
L 790.447237 117.96 
L 795.268839 506.0484 
L 800.090441 464.7624 
L 804.912043 563.8488 
L 809.733645 464.7624 
L 814.555248 473.0196 
L 819.37685 464.7624 
L 824.198452 563.8488 
L 829.020054 473.0196 
L 833.841656 473.0196 
L 838.663258 464.7624 
L 843.48486 580.3632 
L 848.306463 489.534 
L 853.128065 473.0196 
L 857.949667 473.0196 
L 862.771269 563.8488 
L 867.592871 489.534 
L 872.414473 489.534 
L 877.236076 473.0196 
L 882.057678 580.3632 
L 886.87928 489.534 
L 891.700882 473.0196 
L 896.522484 489.534 
L 901.344086 580.3632 
L 906.165689 489.534 
L 910.987291 489.534 
L 915.808893 473.0196 
L 920.630495 563.8488 
L 925.452097 489.534 
L 930.273699 134.4744 
L 935.095302 489.534 
L 939.916904 605.1348 
L 944.738506 489.534 
L 949.560108 473.0196 
L 954.38171 489.534 
L 959.203312 605.1348 
L 964.024914 489.534 
L 968.846517 489.534 
L 973.668119 563.8488 
L 978.489721 580.3632 
L 983.311323 489.534 
L 988.132925 489.534 
L 992.954527 580.3632 
L 997.77613 563.8488 
L 1002.597732 489.534 
L 1007.419334 109.7028 
L 1012.240936 580.3632 
L 1017.062538 580.3632 
L 1021.88414 489.534 
L 1026.705743 489.534 
L 1031.527345 580.3632 
L 1036.348947 563.8488 
L 1041.170549 489.534 
L 1045.992151 448.248 
L 1050.813753 547.3344 
L 1055.635356 530.82 
L 1060.456958 448.248 
L 1065.27856 448.248 
L 1070.100162 208.7892 
L 1074.921764 489.534 
L 1079.743366 473.0196 
L 1084.564968 489.534 
L 1089.386571 192.2748 
L 1094.208173 489.534 
L 1099.029775 473.0196 
L 1103.851377 489.534 
L 1108.672979 233.5608 
L 1113.494581 473.0196 
L 1118.316184 109.7028 
L 1123.137786 489.534 
L 1127.959388 580.3632 
L 1132.78099 448.248 
L 1137.602592 150.9888 
L 1142.424194 489.534 
L 1147.245797 580.3632 
L 1152.067399 489.534 
L 1161.710603 489.534 
L 1166.532205 580.3632 
L 1171.353807 489.534 
L 1176.17541 489.534 
L 1180.997012 473.0196 
L 1185.818614 580.3632 
L 1190.640216 489.534 
L 1195.461818 473.0196 
L 1195.461818 473.0196 
" clip-path="url(#pce6a2d24d4)" style="fill: none; stroke: #0000ff; stroke-width: 1.5; stroke-linecap: square"/>
   </g>
   <g id="line2d_34">
    <path d="M 221.498182 468.566793 
L 231.141386 467.662833 
L 235.962988 467.130143 
L 240.78459 465.425269 
L 245.606193 462.701517 
L 250.427795 459.699996 
L 255.249397 456.389635 
L 260.070999 451.795903 
L 264.892601 449.632291 
L 269.714203 447.055617 
L 274.535806 447.714774 
L 279.357408 446.744324 
L 284.17901 448.579091 
L 289.000612 453.665458 
L 293.822214 458.038603 
L 303.465419 463.613848 
L 313.108623 468.970453 
L 332.395032 475.53578 
L 346.859838 477.815853 
L 351.68144 478.664295 
L 361.324644 478.655615 
L 366.146247 478.738663 
L 370.967849 478.539001 
L 375.789451 477.456215 
L 380.611053 475.906487 
L 385.432655 477.549339 
L 390.254257 479.324562 
L 399.897462 481.199611 
L 404.719064 482.259109 
L 409.540666 482.644949 
L 419.18387 481.830324 
L 424.005473 481.561687 
L 428.827075 480.441216 
L 438.470279 476.5297 
L 443.291881 474.638424 
L 448.113483 471.823646 
L 452.935086 468.056225 
L 462.57829 467.373208 
L 467.399892 469.595757 
L 472.221494 471.611907 
L 481.864698 475.277526 
L 486.686301 476.024681 
L 496.329505 477.276691 
L 501.151107 477.965463 
L 505.972709 477.594217 
L 515.615914 483.005774 
L 520.437516 485.596424 
L 539.723924 492.126869 
L 544.545527 492.970897 
L 549.367129 493.679547 
L 554.188731 494.602068 
L 559.010333 495.748011 
L 563.831935 496.018019 
L 568.653537 496.526107 
L 578.296742 498.109119 
L 587.939946 498.157873 
L 592.761548 498.486762 
L 597.58315 499.079287 
L 602.404752 498.830363 
L 607.226355 498.848631 
L 612.047957 499.13428 
L 616.869559 499.690268 
L 621.691161 499.582089 
L 626.512763 499.748883 
L 631.334365 500.192379 
L 636.155968 499.805948 
L 640.97757 498.585592 
L 645.799172 501.305459 
L 650.620774 504.318141 
L 655.442376 506.714563 
L 660.263978 508.348577 
L 665.085581 510.177358 
L 669.907183 512.219839 
L 674.728785 513.556903 
L 679.550387 514.202389 
L 684.371989 515.103242 
L 689.193591 516.268787 
L 694.015194 516.770829 
L 698.836796 516.614565 
L 703.658398 516.738638 
L 708.48 517.144332 
L 713.301602 516.895586 
L 718.123204 515.989826 
L 722.944806 515.357936 
L 727.766409 514.993374 
L 732.588011 513.952107 
L 737.409613 512.223353 
L 742.231215 510.729479 
L 747.052817 509.45502 
L 751.874419 507.446522 
L 756.696022 504.683193 
L 761.517624 502.247644 
L 766.339226 500.114663 
L 771.160828 497.321908 
L 775.98243 494.780731 
L 780.804032 492.464823 
L 785.625635 490.350212 
L 790.447237 487.474746 
L 795.268839 488.424484 
L 800.090441 489.19178 
L 804.912043 490.211968 
L 809.733645 490.469871 
L 814.555248 490.993896 
L 819.37685 491.70399 
L 824.198452 492.692983 
L 829.020054 492.945373 
L 833.841656 493.404034 
L 838.663258 494.073714 
L 843.48486 495.046824 
L 853.128065 495.284659 
L 857.949667 495.663063 
L 862.771269 496.275871 
L 872.414473 496.171357 
L 877.236076 496.222257 
L 882.057678 496.513349 
L 891.700882 495.425791 
L 901.344086 494.926513 
L 910.987291 492.76085 
L 915.808893 491.733615 
L 920.630495 490.900106 
L 930.273699 487.720461 
L 939.916904 491.854706 
L 949.560108 493.679515 
L 959.203312 496.020109 
L 968.846517 496.224194 
L 973.668119 496.429418 
L 978.489721 495.936719 
L 988.132925 493.255493 
L 992.954527 491.979471 
L 997.77613 489.788503 
L 1007.419334 483.845247 
L 1012.240936 484.732737 
L 1017.062538 484.630264 
L 1026.705743 482.381187 
L 1031.527345 481.151561 
L 1036.348947 478.894899 
L 1041.170549 475.758798 
L 1045.992151 472.480096 
L 1050.813753 469.452244 
L 1055.635356 465.618158 
L 1065.27856 456.73319 
L 1070.100162 452.445113 
L 1074.921764 450.679355 
L 1079.743366 448.511374 
L 1084.564968 446.089685 
L 1089.386571 443.218261 
L 1094.208173 442.944596 
L 1099.029775 442.18864 
L 1103.851377 441.113522 
L 1108.672979 439.537157 
L 1113.494581 440.093052 
L 1118.316184 440.308093 
L 1123.137786 443.945548 
L 1127.959388 447.111074 
L 1137.602592 450.690003 
L 1142.424194 455.585324 
L 1147.245797 460.12921 
L 1152.067399 463.428437 
L 1156.889001 466.457421 
L 1161.710603 469.247516 
L 1166.532205 471.827607 
L 1171.353807 473.28414 
L 1176.17541 474.572456 
L 1185.818614 476.867133 
L 1190.640216 476.956987 
L 1195.461818 476.916645 
L 1195.461818 476.916645 
" clip-path="url(#pce6a2d24d4)" style="fill: none; stroke: #ff0000; stroke-width: 1.5; stroke-linecap: square"/>
   </g>
   <g id="patch_3">
    <path d="M 172.8 629.9064 
L 172.8 84.9312 
" style="fill: none; stroke: #000000; stroke-width: 0.8; stroke-linejoin: miter; stroke-linecap: square"/>
   </g>
   <g id="patch_4">
    <path d="M 1244.16 629.9064 
L 1244.16 84.9312 
" style="fill: none; stroke: #000000; stroke-width: 0.8; stroke-linejoin: miter; stroke-linecap: square"/>
   </g>
   <g id="patch_5">
    <path d="M 172.8 629.9064 
L 1244.16 629.9064 
" style="fill: none; stroke: #000000; stroke-width: 0.8; stroke-linejoin: miter; stroke-linecap: square"/>
   </g>
   <g id="patch_6">
    <path d="M 172.8 84.9312 
L 1244.16 84.9312 
" style="fill: none; stroke: #000000; stroke-width: 0.8; stroke-linejoin: miter; stroke-linecap: square"/>
   </g>
   <g id="text_19">
    <!-- Ultrasound Sensor Measurements with Kalman-Filter -->
    <g transform="translate(550.956562 78.9312)scale(0.12 -0.12)">
     <defs>
      <path id="DejaVuSans-55" d="M 556 4666 
L 1191 4666 
L 1191 1831 
Q 1191 1081 1462 751 
Q 1734 422 2344 422 
Q 2950 422 3222 751 
Q 3494 1081 3494 1831 
L 3494 4666 
L 4128 4666 
L 4128 1753 
Q 4128 841 3676 375 
Q 3225 -91 2344 -91 
Q 1459 -91 1007 375 
Q 556 841 556 1753 
L 556 4666 
z
" transform="scale(0.015625)"/>
      <path id="DejaVuSans-6c" d="M 603 4863 
L 1178 4863 
L 1178 0 
L 603 0 
L 603 4863 
z
" transform="scale(0.015625)"/>
      <path id="DejaVuSans-6f" d="M 1959 3097 
Q 1497 3097 1228 2736 
Q 959 2375 959 1747 
Q 959 1119 1226 758 
Q 1494 397 1959 397 
Q 2419 397 2687 759 
Q 2956 1122 2956 1747 
Q 2956 2369 2687 2733 
Q 2419 3097 1959 3097 
z
M 1959 3584 
Q 2709 3584 3137 3096 
Q 3566 2609 3566 1747 
Q 3566 888 3137 398 
Q 2709 -91 1959 -91 
Q 1206 -91 779 398 
Q 353 888 353 1747 
Q 353 2609 779 3096 
Q 1206 3584 1959 3584 
z
" transform="scale(0.015625)"/>
      <path id="DejaVuSans-64" d="M 2906 2969 
L 2906 4863 
L 3481 4863 
L 3481 0 
L 2906 0 
L 2906 525 
Q 2725 213 2448 61 
Q 2172 -91 1784 -91 
Q 1150 -91 751 415 
Q 353 922 353 1747 
Q 353 2572 751 3078 
Q 1150 3584 1784 3584 
Q 2172 3584 2448 3432 
Q 2725 3281 2906 2969 
z
M 947 1747 
Q 947 1113 1208 752 
Q 1469 391 1925 391 
Q 2381 391 2643 752 
Q 2906 1113 2906 1747 
Q 2906 2381 2643 2742 
Q 2381 3103 1925 3103 
Q 1469 3103 1208 2742 
Q 947 2381 947 1747 
z
" transform="scale(0.015625)"/>
      <path id="DejaVuSans-53" d="M 3425 4513 
L 3425 3897 
Q 3066 4069 2747 4153 
Q 2428 4238 2131 4238 
Q 1616 4238 1336 4038 
Q 1056 3838 1056 3469 
Q 1056 3159 1242 3001 
Q 1428 2844 1947 2747 
L 2328 2669 
Q 3034 2534 3370 2195 
Q 3706 1856 3706 1288 
Q 3706 609 3251 259 
Q 2797 -91 1919 -91 
Q 1588 -91 1214 -16 
Q 841 59 441 206 
L 441 856 
Q 825 641 1194 531 
Q 1563 422 1919 422 
Q 2459 422 2753 634 
Q 3047 847 3047 1241 
Q 3047 1584 2836 1778 
Q 2625 1972 2144 2069 
L 1759 2144 
Q 1053 2284 737 2584 
Q 422 2884 422 3419 
Q 422 4038 858 4394 
Q 1294 4750 2059 4750 
Q 2388 4750 2728 4690 
Q 3069 4631 3425 4513 
z
" transform="scale(0.015625)"/>
      <path id="DejaVuSans-77" d="M 269 3500 
L 844 3500 
L 1563 769 
L 2278 3500 
L 2956 3500 
L 3675 769 
L 4391 3500 
L 4966 3500 
L 4050 0 
L 3372 0 
L 2619 2869 
L 1863 0 
L 1184 0 
L 269 3500 
z
" transform="scale(0.015625)"/>
      <path id="DejaVuSans-69" d="M 603 3500 
L 1178 3500 
L 1178 0 
L 603 0 
L 603 3500 
z
M 603 4863 
L 1178 4863 
L 1178 4134 
L 603 4134 
L 603 4863 
z
" transform="scale(0.015625)"/>
      <path id="DejaVuSans-68" d="M 3513 2113 
L 3513 0 
L 2938 0 
L 2938 2094 
Q 2938 2591 2744 2837 
Q 2550 3084 2163 3084 
Q 1697 3084 1428 2787 
Q 1159 2491 1159 1978 
L 1159 0 
L 581 0 
L 581 4863 
L 1159 4863 
L 1159 2956 
Q 1366 3272 1645 3428 
Q 1925 3584 2291 3584 
Q 2894 3584 3203 3211 
Q 3513 2838 3513 2113 
z
" transform="scale(0.015625)"/>
      <path id="DejaVuSans-4b" d="M 628 4666 
L 1259 4666 
L 1259 2694 
L 3353 4666 
L 4166 4666 
L 1850 2491 
L 4331 0 
L 3500 0 
L 1259 2247 
L 1259 0 
L 628 0 
L 628 4666 
z
" transform="scale(0.015625)"/>
      <path id="DejaVuSans-2d" d="M 313 2009 
L 1997 2009 
L 1997 1497 
L 313 1497 
L 313 2009 
z
" transform="scale(0.015625)"/>
      <path id="DejaVuSans-46" d="M 628 4666 
L 3309 4666 
L 3309 4134 
L 1259 4134 
L 1259 2759 
L 3109 2759 
L 3109 2228 
L 1259 2228 
L 1259 0 
L 628 0 
L 628 4666 
z
" transform="scale(0.015625)"/>
     </defs>
     <use xlink:href="#DejaVuSans-55"/>
     <use xlink:href="#DejaVuSans-6c" x="73.193359"/>
     <use xlink:href="#DejaVuSans-74" x="100.976562"/>
     <use xlink:href="#DejaVuSans-72" x="140.185547"/>
     <use xlink:href="#DejaVuSans-61" x="181.298828"/>
     <use xlink:href="#DejaVuSans-73" x="242.578125"/>
     <use xlink:href="#DejaVuSans-6f" x="294.677734"/>
     <use xlink:href="#DejaVuSans-75" x="355.859375"/>
     <use xlink:href="#DejaVuSans-6e" x="419.238281"/>
     <use xlink:href="#DejaVuSans-64" x="482.617188"/>
     <use xlink:href="#DejaVuSans-20" x="546.09375"/>
     <use xlink:href="#DejaVuSans-53" x="577.880859"/>
     <use xlink:href="#DejaVuSans-65" x="641.357422"/>
     <use xlink:href="#DejaVuSans-6e" x="702.880859"/>
     <use xlink:href="#DejaVuSans-73" x="766.259766"/>
     <use xlink:href="#DejaVuSans-6f" x="818.359375"/>
     <use xlink:href="#DejaVuSans-72" x="879.541016"/>
     <use xlink:href="#DejaVuSans-20" x="920.654297"/>
     <use xlink:href="#DejaVuSans-4d" x="952.441406"/>
     <use xlink:href="#DejaVuSans-65" x="1038.720703"/>
     <use xlink:href="#DejaVuSans-61" x="1100.244141"/>
     <use xlink:href="#DejaVuSans-73" x="1161.523438"/>
     <use xlink:href="#DejaVuSans-75" x="1213.623047"/>
     <use xlink:href="#DejaVuSans-72" x="1277.001953"/>
     <use xlink:href="#DejaVuSans-65" x="1315.865234"/>
     <use xlink:href="#DejaVuSans-6d" x="1377.388672"/>
     <use xlink:href="#DejaVuSans-65" x="1474.800781"/>
     <use xlink:href="#DejaVuSans-6e" x="1536.324219"/>
     <use xlink:href="#DejaVuSans-74" x="1599.703125"/>
     <use xlink:href="#DejaVuSans-73" x="1638.912109"/>
     <use xlink:href="#DejaVuSans-20" x="1691.011719"/>
     <use xlink:href="#DejaVuSans-77" x="1722.798828"/>
     <use xlink:href="#DejaVuSans-69" x="1804.585938"/>
     <use xlink:href="#DejaVuSans-74" x="1832.369141"/>
     <use xlink:href="#DejaVuSans-68" x="1871.578125"/>
     <use xlink:href="#DejaVuSans-20" x="1934.957031"/>
     <use xlink:href="#DejaVuSans-4b" x="1966.744141"/>
     <use xlink:href="#DejaVuSans-61" x="2030.570312"/>
     <use xlink:href="#DejaVuSans-6c" x="2091.849609"/>
     <use xlink:href="#DejaVuSans-6d" x="2119.632812"/>
     <use xlink:href="#DejaVuSans-61" x="2217.044922"/>
     <use xlink:href="#DejaVuSans-6e" x="2278.324219"/>
     <use xlink:href="#DejaVuSans-2d" x="2341.703125"/>
     <use xlink:href="#DejaVuSans-46" x="2377.787109"/>
     <use xlink:href="#DejaVuSans-69" x="2428.056641"/>
     <use xlink:href="#DejaVuSans-6c" x="2455.839844"/>
     <use xlink:href="#DejaVuSans-74" x="2483.623047"/>
     <use xlink:href="#DejaVuSans-65" x="2522.832031"/>
     <use xlink:href="#DejaVuSans-72" x="2584.355469"/>
    </g>
   </g>
   <g id="legend_1">
    <g id="patch_7">
     <path d="M 179.8 122.28745 
L 298.440625 122.28745 
Q 300.440625 122.28745 300.440625 120.28745 
L 300.440625 91.9312 
Q 300.440625 89.9312 298.440625 89.9312 
L 179.8 89.9312 
Q 177.8 89.9312 177.8 91.9312 
L 177.8 120.28745 
Q 177.8 122.28745 179.8 122.28745 
z
" style="fill: #ffffff; opacity: 0.8; stroke: #cccccc; stroke-linejoin: miter"/>
    </g>
    <g id="line2d_35">
     <path d="M 181.8 98.029638 
L 191.8 98.029638 
L 201.8 98.029638 
" style="fill: none; stroke: #0000ff; stroke-width: 1.5; stroke-linecap: square"/>
    </g>
    <g id="text_20">
     <!-- Originaldaten -->
     <g transform="translate(209.8 101.529638)scale(0.1 -0.1)">
      <defs>
       <path id="DejaVuSans-4f" d="M 2522 4238 
Q 1834 4238 1429 3725 
Q 1025 3213 1025 2328 
Q 1025 1447 1429 934 
Q 1834 422 2522 422 
Q 3209 422 3611 934 
Q 4013 1447 4013 2328 
Q 4013 3213 3611 3725 
Q 3209 4238 2522 4238 
z
M 2522 4750 
Q 3503 4750 4090 4092 
Q 4678 3434 4678 2328 
Q 4678 1225 4090 567 
Q 3503 -91 2522 -91 
Q 1538 -91 948 565 
Q 359 1222 359 2328 
Q 359 3434 948 4092 
Q 1538 4750 2522 4750 
z
" transform="scale(0.015625)"/>
       <path id="DejaVuSans-67" d="M 2906 1791 
Q 2906 2416 2648 2759 
Q 2391 3103 1925 3103 
Q 1463 3103 1205 2759 
Q 947 2416 947 1791 
Q 947 1169 1205 825 
Q 1463 481 1925 481 
Q 2391 481 2648 825 
Q 2906 1169 2906 1791 
z
M 3481 434 
Q 3481 -459 3084 -895 
Q 2688 -1331 1869 -1331 
Q 1566 -1331 1297 -1286 
Q 1028 -1241 775 -1147 
L 775 -588 
Q 1028 -725 1275 -790 
Q 1522 -856 1778 -856 
Q 2344 -856 2625 -561 
Q 2906 -266 2906 331 
L 2906 616 
Q 2728 306 2450 153 
Q 2172 0 1784 0 
Q 1141 0 747 490 
Q 353 981 353 1791 
Q 353 2603 747 3093 
Q 1141 3584 1784 3584 
Q 2172 3584 2450 3431 
Q 2728 3278 2906 2969 
L 2906 3500 
L 3481 3500 
L 3481 434 
z
" transform="scale(0.015625)"/>
      </defs>
      <use xlink:href="#DejaVuSans-4f"/>
      <use xlink:href="#DejaVuSans-72" x="78.710938"/>
      <use xlink:href="#DejaVuSans-69" x="119.824219"/>
      <use xlink:href="#DejaVuSans-67" x="147.607422"/>
      <use xlink:href="#DejaVuSans-69" x="211.083984"/>
      <use xlink:href="#DejaVuSans-6e" x="238.867188"/>
      <use xlink:href="#DejaVuSans-61" x="302.246094"/>
      <use xlink:href="#DejaVuSans-6c" x="363.525391"/>
      <use xlink:href="#DejaVuSans-64" x="391.308594"/>
      <use xlink:href="#DejaVuSans-61" x="454.785156"/>
      <use xlink:href="#DejaVuSans-74" x="516.064453"/>
      <use xlink:href="#DejaVuSans-65" x="555.273438"/>
      <use xlink:href="#DejaVuSans-6e" x="616.796875"/>
     </g>
    </g>
    <g id="line2d_36">
     <path d="M 181.8 112.707763 
L 191.8 112.707763 
L 201.8 112.707763 
" style="fill: none; stroke: #ff0000; stroke-width: 1.5; stroke-linecap: square"/>
    </g>
    <g id="text_21">
     <!-- Geglättete Daten -->
     <g transform="translate(209.8 116.207763)scale(0.1 -0.1)">
      <defs>
       <path id="DejaVuSans-47" d="M 3809 666 
L 3809 1919 
L 2778 1919 
L 2778 2438 
L 4434 2438 
L 4434 434 
Q 4069 175 3628 42 
Q 3188 -91 2688 -91 
Q 1594 -91 976 548 
Q 359 1188 359 2328 
Q 359 3472 976 4111 
Q 1594 4750 2688 4750 
Q 3144 4750 3555 4637 
Q 3966 4525 4313 4306 
L 4313 3634 
Q 3963 3931 3569 4081 
Q 3175 4231 2741 4231 
Q 1884 4231 1454 3753 
Q 1025 3275 1025 2328 
Q 1025 1384 1454 906 
Q 1884 428 2741 428 
Q 3075 428 3337 486 
Q 3600 544 3809 666 
z
" transform="scale(0.015625)"/>
       <path id="DejaVuSans-e4" d="M 2194 1759 
Q 1497 1759 1228 1600 
Q 959 1441 959 1056 
Q 959 750 1161 570 
Q 1363 391 1709 391 
Q 2188 391 2477 730 
Q 2766 1069 2766 1631 
L 2766 1759 
L 2194 1759 
z
M 3341 1997 
L 3341 0 
L 2766 0 
L 2766 531 
Q 2569 213 2275 61 
Q 1981 -91 1556 -91 
Q 1019 -91 701 211 
Q 384 513 384 1019 
Q 384 1609 779 1909 
Q 1175 2209 1959 2209 
L 2766 2209 
L 2766 2266 
Q 2766 2663 2505 2880 
Q 2244 3097 1772 3097 
Q 1472 3097 1187 3025 
Q 903 2953 641 2809 
L 641 3341 
Q 956 3463 1253 3523 
Q 1550 3584 1831 3584 
Q 2591 3584 2966 3190 
Q 3341 2797 3341 1997 
z
M 2150 4850 
L 2784 4850 
L 2784 4219 
L 2150 4219 
L 2150 4850 
z
M 928 4850 
L 1562 4850 
L 1562 4219 
L 928 4219 
L 928 4850 
z
" transform="scale(0.015625)"/>
       <path id="DejaVuSans-44" d="M 1259 4147 
L 1259 519 
L 2022 519 
Q 2988 519 3436 956 
Q 3884 1394 3884 2338 
Q 3884 3275 3436 3711 
Q 2988 4147 2022 4147 
L 1259 4147 
z
M 628 4666 
L 1925 4666 
Q 3281 4666 3915 4102 
Q 4550 3538 4550 2338 
Q 4550 1131 3912 565 
Q 3275 0 1925 0 
L 628 0 
L 628 4666 
z
" transform="scale(0.015625)"/>
      </defs>
      <use xlink:href="#DejaVuSans-47"/>
      <use xlink:href="#DejaVuSans-65" x="77.490234"/>
      <use xlink:href="#DejaVuSans-67" x="139.013672"/>
      <use xlink:href="#DejaVuSans-6c" x="202.490234"/>
      <use xlink:href="#DejaVuSans-e4" x="230.273438"/>
      <use xlink:href="#DejaVuSans-74" x="291.552734"/>
      <use xlink:href="#DejaVuSans-74" x="330.761719"/>
      <use xlink:href="#DejaVuSans-65" x="369.970703"/>
      <use xlink:href="#DejaVuSans-74" x="431.494141"/>
      <use xlink:href="#DejaVuSans-65" x="470.703125"/>
      <use xlink:href="#DejaVuSans-20" x="532.226562"/>
      <use xlink:href="#DejaVuSans-44" x="564.013672"/>
      <use xlink:href="#DejaVuSans-61" x="641.015625"/>
      <use xlink:href="#DejaVuSans-74" x="702.294922"/>
      <use xlink:href="#DejaVuSans-65" x="741.503906"/>
      <use xlink:href="#DejaVuSans-6e" x="803.027344"/>
     </g>
    </g>
   </g>
  </g>
 </g>
 <defs>
  <clipPath id="pce6a2d24d4">
   <rect x="172.8" y="84.9312" width="1071.36" height="544.9752"/>
  </clipPath>
 </defs>
</svg>
