<?xml version="1.0" encoding="utf-8" standalone="no"?>
<!DOCTYPE svg PUBLIC "-//W3C//DTD SVG 1.1//EN"
  "http://www.w3.org/Graphics/SVG/1.1/DTD/svg11.dtd">
<svg xmlns:xlink="http://www.w3.org/1999/xlink" width="1382.4pt" height="707.76pt" viewBox="0 0 1382.4 707.76" xmlns="http://www.w3.org/2000/svg" version="1.1">
 <metadata>
  <rdf:RDF xmlns:dc="http://purl.org/dc/elements/1.1/" xmlns:cc="http://creativecommons.org/ns#" xmlns:rdf="http://www.w3.org/1999/02/22-rdf-syntax-ns#">
   <cc:Work>
    <dc:type rdf:resource="http://purl.org/dc/dcmitype/StillImage"/>
    <dc:date>2024-05-07T22:51:21.866673</dc:date>
    <dc:format>image/svg+xml</dc:format>
    <dc:creator>
     <cc:Agent>
      <dc:title>Matplotlib v3.5.1, https://matplotlib.org/</dc:title>
     </cc:Agent>
    </dc:creator>
   </cc:Work>
  </rdf:RDF>
 </metadata>
 <defs>
  <style type="text/css">*{stroke-linejoin: round; stroke-linecap: butt}</style>
 </defs>
 <g id="figure_1">
  <g id="patch_1">
   <path d="M 0 707.76 
L 1382.4 707.76 
L 1382.4 0 
L 0 0 
z
" style="fill: #ffffff"/>
  </g>
  <g id="axes_1">
   <g id="patch_2">
    <path d="M 172.8 629.9064 
L 1244.16 629.9064 
L 1244.16 84.9312 
L 172.8 84.9312 
z
" style="fill: #ffffff"/>
   </g>
   <g id="matplotlib.axis_1">
    <g id="xtick_1">
     <g id="line2d_1">
      <path d="M 221.498182 629.9064 
L 221.498182 84.9312 
" clip-path="url(#pb19c340e9a)" style="fill: none; stroke: #b0b0b0; stroke-width: 0.8; stroke-linecap: square"/>
     </g>
     <g id="line2d_2">
      <defs>
       <path id="m4f82f8fd21" d="M 0 0 
L 0 3.5 
" style="stroke: #000000; stroke-width: 0.8"/>
      </defs>
      <g>
       <use xlink:href="#m4f82f8fd21" x="221.498182" y="629.9064" style="stroke: #000000; stroke-width: 0.8"/>
      </g>
     </g>
     <g id="text_1">
      <!-- 0 -->
      <g transform="translate(218.316932 644.504838)scale(0.1 -0.1)">
       <defs>
        <path id="DejaVuSans-30" d="M 2034 4250 
Q 1547 4250 1301 3770 
Q 1056 3291 1056 2328 
Q 1056 1369 1301 889 
Q 1547 409 2034 409 
Q 2525 409 2770 889 
Q 3016 1369 3016 2328 
Q 3016 3291 2770 3770 
Q 2525 4250 2034 4250 
z
M 2034 4750 
Q 2819 4750 3233 4129 
Q 3647 3509 3647 2328 
Q 3647 1150 3233 529 
Q 2819 -91 2034 -91 
Q 1250 -91 836 529 
Q 422 1150 422 2328 
Q 422 3509 836 4129 
Q 1250 4750 2034 4750 
z
" transform="scale(0.015625)"/>
       </defs>
       <use xlink:href="#DejaVuSans-30"/>
      </g>
     </g>
    </g>
    <g id="xtick_2">
     <g id="line2d_3">
      <path d="M 346.365315 629.9064 
L 346.365315 84.9312 
" clip-path="url(#pb19c340e9a)" style="fill: none; stroke: #b0b0b0; stroke-width: 0.8; stroke-linecap: square"/>
     </g>
     <g id="line2d_4">
      <g>
       <use xlink:href="#m4f82f8fd21" x="346.365315" y="629.9064" style="stroke: #000000; stroke-width: 0.8"/>
      </g>
     </g>
     <g id="text_2">
      <!-- 25 -->
      <g transform="translate(340.002815 644.504838)scale(0.1 -0.1)">
       <defs>
        <path id="DejaVuSans-32" d="M 1228 531 
L 3431 531 
L 3431 0 
L 469 0 
L 469 531 
Q 828 903 1448 1529 
Q 2069 2156 2228 2338 
Q 2531 2678 2651 2914 
Q 2772 3150 2772 3378 
Q 2772 3750 2511 3984 
Q 2250 4219 1831 4219 
Q 1534 4219 1204 4116 
Q 875 4013 500 3803 
L 500 4441 
Q 881 4594 1212 4672 
Q 1544 4750 1819 4750 
Q 2544 4750 2975 4387 
Q 3406 4025 3406 3419 
Q 3406 3131 3298 2873 
Q 3191 2616 2906 2266 
Q 2828 2175 2409 1742 
Q 1991 1309 1228 531 
z
" transform="scale(0.015625)"/>
        <path id="DejaVuSans-35" d="M 691 4666 
L 3169 4666 
L 3169 4134 
L 1269 4134 
L 1269 2991 
Q 1406 3038 1543 3061 
Q 1681 3084 1819 3084 
Q 2600 3084 3056 2656 
Q 3513 2228 3513 1497 
Q 3513 744 3044 326 
Q 2575 -91 1722 -91 
Q 1428 -91 1123 -41 
Q 819 9 494 109 
L 494 744 
Q 775 591 1075 516 
Q 1375 441 1709 441 
Q 2250 441 2565 725 
Q 2881 1009 2881 1497 
Q 2881 1984 2565 2268 
Q 2250 2553 1709 2553 
Q 1456 2553 1204 2497 
Q 953 2441 691 2322 
L 691 4666 
z
" transform="scale(0.015625)"/>
       </defs>
       <use xlink:href="#DejaVuSans-32"/>
       <use xlink:href="#DejaVuSans-35" x="63.623047"/>
      </g>
     </g>
    </g>
    <g id="xtick_3">
     <g id="line2d_5">
      <path d="M 471.232448 629.9064 
L 471.232448 84.9312 
" clip-path="url(#pb19c340e9a)" style="fill: none; stroke: #b0b0b0; stroke-width: 0.8; stroke-linecap: square"/>
     </g>
     <g id="line2d_6">
      <g>
       <use xlink:href="#m4f82f8fd21" x="471.232448" y="629.9064" style="stroke: #000000; stroke-width: 0.8"/>
      </g>
     </g>
     <g id="text_3">
      <!-- 50 -->
      <g transform="translate(464.869948 644.504838)scale(0.1 -0.1)">
       <use xlink:href="#DejaVuSans-35"/>
       <use xlink:href="#DejaVuSans-30" x="63.623047"/>
      </g>
     </g>
    </g>
    <g id="xtick_4">
     <g id="line2d_7">
      <path d="M 596.09958 629.9064 
L 596.09958 84.9312 
" clip-path="url(#pb19c340e9a)" style="fill: none; stroke: #b0b0b0; stroke-width: 0.8; stroke-linecap: square"/>
     </g>
     <g id="line2d_8">
      <g>
       <use xlink:href="#m4f82f8fd21" x="596.09958" y="629.9064" style="stroke: #000000; stroke-width: 0.8"/>
      </g>
     </g>
     <g id="text_4">
      <!-- 75 -->
      <g transform="translate(589.73708 644.504838)scale(0.1 -0.1)">
       <defs>
        <path id="DejaVuSans-37" d="M 525 4666 
L 3525 4666 
L 3525 4397 
L 1831 0 
L 1172 0 
L 2766 4134 
L 525 4134 
L 525 4666 
z
" transform="scale(0.015625)"/>
       </defs>
       <use xlink:href="#DejaVuSans-37"/>
       <use xlink:href="#DejaVuSans-35" x="63.623047"/>
      </g>
     </g>
    </g>
    <g id="xtick_5">
     <g id="line2d_9">
      <path d="M 720.966713 629.9064 
L 720.966713 84.9312 
" clip-path="url(#pb19c340e9a)" style="fill: none; stroke: #b0b0b0; stroke-width: 0.8; stroke-linecap: square"/>
     </g>
     <g id="line2d_10">
      <g>
       <use xlink:href="#m4f82f8fd21" x="720.966713" y="629.9064" style="stroke: #000000; stroke-width: 0.8"/>
      </g>
     </g>
     <g id="text_5">
      <!-- 100 -->
      <g transform="translate(711.422963 644.504838)scale(0.1 -0.1)">
       <defs>
        <path id="DejaVuSans-31" d="M 794 531 
L 1825 531 
L 1825 4091 
L 703 3866 
L 703 4441 
L 1819 4666 
L 2450 4666 
L 2450 531 
L 3481 531 
L 3481 0 
L 794 0 
L 794 531 
z
" transform="scale(0.015625)"/>
       </defs>
       <use xlink:href="#DejaVuSans-31"/>
       <use xlink:href="#DejaVuSans-30" x="63.623047"/>
       <use xlink:href="#DejaVuSans-30" x="127.246094"/>
      </g>
     </g>
    </g>
    <g id="xtick_6">
     <g id="line2d_11">
      <path d="M 845.833846 629.9064 
L 845.833846 84.9312 
" clip-path="url(#pb19c340e9a)" style="fill: none; stroke: #b0b0b0; stroke-width: 0.8; stroke-linecap: square"/>
     </g>
     <g id="line2d_12">
      <g>
       <use xlink:href="#m4f82f8fd21" x="845.833846" y="629.9064" style="stroke: #000000; stroke-width: 0.8"/>
      </g>
     </g>
     <g id="text_6">
      <!-- 125 -->
      <g transform="translate(836.290096 644.504838)scale(0.1 -0.1)">
       <use xlink:href="#DejaVuSans-31"/>
       <use xlink:href="#DejaVuSans-32" x="63.623047"/>
       <use xlink:href="#DejaVuSans-35" x="127.246094"/>
      </g>
     </g>
    </g>
    <g id="xtick_7">
     <g id="line2d_13">
      <path d="M 970.700979 629.9064 
L 970.700979 84.9312 
" clip-path="url(#pb19c340e9a)" style="fill: none; stroke: #b0b0b0; stroke-width: 0.8; stroke-linecap: square"/>
     </g>
     <g id="line2d_14">
      <g>
       <use xlink:href="#m4f82f8fd21" x="970.700979" y="629.9064" style="stroke: #000000; stroke-width: 0.8"/>
      </g>
     </g>
     <g id="text_7">
      <!-- 150 -->
      <g transform="translate(961.157229 644.504838)scale(0.1 -0.1)">
       <use xlink:href="#DejaVuSans-31"/>
       <use xlink:href="#DejaVuSans-35" x="63.623047"/>
       <use xlink:href="#DejaVuSans-30" x="127.246094"/>
      </g>
     </g>
    </g>
    <g id="xtick_8">
     <g id="line2d_15">
      <path d="M 1095.568112 629.9064 
L 1095.568112 84.9312 
" clip-path="url(#pb19c340e9a)" style="fill: none; stroke: #b0b0b0; stroke-width: 0.8; stroke-linecap: square"/>
     </g>
     <g id="line2d_16">
      <g>
       <use xlink:href="#m4f82f8fd21" x="1095.568112" y="629.9064" style="stroke: #000000; stroke-width: 0.8"/>
      </g>
     </g>
     <g id="text_8">
      <!-- 175 -->
      <g transform="translate(1086.024362 644.504838)scale(0.1 -0.1)">
       <use xlink:href="#DejaVuSans-31"/>
       <use xlink:href="#DejaVuSans-37" x="63.623047"/>
       <use xlink:href="#DejaVuSans-35" x="127.246094"/>
      </g>
     </g>
    </g>
    <g id="xtick_9">
     <g id="line2d_17">
      <path d="M 1220.435245 629.9064 
L 1220.435245 84.9312 
" clip-path="url(#pb19c340e9a)" style="fill: none; stroke: #b0b0b0; stroke-width: 0.8; stroke-linecap: square"/>
     </g>
     <g id="line2d_18">
      <g>
       <use xlink:href="#m4f82f8fd21" x="1220.435245" y="629.9064" style="stroke: #000000; stroke-width: 0.8"/>
      </g>
     </g>
     <g id="text_9">
      <!-- 200 -->
      <g transform="translate(1210.891495 644.504838)scale(0.1 -0.1)">
       <use xlink:href="#DejaVuSans-32"/>
       <use xlink:href="#DejaVuSans-30" x="63.623047"/>
       <use xlink:href="#DejaVuSans-30" x="127.246094"/>
      </g>
     </g>
    </g>
    <g id="text_10">
     <!-- Measurement Number -->
     <g transform="translate(652.481562 658.182963)scale(0.1 -0.1)">
      <defs>
       <path id="DejaVuSans-4d" d="M 628 4666 
L 1569 4666 
L 2759 1491 
L 3956 4666 
L 4897 4666 
L 4897 0 
L 4281 0 
L 4281 4097 
L 3078 897 
L 2444 897 
L 1241 4097 
L 1241 0 
L 628 0 
L 628 4666 
z
" transform="scale(0.015625)"/>
       <path id="DejaVuSans-65" d="M 3597 1894 
L 3597 1613 
L 953 1613 
Q 991 1019 1311 708 
Q 1631 397 2203 397 
Q 2534 397 2845 478 
Q 3156 559 3463 722 
L 3463 178 
Q 3153 47 2828 -22 
Q 2503 -91 2169 -91 
Q 1331 -91 842 396 
Q 353 884 353 1716 
Q 353 2575 817 3079 
Q 1281 3584 2069 3584 
Q 2775 3584 3186 3129 
Q 3597 2675 3597 1894 
z
M 3022 2063 
Q 3016 2534 2758 2815 
Q 2500 3097 2075 3097 
Q 1594 3097 1305 2825 
Q 1016 2553 972 2059 
L 3022 2063 
z
" transform="scale(0.015625)"/>
       <path id="DejaVuSans-61" d="M 2194 1759 
Q 1497 1759 1228 1600 
Q 959 1441 959 1056 
Q 959 750 1161 570 
Q 1363 391 1709 391 
Q 2188 391 2477 730 
Q 2766 1069 2766 1631 
L 2766 1759 
L 2194 1759 
z
M 3341 1997 
L 3341 0 
L 2766 0 
L 2766 531 
Q 2569 213 2275 61 
Q 1981 -91 1556 -91 
Q 1019 -91 701 211 
Q 384 513 384 1019 
Q 384 1609 779 1909 
Q 1175 2209 1959 2209 
L 2766 2209 
L 2766 2266 
Q 2766 2663 2505 2880 
Q 2244 3097 1772 3097 
Q 1472 3097 1187 3025 
Q 903 2953 641 2809 
L 641 3341 
Q 956 3463 1253 3523 
Q 1550 3584 1831 3584 
Q 2591 3584 2966 3190 
Q 3341 2797 3341 1997 
z
" transform="scale(0.015625)"/>
       <path id="DejaVuSans-73" d="M 2834 3397 
L 2834 2853 
Q 2591 2978 2328 3040 
Q 2066 3103 1784 3103 
Q 1356 3103 1142 2972 
Q 928 2841 928 2578 
Q 928 2378 1081 2264 
Q 1234 2150 1697 2047 
L 1894 2003 
Q 2506 1872 2764 1633 
Q 3022 1394 3022 966 
Q 3022 478 2636 193 
Q 2250 -91 1575 -91 
Q 1294 -91 989 -36 
Q 684 19 347 128 
L 347 722 
Q 666 556 975 473 
Q 1284 391 1588 391 
Q 1994 391 2212 530 
Q 2431 669 2431 922 
Q 2431 1156 2273 1281 
Q 2116 1406 1581 1522 
L 1381 1569 
Q 847 1681 609 1914 
Q 372 2147 372 2553 
Q 372 3047 722 3315 
Q 1072 3584 1716 3584 
Q 2034 3584 2315 3537 
Q 2597 3491 2834 3397 
z
" transform="scale(0.015625)"/>
       <path id="DejaVuSans-75" d="M 544 1381 
L 544 3500 
L 1119 3500 
L 1119 1403 
Q 1119 906 1312 657 
Q 1506 409 1894 409 
Q 2359 409 2629 706 
Q 2900 1003 2900 1516 
L 2900 3500 
L 3475 3500 
L 3475 0 
L 2900 0 
L 2900 538 
Q 2691 219 2414 64 
Q 2138 -91 1772 -91 
Q 1169 -91 856 284 
Q 544 659 544 1381 
z
M 1991 3584 
L 1991 3584 
z
" transform="scale(0.015625)"/>
       <path id="DejaVuSans-72" d="M 2631 2963 
Q 2534 3019 2420 3045 
Q 2306 3072 2169 3072 
Q 1681 3072 1420 2755 
Q 1159 2438 1159 1844 
L 1159 0 
L 581 0 
L 581 3500 
L 1159 3500 
L 1159 2956 
Q 1341 3275 1631 3429 
Q 1922 3584 2338 3584 
Q 2397 3584 2469 3576 
Q 2541 3569 2628 3553 
L 2631 2963 
z
" transform="scale(0.015625)"/>
       <path id="DejaVuSans-6d" d="M 3328 2828 
Q 3544 3216 3844 3400 
Q 4144 3584 4550 3584 
Q 5097 3584 5394 3201 
Q 5691 2819 5691 2113 
L 5691 0 
L 5113 0 
L 5113 2094 
Q 5113 2597 4934 2840 
Q 4756 3084 4391 3084 
Q 3944 3084 3684 2787 
Q 3425 2491 3425 1978 
L 3425 0 
L 2847 0 
L 2847 2094 
Q 2847 2600 2669 2842 
Q 2491 3084 2119 3084 
Q 1678 3084 1418 2786 
Q 1159 2488 1159 1978 
L 1159 0 
L 581 0 
L 581 3500 
L 1159 3500 
L 1159 2956 
Q 1356 3278 1631 3431 
Q 1906 3584 2284 3584 
Q 2666 3584 2933 3390 
Q 3200 3197 3328 2828 
z
" transform="scale(0.015625)"/>
       <path id="DejaVuSans-6e" d="M 3513 2113 
L 3513 0 
L 2938 0 
L 2938 2094 
Q 2938 2591 2744 2837 
Q 2550 3084 2163 3084 
Q 1697 3084 1428 2787 
Q 1159 2491 1159 1978 
L 1159 0 
L 581 0 
L 581 3500 
L 1159 3500 
L 1159 2956 
Q 1366 3272 1645 3428 
Q 1925 3584 2291 3584 
Q 2894 3584 3203 3211 
Q 3513 2838 3513 2113 
z
" transform="scale(0.015625)"/>
       <path id="DejaVuSans-74" d="M 1172 4494 
L 1172 3500 
L 2356 3500 
L 2356 3053 
L 1172 3053 
L 1172 1153 
Q 1172 725 1289 603 
Q 1406 481 1766 481 
L 2356 481 
L 2356 0 
L 1766 0 
Q 1100 0 847 248 
Q 594 497 594 1153 
L 594 3053 
L 172 3053 
L 172 3500 
L 594 3500 
L 594 4494 
L 1172 4494 
z
" transform="scale(0.015625)"/>
       <path id="DejaVuSans-20" transform="scale(0.015625)"/>
       <path id="DejaVuSans-4e" d="M 628 4666 
L 1478 4666 
L 3547 763 
L 3547 4666 
L 4159 4666 
L 4159 0 
L 3309 0 
L 1241 3903 
L 1241 0 
L 628 0 
L 628 4666 
z
" transform="scale(0.015625)"/>
       <path id="DejaVuSans-62" d="M 3116 1747 
Q 3116 2381 2855 2742 
Q 2594 3103 2138 3103 
Q 1681 3103 1420 2742 
Q 1159 2381 1159 1747 
Q 1159 1113 1420 752 
Q 1681 391 2138 391 
Q 2594 391 2855 752 
Q 3116 1113 3116 1747 
z
M 1159 2969 
Q 1341 3281 1617 3432 
Q 1894 3584 2278 3584 
Q 2916 3584 3314 3078 
Q 3713 2572 3713 1747 
Q 3713 922 3314 415 
Q 2916 -91 2278 -91 
Q 1894 -91 1617 61 
Q 1341 213 1159 525 
L 1159 0 
L 581 0 
L 581 4863 
L 1159 4863 
L 1159 2969 
z
" transform="scale(0.015625)"/>
      </defs>
      <use xlink:href="#DejaVuSans-4d"/>
      <use xlink:href="#DejaVuSans-65" x="86.279297"/>
      <use xlink:href="#DejaVuSans-61" x="147.802734"/>
      <use xlink:href="#DejaVuSans-73" x="209.082031"/>
      <use xlink:href="#DejaVuSans-75" x="261.181641"/>
      <use xlink:href="#DejaVuSans-72" x="324.560547"/>
      <use xlink:href="#DejaVuSans-65" x="363.423828"/>
      <use xlink:href="#DejaVuSans-6d" x="424.947266"/>
      <use xlink:href="#DejaVuSans-65" x="522.359375"/>
      <use xlink:href="#DejaVuSans-6e" x="583.882812"/>
      <use xlink:href="#DejaVuSans-74" x="647.261719"/>
      <use xlink:href="#DejaVuSans-20" x="686.470703"/>
      <use xlink:href="#DejaVuSans-4e" x="718.257812"/>
      <use xlink:href="#DejaVuSans-75" x="793.0625"/>
      <use xlink:href="#DejaVuSans-6d" x="856.441406"/>
      <use xlink:href="#DejaVuSans-62" x="953.853516"/>
      <use xlink:href="#DejaVuSans-65" x="1017.330078"/>
      <use xlink:href="#DejaVuSans-72" x="1078.853516"/>
     </g>
    </g>
   </g>
   <g id="matplotlib.axis_2">
    <g id="ytick_1">
     <g id="line2d_19">
      <path d="M 172.8 602.516425 
L 1244.16 602.516425 
" clip-path="url(#pb19c340e9a)" style="fill: none; stroke: #b0b0b0; stroke-width: 0.8; stroke-linecap: square"/>
     </g>
     <g id="line2d_20">
      <defs>
       <path id="m47752b679e" d="M 0 0 
L -3.5 0 
" style="stroke: #000000; stroke-width: 0.8"/>
      </defs>
      <g>
       <use xlink:href="#m47752b679e" x="172.8" y="602.516425" style="stroke: #000000; stroke-width: 0.8"/>
      </g>
     </g>
     <g id="text_11">
      <!-- 22.8 -->
      <g transform="translate(143.534375 606.315643)scale(0.1 -0.1)">
       <defs>
        <path id="DejaVuSans-2e" d="M 684 794 
L 1344 794 
L 1344 0 
L 684 0 
L 684 794 
z
" transform="scale(0.015625)"/>
        <path id="DejaVuSans-38" d="M 2034 2216 
Q 1584 2216 1326 1975 
Q 1069 1734 1069 1313 
Q 1069 891 1326 650 
Q 1584 409 2034 409 
Q 2484 409 2743 651 
Q 3003 894 3003 1313 
Q 3003 1734 2745 1975 
Q 2488 2216 2034 2216 
z
M 1403 2484 
Q 997 2584 770 2862 
Q 544 3141 544 3541 
Q 544 4100 942 4425 
Q 1341 4750 2034 4750 
Q 2731 4750 3128 4425 
Q 3525 4100 3525 3541 
Q 3525 3141 3298 2862 
Q 3072 2584 2669 2484 
Q 3125 2378 3379 2068 
Q 3634 1759 3634 1313 
Q 3634 634 3220 271 
Q 2806 -91 2034 -91 
Q 1263 -91 848 271 
Q 434 634 434 1313 
Q 434 1759 690 2068 
Q 947 2378 1403 2484 
z
M 1172 3481 
Q 1172 3119 1398 2916 
Q 1625 2713 2034 2713 
Q 2441 2713 2670 2916 
Q 2900 3119 2900 3481 
Q 2900 3844 2670 4047 
Q 2441 4250 2034 4250 
Q 1625 4250 1398 4047 
Q 1172 3844 1172 3481 
z
" transform="scale(0.015625)"/>
       </defs>
       <use xlink:href="#DejaVuSans-32"/>
       <use xlink:href="#DejaVuSans-32" x="63.623047"/>
       <use xlink:href="#DejaVuSans-2e" x="127.246094"/>
       <use xlink:href="#DejaVuSans-38" x="159.033203"/>
      </g>
     </g>
    </g>
    <g id="ytick_2">
     <g id="line2d_21">
      <path d="M 172.8 521.727306 
L 1244.16 521.727306 
" clip-path="url(#pb19c340e9a)" style="fill: none; stroke: #b0b0b0; stroke-width: 0.8; stroke-linecap: square"/>
     </g>
     <g id="line2d_22">
      <g>
       <use xlink:href="#m47752b679e" x="172.8" y="521.727306" style="stroke: #000000; stroke-width: 0.8"/>
      </g>
     </g>
     <g id="text_12">
      <!-- 22.9 -->
      <g transform="translate(143.534375 525.526525)scale(0.1 -0.1)">
       <defs>
        <path id="DejaVuSans-39" d="M 703 97 
L 703 672 
Q 941 559 1184 500 
Q 1428 441 1663 441 
Q 2288 441 2617 861 
Q 2947 1281 2994 2138 
Q 2813 1869 2534 1725 
Q 2256 1581 1919 1581 
Q 1219 1581 811 2004 
Q 403 2428 403 3163 
Q 403 3881 828 4315 
Q 1253 4750 1959 4750 
Q 2769 4750 3195 4129 
Q 3622 3509 3622 2328 
Q 3622 1225 3098 567 
Q 2575 -91 1691 -91 
Q 1453 -91 1209 -44 
Q 966 3 703 97 
z
M 1959 2075 
Q 2384 2075 2632 2365 
Q 2881 2656 2881 3163 
Q 2881 3666 2632 3958 
Q 2384 4250 1959 4250 
Q 1534 4250 1286 3958 
Q 1038 3666 1038 3163 
Q 1038 2656 1286 2365 
Q 1534 2075 1959 2075 
z
" transform="scale(0.015625)"/>
       </defs>
       <use xlink:href="#DejaVuSans-32"/>
       <use xlink:href="#DejaVuSans-32" x="63.623047"/>
       <use xlink:href="#DejaVuSans-2e" x="127.246094"/>
       <use xlink:href="#DejaVuSans-39" x="159.033203"/>
      </g>
     </g>
    </g>
    <g id="ytick_3">
     <g id="line2d_23">
      <path d="M 172.8 440.938187 
L 1244.16 440.938187 
" clip-path="url(#pb19c340e9a)" style="fill: none; stroke: #b0b0b0; stroke-width: 0.8; stroke-linecap: square"/>
     </g>
     <g id="line2d_24">
      <g>
       <use xlink:href="#m47752b679e" x="172.8" y="440.938187" style="stroke: #000000; stroke-width: 0.8"/>
      </g>
     </g>
     <g id="text_13">
      <!-- 23.0 -->
      <g transform="translate(143.534375 444.737406)scale(0.1 -0.1)">
       <defs>
        <path id="DejaVuSans-33" d="M 2597 2516 
Q 3050 2419 3304 2112 
Q 3559 1806 3559 1356 
Q 3559 666 3084 287 
Q 2609 -91 1734 -91 
Q 1441 -91 1130 -33 
Q 819 25 488 141 
L 488 750 
Q 750 597 1062 519 
Q 1375 441 1716 441 
Q 2309 441 2620 675 
Q 2931 909 2931 1356 
Q 2931 1769 2642 2001 
Q 2353 2234 1838 2234 
L 1294 2234 
L 1294 2753 
L 1863 2753 
Q 2328 2753 2575 2939 
Q 2822 3125 2822 3475 
Q 2822 3834 2567 4026 
Q 2313 4219 1838 4219 
Q 1578 4219 1281 4162 
Q 984 4106 628 3988 
L 628 4550 
Q 988 4650 1302 4700 
Q 1616 4750 1894 4750 
Q 2613 4750 3031 4423 
Q 3450 4097 3450 3541 
Q 3450 3153 3228 2886 
Q 3006 2619 2597 2516 
z
" transform="scale(0.015625)"/>
       </defs>
       <use xlink:href="#DejaVuSans-32"/>
       <use xlink:href="#DejaVuSans-33" x="63.623047"/>
       <use xlink:href="#DejaVuSans-2e" x="127.246094"/>
       <use xlink:href="#DejaVuSans-30" x="159.033203"/>
      </g>
     </g>
    </g>
    <g id="ytick_4">
     <g id="line2d_25">
      <path d="M 172.8 360.149068 
L 1244.16 360.149068 
" clip-path="url(#pb19c340e9a)" style="fill: none; stroke: #b0b0b0; stroke-width: 0.8; stroke-linecap: square"/>
     </g>
     <g id="line2d_26">
      <g>
       <use xlink:href="#m47752b679e" x="172.8" y="360.149068" style="stroke: #000000; stroke-width: 0.8"/>
      </g>
     </g>
     <g id="text_14">
      <!-- 23.1 -->
      <g transform="translate(143.534375 363.948287)scale(0.1 -0.1)">
       <use xlink:href="#DejaVuSans-32"/>
       <use xlink:href="#DejaVuSans-33" x="63.623047"/>
       <use xlink:href="#DejaVuSans-2e" x="127.246094"/>
       <use xlink:href="#DejaVuSans-31" x="159.033203"/>
      </g>
     </g>
    </g>
    <g id="ytick_5">
     <g id="line2d_27">
      <path d="M 172.8 279.359949 
L 1244.16 279.359949 
" clip-path="url(#pb19c340e9a)" style="fill: none; stroke: #b0b0b0; stroke-width: 0.8; stroke-linecap: square"/>
     </g>
     <g id="line2d_28">
      <g>
       <use xlink:href="#m47752b679e" x="172.8" y="279.359949" style="stroke: #000000; stroke-width: 0.8"/>
      </g>
     </g>
     <g id="text_15">
      <!-- 23.2 -->
      <g transform="translate(143.534375 283.159168)scale(0.1 -0.1)">
       <use xlink:href="#DejaVuSans-32"/>
       <use xlink:href="#DejaVuSans-33" x="63.623047"/>
       <use xlink:href="#DejaVuSans-2e" x="127.246094"/>
       <use xlink:href="#DejaVuSans-32" x="159.033203"/>
      </g>
     </g>
    </g>
    <g id="ytick_6">
     <g id="line2d_29">
      <path d="M 172.8 198.570831 
L 1244.16 198.570831 
" clip-path="url(#pb19c340e9a)" style="fill: none; stroke: #b0b0b0; stroke-width: 0.8; stroke-linecap: square"/>
     </g>
     <g id="line2d_30">
      <g>
       <use xlink:href="#m47752b679e" x="172.8" y="198.570831" style="stroke: #000000; stroke-width: 0.8"/>
      </g>
     </g>
     <g id="text_16">
      <!-- 23.3 -->
      <g transform="translate(143.534375 202.370049)scale(0.1 -0.1)">
       <use xlink:href="#DejaVuSans-32"/>
       <use xlink:href="#DejaVuSans-33" x="63.623047"/>
       <use xlink:href="#DejaVuSans-2e" x="127.246094"/>
       <use xlink:href="#DejaVuSans-33" x="159.033203"/>
      </g>
     </g>
    </g>
    <g id="ytick_7">
     <g id="line2d_31">
      <path d="M 172.8 117.781712 
L 1244.16 117.781712 
" clip-path="url(#pb19c340e9a)" style="fill: none; stroke: #b0b0b0; stroke-width: 0.8; stroke-linecap: square"/>
     </g>
     <g id="line2d_32">
      <g>
       <use xlink:href="#m47752b679e" x="172.8" y="117.781712" style="stroke: #000000; stroke-width: 0.8"/>
      </g>
     </g>
     <g id="text_17">
      <!-- 23.4 -->
      <g transform="translate(143.534375 121.580931)scale(0.1 -0.1)">
       <defs>
        <path id="DejaVuSans-34" d="M 2419 4116 
L 825 1625 
L 2419 1625 
L 2419 4116 
z
M 2253 4666 
L 3047 4666 
L 3047 1625 
L 3713 1625 
L 3713 1100 
L 3047 1100 
L 3047 0 
L 2419 0 
L 2419 1100 
L 313 1100 
L 313 1709 
L 2253 4666 
z
" transform="scale(0.015625)"/>
       </defs>
       <use xlink:href="#DejaVuSans-32"/>
       <use xlink:href="#DejaVuSans-33" x="63.623047"/>
       <use xlink:href="#DejaVuSans-2e" x="127.246094"/>
       <use xlink:href="#DejaVuSans-34" x="159.033203"/>
      </g>
     </g>
    </g>
    <g id="text_18">
     <!-- Measurement (cm) -->
     <g transform="translate(137.454687 404.852394)rotate(-90)scale(0.1 -0.1)">
      <defs>
       <path id="DejaVuSans-28" d="M 1984 4856 
Q 1566 4138 1362 3434 
Q 1159 2731 1159 2009 
Q 1159 1288 1364 580 
Q 1569 -128 1984 -844 
L 1484 -844 
Q 1016 -109 783 600 
Q 550 1309 550 2009 
Q 550 2706 781 3412 
Q 1013 4119 1484 4856 
L 1984 4856 
z
" transform="scale(0.015625)"/>
       <path id="DejaVuSans-63" d="M 3122 3366 
L 3122 2828 
Q 2878 2963 2633 3030 
Q 2388 3097 2138 3097 
Q 1578 3097 1268 2742 
Q 959 2388 959 1747 
Q 959 1106 1268 751 
Q 1578 397 2138 397 
Q 2388 397 2633 464 
Q 2878 531 3122 666 
L 3122 134 
Q 2881 22 2623 -34 
Q 2366 -91 2075 -91 
Q 1284 -91 818 406 
Q 353 903 353 1747 
Q 353 2603 823 3093 
Q 1294 3584 2113 3584 
Q 2378 3584 2631 3529 
Q 2884 3475 3122 3366 
z
" transform="scale(0.015625)"/>
       <path id="DejaVuSans-29" d="M 513 4856 
L 1013 4856 
Q 1481 4119 1714 3412 
Q 1947 2706 1947 2009 
Q 1947 1309 1714 600 
Q 1481 -109 1013 -844 
L 513 -844 
Q 928 -128 1133 580 
Q 1338 1288 1338 2009 
Q 1338 2731 1133 3434 
Q 928 4138 513 4856 
z
" transform="scale(0.015625)"/>
      </defs>
      <use xlink:href="#DejaVuSans-4d"/>
      <use xlink:href="#DejaVuSans-65" x="86.279297"/>
      <use xlink:href="#DejaVuSans-61" x="147.802734"/>
      <use xlink:href="#DejaVuSans-73" x="209.082031"/>
      <use xlink:href="#DejaVuSans-75" x="261.181641"/>
      <use xlink:href="#DejaVuSans-72" x="324.560547"/>
      <use xlink:href="#DejaVuSans-65" x="363.423828"/>
      <use xlink:href="#DejaVuSans-6d" x="424.947266"/>
      <use xlink:href="#DejaVuSans-65" x="522.359375"/>
      <use xlink:href="#DejaVuSans-6e" x="583.882812"/>
      <use xlink:href="#DejaVuSans-74" x="647.261719"/>
      <use xlink:href="#DejaVuSans-20" x="686.470703"/>
      <use xlink:href="#DejaVuSans-28" x="718.257812"/>
      <use xlink:href="#DejaVuSans-63" x="757.271484"/>
      <use xlink:href="#DejaVuSans-6d" x="812.251953"/>
      <use xlink:href="#DejaVuSans-29" x="909.664062"/>
     </g>
    </g>
   </g>
   <g id="line2d_33">
    <path d="M 221.498182 570.200777 
L 226.492867 214.728654 
L 231.487552 481.332746 
L 236.482238 133.939536 
L 241.476923 594.437513 
L 246.471608 174.334095 
L 251.466294 133.939536 
L 256.460979 513.648394 
L 261.455664 594.437513 
L 266.45035 465.174923 
L 271.445035 457.096011 
L 276.43972 465.174923 
L 281.434406 554.042953 
L 286.429091 465.174923 
L 296.418462 465.174923 
L 301.413147 554.042953 
L 306.407832 465.174923 
L 316.397203 465.174923 
L 321.391888 554.042953 
L 326.386573 465.174923 
L 331.381259 465.174923 
L 336.375944 497.49057 
L 341.370629 554.042953 
L 346.365315 513.648394 
L 351.36 166.255183 
L 356.354685 457.096011 
L 361.349371 554.042953 
L 366.344056 465.174923 
L 371.338741 465.174923 
L 376.333427 537.88513 
L 381.328112 554.042953 
L 386.322797 465.174923 
L 391.317483 465.174923 
L 396.312168 554.042953 
L 401.306853 554.042953 
L 406.301538 465.174923 
L 411.296224 465.174923 
L 416.290909 554.042953 
L 421.285594 554.042953 
L 426.28028 133.939536 
L 431.274965 465.174923 
L 436.26965 214.728654 
L 441.264336 481.332746 
L 446.259021 481.332746 
L 451.253706 465.174923 
L 456.248392 570.200777 
L 461.243077 481.332746 
L 466.237762 465.174923 
L 471.232448 465.174923 
L 476.227133 570.200777 
L 481.221818 174.334095 
L 486.216503 481.332746 
L 491.211189 481.332746 
L 496.205874 570.200777 
L 501.200559 481.332746 
L 506.195245 481.332746 
L 511.18993 465.174923 
L 516.184615 570.200777 
L 521.179301 497.49057 
L 526.173986 465.174923 
L 531.168671 465.174923 
L 536.163357 570.200777 
L 541.158042 465.174923 
L 546.152727 465.174923 
L 551.147413 481.332746 
L 556.142098 570.200777 
L 561.136783 481.332746 
L 566.131469 465.174923 
L 571.126154 465.174923 
L 576.120839 570.200777 
L 581.115524 465.174923 
L 591.104895 465.174923 
L 596.09958 554.042953 
L 601.094266 465.174923 
L 606.088951 465.174923 
L 611.083636 570.200777 
L 616.078322 570.200777 
L 621.073007 117.781712 
L 626.067692 465.174923 
L 631.062378 554.042953 
L 636.057063 570.200777 
L 641.051748 481.332746 
L 646.046434 481.332746 
L 651.041119 570.200777 
L 656.035804 570.200777 
L 661.03049 481.332746 
L 666.025175 481.332746 
L 671.01986 570.200777 
L 676.014545 570.200777 
L 681.009231 481.332746 
L 686.003916 481.332746 
L 690.998601 570.200777 
L 695.993287 570.200777 
L 700.987972 481.332746 
L 705.982657 481.332746 
L 710.977343 570.200777 
L 715.972028 570.200777 
L 720.966713 481.332746 
L 725.961399 481.332746 
L 730.956084 570.200777 
L 735.950769 570.200777 
L 740.945455 465.174923 
L 745.94014 465.174923 
L 750.934825 554.042953 
L 755.92951 465.174923 
L 765.918881 465.174923 
L 770.913566 554.042953 
L 775.908252 117.781712 
L 780.902937 497.49057 
L 785.897622 457.096011 
L 790.892308 554.042953 
L 795.886993 457.096011 
L 800.881678 465.174923 
L 805.876364 457.096011 
L 810.871049 554.042953 
L 815.865734 465.174923 
L 820.86042 465.174923 
L 825.855105 457.096011 
L 830.84979 570.200777 
L 835.844476 481.332746 
L 840.839161 465.174923 
L 845.833846 465.174923 
L 850.828531 554.042953 
L 855.823217 481.332746 
L 860.817902 481.332746 
L 865.812587 465.174923 
L 870.807273 570.200777 
L 875.801958 481.332746 
L 880.796643 465.174923 
L 885.791329 481.332746 
L 890.786014 570.200777 
L 895.780699 481.332746 
L 900.775385 481.332746 
L 905.77007 465.174923 
L 910.764755 554.042953 
L 915.759441 481.332746 
L 920.754126 133.939536 
L 925.748811 481.332746 
L 930.743497 594.437513 
L 935.738182 481.332746 
L 940.732867 465.174923 
L 945.727552 481.332746 
L 950.722238 594.437513 
L 955.716923 481.332746 
L 960.711608 481.332746 
L 965.706294 554.042953 
L 970.700979 570.200777 
L 975.695664 481.332746 
L 980.69035 481.332746 
L 985.685035 570.200777 
L 990.67972 554.042953 
L 995.674406 481.332746 
L 1000.669091 109.7028 
L 1005.663776 570.200777 
L 1010.658462 570.200777 
L 1015.653147 481.332746 
L 1020.647832 481.332746 
L 1025.642517 570.200777 
L 1030.637203 554.042953 
L 1035.631888 481.332746 
L 1040.626573 440.938187 
L 1045.621259 537.88513 
L 1050.615944 521.727306 
L 1055.610629 440.938187 
L 1060.605315 440.938187 
L 1065.6 206.649743 
L 1070.594685 481.332746 
L 1075.589371 465.174923 
L 1080.584056 481.332746 
L 1085.578741 190.491919 
L 1090.573427 481.332746 
L 1095.568112 465.174923 
L 1100.562797 481.332746 
L 1105.557483 230.886478 
L 1110.552168 465.174923 
L 1115.546853 109.7028 
L 1120.541538 481.332746 
L 1125.536224 570.200777 
L 1130.530909 440.938187 
L 1135.525594 150.097359 
L 1140.52028 481.332746 
L 1145.514965 570.200777 
L 1150.50965 481.332746 
L 1160.499021 481.332746 
L 1165.493706 570.200777 
L 1170.488392 481.332746 
L 1175.483077 481.332746 
L 1180.477762 465.174923 
L 1185.472448 570.200777 
L 1190.467133 481.332746 
L 1195.461818 465.174923 
L 1195.461818 465.174923 
" clip-path="url(#pb19c340e9a)" style="fill: none; stroke: #0000ff; stroke-width: 1.5; stroke-linecap: square"/>
   </g>
   <g id="line2d_34">
    <path d="M 221.498182 605.1348 
L 226.492867 409.931323 
L 231.487552 445.632035 
L 236.482238 289.784977 
L 241.476923 442.112053 
L 246.471608 308.224286 
L 251.466294 221.081103 
L 256.460979 367.365152 
L 261.455664 480.900525 
L 271.445035 465.067473 
L 276.43972 465.121602 
L 281.434406 509.582278 
L 286.429091 487.379004 
L 291.423776 476.277771 
L 296.418462 470.727559 
L 301.413147 512.384852 
L 306.407832 488.781503 
L 311.402517 476.978213 
L 316.397203 471.07576 
L 321.391888 512.559357 
L 326.386573 488.86714 
L 331.381259 477.020223 
L 336.375944 487.255397 
L 341.370629 520.648771 
L 346.365315 517.149794 
L 351.36 341.702489 
L 356.354685 399.399654 
L 361.349371 476.721304 
L 366.344056 470.949729 
L 371.338741 468.061518 
L 376.333427 502.97292 
L 381.328112 528.507937 
L 386.322797 496.841834 
L 391.317483 481.008782 
L 396.312168 517.525464 
L 401.306853 535.784613 
L 406.301538 500.479768 
L 411.296224 482.827345 
L 416.290909 518.434341 
L 421.285594 536.238647 
L 426.28028 335.088284 
L 431.274965 400.131603 
L 436.26965 307.428513 
L 441.264336 394.380226 
L 446.259021 437.856082 
L 451.253706 451.515098 
L 456.248392 510.857938 
L 461.243077 496.094534 
L 466.237762 480.635536 
L 471.232448 472.906441 
L 476.227133 521.553609 
L 481.221818 347.943448 
L 486.216503 414.637289 
L 491.211189 447.984614 
L 496.205874 509.093503 
L 501.200559 495.212317 
L 506.195245 488.272532 
L 511.18993 476.724535 
L 516.184615 523.462656 
L 521.179301 510.477421 
L 526.173986 487.825768 
L 531.168671 476.499941 
L 536.163357 523.350359 
L 541.158042 494.263853 
L 546.152727 479.720196 
L 551.147413 480.526471 
L 556.142098 525.362816 
L 561.136783 503.347781 
L 566.131469 484.261352 
L 571.126154 474.718541 
L 576.120839 522.459255 
L 581.115524 493.817089 
L 586.11021 479.495602 
L 591.104895 472.33607 
L 596.09958 513.189512 
L 601.094266 489.181409 
L 606.088951 477.177762 
L 611.083636 523.688866 
L 616.078322 546.944821 
L 621.073007 332.364075 
L 626.067692 398.768691 
L 631.062378 476.405418 
L 636.057063 523.304309 
L 641.051748 502.31772 
L 646.046434 491.825637 
L 651.041119 531.013207 
L 656.035804 550.606184 
L 661.03049 515.969465 
L 666.025175 498.650702 
L 671.01986 534.426547 
L 676.014545 552.314066 
L 681.009231 516.823406 
L 686.003916 499.077269 
L 690.998601 534.639023 
L 695.993287 552.419092 
L 700.987972 516.875111 
L 705.982657 499.103929 
L 710.977343 534.651141 
L 715.972028 552.426363 
L 720.966713 516.878343 
L 725.961399 499.105545 
L 730.956084 534.653565 
L 735.950769 552.427171 
L 740.945455 508.801047 
L 745.94014 486.987985 
L 750.934825 520.515469 
L 755.92951 492.845196 
L 760.924196 479.011675 
L 765.918881 472.092895 
L 770.913566 513.06752 
L 775.908252 315.424212 
L 780.902937 406.458199 
L 785.897622 431.776701 
L 790.892308 492.910635 
L 795.886993 475.003727 
L 800.881678 470.089325 
L 805.876364 463.593072 
L 810.871049 508.817205 
L 815.865734 486.996064 
L 820.86042 476.087109 
L 825.855105 466.591964 
L 830.84979 518.39637 
L 835.844476 499.863347 
L 840.839161 482.518731 
L 845.833846 473.846019 
L 850.828531 513.944082 
L 855.823217 497.638414 
L 860.817902 489.485176 
L 865.812587 477.330454 
L 870.807273 523.766423 
L 875.801958 502.549585 
L 880.796643 483.862254 
L 885.791329 482.597096 
L 890.786014 526.398533 
L 895.780699 503.864832 
L 900.775385 492.599597 
L 905.77007 478.888068 
L 910.764755 516.465511 
L 915.759441 498.898725 
L 920.754126 316.418726 
L 925.748811 398.875332 
L 930.743497 496.656827 
L 935.738182 488.993979 
L 940.732867 477.085662 
L 945.727552 479.207993 
L 950.722238 536.824368 
L 955.716923 509.078154 
L 960.711608 495.205046 
L 965.706294 524.622788 
L 970.700979 547.411783 
L 975.695664 514.373072 
L 980.69035 497.852505 
L 985.685035 534.025833 
L 990.67972 544.033989 
L 995.674406 512.683772 
L 1000.669091 311.193286 
L 1005.663776 440.697435 
L 1010.658462 505.449106 
L 1015.653147 493.39133 
L 1020.647832 487.362038 
L 1025.642517 528.780196 
L 1030.637203 541.411575 
L 1035.631888 511.370949 
L 1040.626573 476.154164 
L 1045.621259 507.019647 
L 1050.615944 514.373072 
L 1055.610629 477.655226 
L 1060.605315 459.296706 
L 1065.6 332.973224 
L 1070.594685 407.152178 
L 1075.589371 436.164358 
L 1080.584056 458.748148 
L 1085.578741 324.61963 
L 1090.573427 402.97538 
L 1095.568112 434.075151 
L 1100.562797 457.703545 
L 1105.557483 344.294204 
L 1110.552168 404.735775 
L 1115.546853 257.218884 
L 1120.541538 369.275815 
L 1125.536224 469.737892 
L 1130.530909 455.33804 
L 1135.525594 302.716084 
L 1145.514965 481.113 
L 1155.504336 481.276194 
L 1160.499021 481.30447 
L 1165.493706 525.75222 
L 1170.488392 503.543291 
L 1175.483077 492.437211 
L 1180.477762 478.806471 
L 1185.472448 524.50322 
L 1190.467133 502.917175 
L 1195.461818 484.047261 
L 1195.461818 484.047261 
" clip-path="url(#pb19c340e9a)" style="fill: none; stroke: #ff0000; stroke-width: 1.5; stroke-linecap: square"/>
   </g>
   <g id="patch_3">
    <path d="M 172.8 629.9064 
L 172.8 84.9312 
" style="fill: none; stroke: #000000; stroke-width: 0.8; stroke-linejoin: miter; stroke-linecap: square"/>
   </g>
   <g id="patch_4">
    <path d="M 1244.16 629.9064 
L 1244.16 84.9312 
" style="fill: none; stroke: #000000; stroke-width: 0.8; stroke-linejoin: miter; stroke-linecap: square"/>
   </g>
   <g id="patch_5">
    <path d="M 172.8 629.9064 
L 1244.16 629.9064 
" style="fill: none; stroke: #000000; stroke-width: 0.8; stroke-linejoin: miter; stroke-linecap: square"/>
   </g>
   <g id="patch_6">
    <path d="M 172.8 84.9312 
L 1244.16 84.9312 
" style="fill: none; stroke: #000000; stroke-width: 0.8; stroke-linejoin: miter; stroke-linecap: square"/>
   </g>
   <g id="text_19">
    <!-- Ultrasound Sensor Measurements -->
    <g transform="translate(607.020937 78.9312)scale(0.12 -0.12)">
     <defs>
      <path id="DejaVuSans-55" d="M 556 4666 
L 1191 4666 
L 1191 1831 
Q 1191 1081 1462 751 
Q 1734 422 2344 422 
Q 2950 422 3222 751 
Q 3494 1081 3494 1831 
L 3494 4666 
L 4128 4666 
L 4128 1753 
Q 4128 841 3676 375 
Q 3225 -91 2344 -91 
Q 1459 -91 1007 375 
Q 556 841 556 1753 
L 556 4666 
z
" transform="scale(0.015625)"/>
      <path id="DejaVuSans-6c" d="M 603 4863 
L 1178 4863 
L 1178 0 
L 603 0 
L 603 4863 
z
" transform="scale(0.015625)"/>
      <path id="DejaVuSans-6f" d="M 1959 3097 
Q 1497 3097 1228 2736 
Q 959 2375 959 1747 
Q 959 1119 1226 758 
Q 1494 397 1959 397 
Q 2419 397 2687 759 
Q 2956 1122 2956 1747 
Q 2956 2369 2687 2733 
Q 2419 3097 1959 3097 
z
M 1959 3584 
Q 2709 3584 3137 3096 
Q 3566 2609 3566 1747 
Q 3566 888 3137 398 
Q 2709 -91 1959 -91 
Q 1206 -91 779 398 
Q 353 888 353 1747 
Q 353 2609 779 3096 
Q 1206 3584 1959 3584 
z
" transform="scale(0.015625)"/>
      <path id="DejaVuSans-64" d="M 2906 2969 
L 2906 4863 
L 3481 4863 
L 3481 0 
L 2906 0 
L 2906 525 
Q 2725 213 2448 61 
Q 2172 -91 1784 -91 
Q 1150 -91 751 415 
Q 353 922 353 1747 
Q 353 2572 751 3078 
Q 1150 3584 1784 3584 
Q 2172 3584 2448 3432 
Q 2725 3281 2906 2969 
z
M 947 1747 
Q 947 1113 1208 752 
Q 1469 391 1925 391 
Q 2381 391 2643 752 
Q 2906 1113 2906 1747 
Q 2906 2381 2643 2742 
Q 2381 3103 1925 3103 
Q 1469 3103 1208 2742 
Q 947 2381 947 1747 
z
" transform="scale(0.015625)"/>
      <path id="DejaVuSans-53" d="M 3425 4513 
L 3425 3897 
Q 3066 4069 2747 4153 
Q 2428 4238 2131 4238 
Q 1616 4238 1336 4038 
Q 1056 3838 1056 3469 
Q 1056 3159 1242 3001 
Q 1428 2844 1947 2747 
L 2328 2669 
Q 3034 2534 3370 2195 
Q 3706 1856 3706 1288 
Q 3706 609 3251 259 
Q 2797 -91 1919 -91 
Q 1588 -91 1214 -16 
Q 841 59 441 206 
L 441 856 
Q 825 641 1194 531 
Q 1563 422 1919 422 
Q 2459 422 2753 634 
Q 3047 847 3047 1241 
Q 3047 1584 2836 1778 
Q 2625 1972 2144 2069 
L 1759 2144 
Q 1053 2284 737 2584 
Q 422 2884 422 3419 
Q 422 4038 858 4394 
Q 1294 4750 2059 4750 
Q 2388 4750 2728 4690 
Q 3069 4631 3425 4513 
z
" transform="scale(0.015625)"/>
     </defs>
     <use xlink:href="#DejaVuSans-55"/>
     <use xlink:href="#DejaVuSans-6c" x="73.193359"/>
     <use xlink:href="#DejaVuSans-74" x="100.976562"/>
     <use xlink:href="#DejaVuSans-72" x="140.185547"/>
     <use xlink:href="#DejaVuSans-61" x="181.298828"/>
     <use xlink:href="#DejaVuSans-73" x="242.578125"/>
     <use xlink:href="#DejaVuSans-6f" x="294.677734"/>
     <use xlink:href="#DejaVuSans-75" x="355.859375"/>
     <use xlink:href="#DejaVuSans-6e" x="419.238281"/>
     <use xlink:href="#DejaVuSans-64" x="482.617188"/>
     <use xlink:href="#DejaVuSans-20" x="546.09375"/>
     <use xlink:href="#DejaVuSans-53" x="577.880859"/>
     <use xlink:href="#DejaVuSans-65" x="641.357422"/>
     <use xlink:href="#DejaVuSans-6e" x="702.880859"/>
     <use xlink:href="#DejaVuSans-73" x="766.259766"/>
     <use xlink:href="#DejaVuSans-6f" x="818.359375"/>
     <use xlink:href="#DejaVuSans-72" x="879.541016"/>
     <use xlink:href="#DejaVuSans-20" x="920.654297"/>
     <use xlink:href="#DejaVuSans-4d" x="952.441406"/>
     <use xlink:href="#DejaVuSans-65" x="1038.720703"/>
     <use xlink:href="#DejaVuSans-61" x="1100.244141"/>
     <use xlink:href="#DejaVuSans-73" x="1161.523438"/>
     <use xlink:href="#DejaVuSans-75" x="1213.623047"/>
     <use xlink:href="#DejaVuSans-72" x="1277.001953"/>
     <use xlink:href="#DejaVuSans-65" x="1315.865234"/>
     <use xlink:href="#DejaVuSans-6d" x="1377.388672"/>
     <use xlink:href="#DejaVuSans-65" x="1474.800781"/>
     <use xlink:href="#DejaVuSans-6e" x="1536.324219"/>
     <use xlink:href="#DejaVuSans-74" x="1599.703125"/>
     <use xlink:href="#DejaVuSans-73" x="1638.912109"/>
    </g>
   </g>
  </g>
 </g>
 <defs>
  <clipPath id="pb19c340e9a">
   <rect x="172.8" y="84.9312" width="1071.36" height="544.9752"/>
  </clipPath>
 </defs>
</svg>
